<svg id="Layer_1" data-name="Layer 1" xmlns="http://www.w3.org/2000/svg" xmlns:xlink="http://www.w3.org/1999/xlink" viewBox="0 0 1500 1000"><defs><style>.cls-1{fill:none;}.cls-2{clip-path:url(#clip-path);}.cls-3,.cls-7{fill:#fbed1d;}.cls-4{fill:#00a44f;}.cls-5{fill:#f38020;}.cls-6{fill:#a62c3a;}.cls-7{fill-rule:evenodd;}</style><clipPath id="clip-path"><path class="cls-1" d="M268.35,439.12a124.11,124.11,0,0,0-14.13-7.29,129.15,129.15,0,0,0-13.78-5.13,50,50,0,0,0-14.93-2.39,20.84,20.84,0,0,0-9.46,1.82,6.38,6.38,0,0,0-3.53,6.15,7.11,7.11,0,0,0,2,5.24,19.37,19.37,0,0,0,5.93,3.76,73.51,73.51,0,0,0,9.45,3.31q5.58,1.59,12.65,3.87A167.56,167.56,0,0,1,262.77,456a62.81,62.81,0,0,1,15.38,9.68,37.32,37.32,0,0,1,9.79,13.56q3.42,8,3.42,19.37,0,14.58-5.35,24.49a43.89,43.89,0,0,1-14.13,15.84,59.79,59.79,0,0,1-19.82,8.55,96.43,96.43,0,0,1-22.22,2.62,126.13,126.13,0,0,1-18.23-1.37A157.89,157.89,0,0,1,193,544.85a161.64,161.64,0,0,1-17.77-5.93,113.15,113.15,0,0,1-15.84-7.75l19.14-39a133.91,133.91,0,0,0,16.64,8.89,117.79,117.79,0,0,0,16.52,6.15A65.86,65.86,0,0,0,230.52,510q7.29,0,10.14-1.93a5.93,5.93,0,0,0,2.85-5.13,7.32,7.32,0,0,0-2.85-5.81,26.09,26.09,0,0,0-7.86-4.22q-5-1.81-11.51-3.64t-13.78-4.33a119.41,119.41,0,0,1-18.46-7.86,50.09,50.09,0,0,1-12.76-9.57,34.19,34.19,0,0,1-7.4-12.19,47.41,47.41,0,0,1-2.39-15.73q0-13.44,4.89-23.69a48.62,48.62,0,0,1,13.33-17.09A59.67,59.67,0,0,1,204,388.42a73.42,73.42,0,0,1,22.9-3.53,86.86,86.86,0,0,1,17.31,1.71,138.1,138.1,0,0,1,16.3,4.33,153.68,153.68,0,0,1,14.69,5.69q6.84,3.08,12.31,5.81ZM311,548V386.26h74.28a49.22,49.22,0,0,1,21.87,4.89,56.83,56.83,0,0,1,17.2,12.76,59.57,59.57,0,0,1,11.28,18,53.87,53.87,0,0,1,4.11,20.39,57.63,57.63,0,0,1-6.16,26.32,53.56,53.56,0,0,1-17.09,19.93L450.63,548H400.5L372,498.36H355.39V548Zm44.43-88.41h28q4.11,0,7.64-4.56t3.53-12.76q0-8.43-4.1-12.88T382.27,425H355.39ZM464.76,548V386.26h44.43V548Zm123.49,0V386.26h44.43v123h73.37V548ZM763.47,386.26H804L860.08,548H815l-9.8-31.68H762.1L752.54,548H707.19Zm34.64,100.48-14.36-50.13-15,50.13ZM918,468.51V548H873.53V386.26h34.63l64.94,82.25V386.26h44.43V548H982.21ZM1045.33,548V386.26h44.43v61.52L1139,386.26h50.13l-58.79,72.45L1193.21,548h-51l-40.1-59.48-12.31,12.76V548Zm199.15-161.78H1285l56,161.78H1296l-9.8-31.68h-43.06L1233.54,548H1188.2Zm34.63,100.48-14.35-50.13-15,50.13Z"/></clipPath></defs><title>Sri Lankan</title><g class="cls-2"><rect class="cls-3" x="159.43" y="372.92" width="1470.06" height="196.58"/><rect class="cls-4" x="171.77" y="384.97" width="32.25" height="172.59"/><rect class="cls-5" x="203.74" y="384.97" width="32.44" height="172.59"/><rect class="cls-6" x="681.79" y="385.29" width="875.67" height="171.94"/><path class="cls-7" d="M267.24,409.71c.64-4.7-2-17.85-8.87-16.24-.9.2-2.22,1.12-2.92-.13-.36-.64-.53-1.26-.91-1.45-.91-.44-2.27,1.11-2,2.19.23.75,1.26.68,1.64,1.45a2.39,2.39,0,0,1,.13,1.57,12.37,12.37,0,0,0-.53,3.95,5.54,5.54,0,0,0,1.14,3.11C257.77,408.13,265.45,405.91,267.24,409.71Z"/><path class="cls-7" d="M380.71,409.71c-.64-4.7,2-17.85,8.87-16.24.9.2,2.22,1.12,2.92-.13.35-.64.52-1.26.91-1.45.9-.44,2.27,1.11,1.95,2.19-.22.75-1.25.68-1.63,1.45a2.39,2.39,0,0,0-.13,1.57,12.37,12.37,0,0,1,.53,3.95,5.54,5.54,0,0,1-1.14,3.11C390.18,408.13,382.5,405.91,380.71,409.71Z"/><path class="cls-7" d="M267.24,533.45c.64,4.7-2,17.85-8.87,16.24-.9-.21-2.22-1.12-2.92.13-.36.64-.53,1.26-.91,1.45-.91.44-2.27-1.11-2-2.19.23-.75,1.26-.68,1.64-1.45a2.39,2.39,0,0,0,.13-1.57,12.37,12.37,0,0,1-.53-3.95A5.54,5.54,0,0,1,255,539C257.77,535,265.45,537.25,267.24,533.45Z"/><path class="cls-7" d="M380.71,533.45c-.64,4.7,2,17.85,8.87,16.24.9-.21,2.22-1.12,2.92.13.35.64.52,1.26.91,1.45.9.44,2.27-1.11,1.95-2.19-.22-.75-1.25-.68-1.63-1.45a2.39,2.39,0,0,1-.13-1.57,12.37,12.37,0,0,0,.53-3.95A5.54,5.54,0,0,0,393,539C390.18,535,382.5,537.25,380.71,533.45Z"/><path class="cls-7" d="M1135.23,439.07c-1.74-3.61,3.38-5.62,4.14-1.15.92,5.42-4.93,6.22-7.85,3.6-2.57-2.3-5-5.83-7-6.77,0,0,.42.4.61,2.59a3.05,3.05,0,0,0,2.19,2.69,6.78,6.78,0,0,1-6.83-4.74s-.29,4.85-4.64,4.24c0,0,5-6.67-2.39-9.43,0,0,4.23,7.7-4.56,9.43,0,0,4.76-5.53-.67-9.51,0,0-2.89-1.76-2.83-.25,0,0,1.72,2.08-1.11,4.23,0,0-.54-3.77-4.35-1,0,0-3,3.41,1.08,6.64,0,0,1.65-3.81,5.21-2.76,0,0,2.54,1.5.41,1.65,0,0-4.51,1.75-.83,6.17,0,0,1.12-3.34,3-2.8-1.64,6.36,10.93,4,13.34,3.3,0,0,5.67-1.49,9.43.3,6.72,3.21,6.32,13.73.57,16.43a11.13,11.13,0,0,1,2,3.32,26.09,26.09,0,0,1,0,19.74c-1.12,2.88-1.61,6.41-2.28,10.41a10,10,0,0,0,1,6.09c.66,1.34,1,2,2.36,2.2.44.07.81.09.81.09,1.3.91-.76,3.69-2.41,4.95s-1.57,2.08-1.75,3.64.94,3.18,2.15,5.31-.72,2-2,1.87-2-1.67-2-1.67c-1,2.27-2.28,1.77-2.28,1.77a3,3,0,0,1-2.33-1.77c-2.59,4-4.34,0-4.34,0-1.65,2-3,1.67-3,1.67,1.29-6.12,6.62-5.81,6.62-5.81a2.54,2.54,0,0,0,1.88-2.38l-.14-5.1c0-3.89-3.49-6.62-6.13-7.93a15.56,15.56,0,0,1-3.33-2.56c-1.87-1.79-3.41-4.61-5.42-6a7.47,7.47,0,0,0-2.14-1.05c-7.29-2.3-14.16,1.14-20.55,4.9a41.45,41.45,0,0,1-5.32,2.59c-.32.13-.28.07-.44.46a43.65,43.65,0,0,1-2.29,4.59c-2.25,4.09,1.75,4.73,4.25,4.64a7,7,0,0,1-5.41,5.31c-1.43.1-1.43,2.12-.94,2.58s.49,1.82.49,1.82a6.94,6.94,0,0,1-1.56,3.94c-2.82.3-3.76-1.42-3.76-1.42a3,3,0,0,1-3,1.42,2.2,2.2,0,0,1-2-1.47l-.68.86a3.2,3.2,0,0,1-2,.71c-1.12-.05-1.75-1.42-1.75-1.42-1.47,1.72-2.86,1.37-2.86,1.37a17.5,17.5,0,0,1,1.7-4.85c1-1.52,3.49-1,4.39-1a8,8,0,0,0,2.31-.39c4.81-1.7,2.63-8.23,1.55-12l-.59-2.09-.11-.59c-6.77-3.35-12.26-9.13-13-17.88-.7-8.24,4.5-14.95,10.22-19a7.08,7.08,0,0,0,1.81-1.81,2.38,2.38,0,0,0,.37-1.74,1.23,1.23,0,0,0-2.23-.24,4.52,4.52,0,0,0-.61,1.75h0a.71.71,0,0,1-.31-.12,2.53,2.53,0,0,1-.77-.54c-.84-.83-.65-3.07-1.54-3.34a8.76,8.76,0,0,1-.13,1.28,13,13,0,0,1-.22,1.43c-.17.71,0,.39,0,.39s-2-1.42-2-3c0,0-1,1.49-4,1.23a1.92,1.92,0,0,0,.6-.39,2.51,2.51,0,0,0,.61-1,2.93,2.93,0,0,1,.28-1c0-.05,0-.1,0-.14a1.4,1.4,0,0,1-.29.09,8.57,8.57,0,0,1-1.76.52l-2.26.15a1.26,1.26,0,0,0-.74.24c-.19.14.38-.61.43-.71a4.09,4.09,0,0,0,.48-1.87c0-1.73.84-3.57,1.51-3.84l.13-.15,4.65,1.88a10.4,10.4,0,0,0,4.46.5l-.54,1.07,2.22.9a6.79,6.79,0,0,1,1.63.29s1.77.32,1.09-1.16a32.36,32.36,0,0,0-3.27-5.49,7.16,7.16,0,0,1-1.48-3.29s-.8-.33-.45,3c-1.25-1.08-2.1-1.31-3.09-2.91a20,20,0,0,0,.4,2.78c.23.71-.74-.39-1.77-1.16s-1.49-2.65-2-3c-1.45-.91-3.86-3.53-3.2-5.68a3.47,3.47,0,0,1-.11-4.62,2.65,2.65,0,0,1,3.23-.83,3,3,0,0,1,1,3.9l3.89-.71a14.78,14.78,0,0,1,3-.78,15.36,15.36,0,0,1,2.17-.19,4,4,0,0,0,2.28-2.71c.18-1.49-.62-1.42-.4-2.45,0,0,.46.45,1.66.19a4.6,4.6,0,0,1,4.57,1.29s1.6,2.26,2.12-.58c0,0,.05-2.52-.57-2.71,0,0,5.08,1.35,5.94,4.13a8.18,8.18,0,0,0,1.2-2.78c0-.9-.23-1.09-.23-1.09s3,1,4.23,2.45,1.43,1.61,2.91,1.48c0,0,2.23-1.09,2.46-3a8.37,8.37,0,0,1-2.86,7.75s2.55,2.29,1.69,8.66a3.42,3.42,0,0,1,.18,1,46.9,46.9,0,0,1-.41,6,6.81,6.81,0,0,0-.83-1.2l0,.23c-.3.84.34,2.77.8,4.09.18.51.33.93.39,1.15.25.86-.1,1.95-.17,1.48a4.87,4.87,0,0,0-1.75-2.16l0,.05a6,6,0,0,0,1.77,5.44l-.58.18a2.37,2.37,0,0,0,.4,1.1h0a9.74,9.74,0,0,1,4-.78,65,65,0,0,0,10.86-1.23c7.25-1.52,14.74-2.91,19.61-.26,3.65,2,5-6,3-8.65-2.54-3.47-8.19-1.82-12.3-1-4.76.93-10.31,1.18-14.73-1.19-1.39-.75-2.4-1.4-3.19-1.19-1.21.32-1.79,1.14-1.75,4a5.52,5.52,0,0,1-1.11-7.92s-3.78-4.24-3-9.05c.64-4.05,5-8.57,12.1-9.39,9.68-1.11,16.74,5.67,23.59,12.12C1131.76,437.38,1134.19,440,1135.23,439.07Z"/><path class="cls-6" d="M1134.91,439a3,3,0,0,1,.15-2.78,2.43,2.43,0,0,1,1.12-.92,2.24,2.24,0,0,1,1.4-.1,3,3,0,0,1,2,2.72,5.33,5.33,0,0,1-.17,2.78,3.61,3.61,0,0,1-1.75,2,5,5,0,0,1-2.62.55,6.13,6.13,0,0,1-3.69-1.5h0a38.35,38.35,0,0,1-3-3.11,23.59,23.59,0,0,0-3.29-3.25,10.62,10.62,0,0,1,.32,1.95,2.78,2.78,0,0,0,2,2.45.29.29,0,0,1,.18.33.25.25,0,0,1-.23.21,7,7,0,0,1-6.74-4.09c-.33,1.44-1.39,4.06-4.76,3.59a.28.28,0,0,1-.2-.31.34.34,0,0,1,.06-.15c.21-.28,4.33-6-1.72-8.75.82,1.94,2.57,7.72-5,9.2a.24.24,0,0,1-.27-.22.3.3,0,0,1,.08-.24c.19-.23,4.43-5.36-.63-9.08-.18-.11-2.38-1.4-2.47-.58.3.44,1.49,2.49-1.22,4.56a.22.22,0,0,1-.33-.08.27.27,0,0,1,0-.12c0-.26-.63-3.24-4-.85-.24.28-2.54,3.18.86,6,.47-.88,2.2-3.56,5.34-2.64l.07,0c.24.15,3.15,1.95.34,2.15-.34.15-3.79,1.72-1,5.42.38-.9,1.47-3.05,3.12-2.58a.29.29,0,0,1,.17.33v0h0a3.78,3.78,0,0,0-.13,1.16,2.47,2.47,0,0,0,1.61,2.12,10,10,0,0,0,3.75.67,31.9,31.9,0,0,0,7.84-1h0s5.74-1.5,9.57.32a8.77,8.77,0,0,1,4.52,5.18,11.12,11.12,0,0,1,0,7.12,8,8,0,0,1-3.61,4.47,9.23,9.23,0,0,1,.88,1.25,16.94,16.94,0,0,1,.92,1.86v0a27.49,27.49,0,0,1,1,2.72,24.76,24.76,0,0,1,.63,2.78,27.25,27.25,0,0,1-1.62,14.45,46.39,46.39,0,0,0-2,8.88c-.08.51-.17,1-.24,1.47a9,9,0,0,0,.09,3.33,11.43,11.43,0,0,0,.91,2.57l0,.05c.61,1.23.91,1.83,2.17,2,.39.06.8.08.8.08a.17.17,0,0,1,.12,0,1.21,1.21,0,0,1,.34.38,1.53,1.53,0,0,1,.14,1h0a3.89,3.89,0,0,1-.38,1.08,9.71,9.71,0,0,1-2.53,2.94,3.45,3.45,0,0,0-1.59,3c0,.12,0,.25,0,.46-.14,1.24.65,2.59,1.62,4.26l.49.86c.62,1.07.51,1.68.07,2a3.76,3.76,0,0,1-2.28.26h0a2.72,2.72,0,0,1-1.94-1.41c-1,1.83-2.13,1.57-2.33,1.51a3.07,3.07,0,0,1-2.31-1.57c-2.23,3.2-3.86.91-4.36,0-1.65,1.85-3,1.49-3,1.49a.26.26,0,0,1-.18-.32h0c1.29-6.08,6.41-6,6.83-6a2.23,2.23,0,0,0,1.66-2.1l-.13-5.09h0a6.27,6.27,0,0,0-.26-1.75,7.42,7.42,0,0,0-.54-1.3,12.08,12.08,0,0,0-5.19-4.62,10.48,10.48,0,0,1-1.71-1.13,19.09,19.09,0,0,1-1.67-1.47h0a24.74,24.74,0,0,1-2.26-2.65,16.43,16.43,0,0,0-3.12-3.37,7.38,7.38,0,0,0-1-.59,8.24,8.24,0,0,0-1.07-.43,17.36,17.36,0,0,0-10.49.18c-.54.16-1.07.34-1.6.54v-.57c.49-.18,1-.35,1.48-.5a17.75,17.75,0,0,1,10.73-.18,9.17,9.17,0,0,1,1.13.45,6.88,6.88,0,0,1,1.07.64A17.05,17.05,0,0,1,1115,493a25.34,25.34,0,0,0,2.22,2.6l0,0h0c.52.5,1.07,1,1.63,1.43a10,10,0,0,0,1.64,1.08,12.51,12.51,0,0,1,5.39,4.83,7.93,7.93,0,0,1,.59,1.41,6.77,6.77,0,0,1,.28,1.93h0l.14,5.09h0v0a2.78,2.78,0,0,1-2.07,2.63h0s-5-.28-6.31,5.29a3.54,3.54,0,0,0,2.52-1.6.13.13,0,0,1,.07-.06.21.21,0,0,1,.31.11s1.57,3.6,3.94-.08a.3.3,0,0,1,.08-.08.22.22,0,0,1,.32.11,2.72,2.72,0,0,0,2.13,1.62l.06,0s1.11.43,2-1.63h0a.24.24,0,0,1,.1-.12.22.22,0,0,1,.32.12s.61,1.42,1.77,1.51h0a3.57,3.57,0,0,0,2-.16c.22-.17.22-.55-.2-1.28-.19-.34-.34-.61-.49-.86-1-1.76-1.85-3.18-1.69-4.63,0-.11,0-.29,0-.45a3.85,3.85,0,0,1,1.8-3.38,9.17,9.17,0,0,0,2.37-2.77,2.84,2.84,0,0,0,.33-.9h0a.91.91,0,0,0-.07-.6.7.7,0,0,0-.16-.19c-.11,0-.39,0-.77-.09-1.5-.23-1.83-.9-2.51-2.29l0-.05a11.66,11.66,0,0,1-1-2.71,9.39,9.39,0,0,1-.1-3.57c.09-.54.17-1,.24-1.46a46.45,46.45,0,0,1,2.06-9,26.77,26.77,0,0,0,1.58-14.13,25.8,25.8,0,0,0-.61-2.71,26.13,26.13,0,0,0-.94-2.65v0a15.7,15.7,0,0,0-.89-1.79,8.48,8.48,0,0,0-1-1.44.24.24,0,0,1-.08-.11.3.3,0,0,1,.13-.35,7.39,7.39,0,0,0,3.69-4.33,10.45,10.45,0,0,0,0-6.72,8.28,8.28,0,0,0-4.27-4.88c-3.64-1.73-9.12-.33-9.29-.29a31.42,31.42,0,0,1-8,1,10,10,0,0,1-3.91-.71,3,3,0,0,1-1.91-2.59,4.38,4.38,0,0,1,.09-1.05c-1.49-.14-2.42,2.5-2.48,2.67a.31.31,0,0,1,0,.1.21.21,0,0,1-.33,0c-4-4.73.9-6.62.91-6.62h0l.07,0c1.17-.08-.27-1-.48-1.12-3.36-1-4.92,2.62-4.92,2.63h0l0,0a.21.21,0,0,1-.32.07c-4.29-3.35-1.25-6.91-1.12-7.05l0,0c3.3-2.37,4.33-.14,4.61.83,2.15-1.84.88-3.51.8-3.6a.35.35,0,0,1-.06-.18c-.08-1.93,3-.12,3.16,0l0,0c4.58,3.35,2.25,7.73,1.17,9.32,7.57-1.9,3.75-8.84,3.74-8.87a.28.28,0,0,1,0-.22.23.23,0,0,1,.29-.18c6.6,2.48,3.74,7.93,2.77,9.46,3.67.21,4-3.94,4-4a.24.24,0,0,1,.15-.23.22.22,0,0,1,.3.16,6.27,6.27,0,0,0,5.42,4.5,3.24,3.24,0,0,1-1.24-2.34c-.18-2.08-.52-2.4-.53-2.41h0a.31.31,0,0,1-.05-.3.22.22,0,0,1,.3-.15c1.23.59,2.58,2.1,4,3.72a39.32,39.32,0,0,0,3,3.07h0a5.63,5.63,0,0,0,3.42,1.38,4.53,4.53,0,0,0,2.41-.49,3.2,3.2,0,0,0,1.51-1.75,4.78,4.78,0,0,0,.14-2.46,2.56,2.56,0,0,0-1.66-2.3,1.88,1.88,0,0,0-1.15.08,2,2,0,0,0-.9.74,2.42,2.42,0,0,0,0,2.43h0a.32.32,0,0,1-.06.36c-1.09.92-3.29-1.23-4.11-2l-.19-.19-.26-.24c-6.73-6.34-13.69-12.9-23.15-11.82a14.57,14.57,0,0,0-10.31,5.52v-.82a15.22,15.22,0,0,1,10.26-5.24c9.65-1.11,16.69,5.52,23.5,11.93l.26.25a1.69,1.69,0,0,1,.19.19c.69.67,2.47,2.41,3.35,2.1Zm-37.56,21.46V461l.79,0c1.88-.08,3.68-.19,5.47-.39s3.57-.46,5.42-.84A75.29,75.29,0,0,1,1119.7,458c3.35-.21,6.4.1,8.8,1.41a2.15,2.15,0,0,0,2.07.14A3.3,3.3,0,0,0,1132,458a8.38,8.38,0,0,0,.7-2.47,7.71,7.71,0,0,0-.87-5.17c-2.36-3.22-7.18-2.21-11.16-1.38l-1.36.27a31.05,31.05,0,0,1-7.44.64,16.56,16.56,0,0,1-7.15-1.81h0l-.53-.29c-1.17-.64-2.05-1.12-2.82-.92a2.13,2.13,0,0,0-1.49,1.18,6.35,6.35,0,0,0-.44,2.57,5.14,5.14,0,0,1-.69-7.22.3.3,0,0,0,0-.38,13.18,13.18,0,0,1-1.35-1.92V442a14.42,14.42,0,0,0,.89,1.22,7.34,7.34,0,0,0-.89,1.77v3.39a6.8,6.8,0,0,0,2.17,3,.24.24,0,0,0,.14.05.26.26,0,0,0,.23-.28,6.6,6.6,0,0,1,.38-2.82,1.69,1.69,0,0,1,1.19-.92c.61-.16,1.43.29,2.51.88l.53.29h0a17,17,0,0,0,7.33,1.87,32.38,32.38,0,0,0,7.54-.65l1.36-.28c3.86-.8,8.54-1.78,10.73,1.2a7.17,7.17,0,0,1,.76,4.73,7.77,7.77,0,0,1-.65,2.29,2.8,2.8,0,0,1-1.18,1.35,1.79,1.79,0,0,1-1.69-.13c-2.48-1.35-5.6-1.67-9-1.47a77.48,77.48,0,0,0-10.72,1.7c-1.84.38-3.61.65-5.38.84s-3.57.31-5.44.39Zm0,29.25a53.55,53.55,0,0,0-8.29,4.16c-.91.54-1.77,1-2.64,1.41s-1.76.8-2.72,1.2l-.1,0-.1,0h0l-.07.16h0l0,.08v0a38.63,38.63,0,0,1-2.12,4.28l-.17.31a5,5,0,0,0-.59,1.56,1.75,1.75,0,0,0,.31,1.47,2.76,2.76,0,0,0,1.32.85,9.07,9.07,0,0,0,3,.35.26.26,0,0,1,.24.27v.07h0a7.2,7.2,0,0,1-5.61,5.51h0a1,1,0,0,0-.77.43,1.27,1.27,0,0,0-.19.48,1.59,1.59,0,0,0,0,.53,1,1,0,0,0,.21.65c.58.54.58,2,.58,2h0a7.22,7.22,0,0,1-1.64,4.11.2.2,0,0,1-.15.09,4.06,4.06,0,0,1-3.78-1.28,3.32,3.32,0,0,1-1.2,1,4.77,4.77,0,0,1-1.74.27,2.27,2.27,0,0,1-2.06-1.28l-.45.58,0,0h0a3.46,3.46,0,0,1-2.2.76h0a2.42,2.42,0,0,1-1.78-1.27,3.16,3.16,0,0,1-2.87,1.21.28.28,0,0,1-.18-.32v0a17.77,17.77,0,0,1,1.75-4.94h0l0,0v0c.92-1.28,2.72-1.16,3.88-1.09l.65,0a10.73,10.73,0,0,0,1.22-.12,8.13,8.13,0,0,0,1-.26c3.63-1.28,3-5.55,2.12-9.1-.18-.7-.37-1.35-.54-2l-.18-.64-.59-2.09a.09.09,0,0,1,0-.05l-.09-.43a29.51,29.51,0,0,1-2.67-1.52,27.51,27.51,0,0,1-2.57-1.86,21.24,21.24,0,0,1-6.47-8.83V485.1a20.49,20.49,0,0,0,6.74,9.86,25.43,25.43,0,0,0,2.53,1.83,29.06,29.06,0,0,0,2.73,1.54h0a.25.25,0,0,1,.13.19l.11.57.59,2.09c.11.38.14.49.18.64.18.62.38,1.29.55,2,1,3.8,1.59,8.36-2.44,9.78a7.52,7.52,0,0,1-1.09.28,9.62,9.62,0,0,1-1.28.12c-.18,0-.42,0-.69,0-1.06-.08-2.73-.19-3.49.89h0l0,0h0a15.78,15.78,0,0,0-1.59,4.44,3.17,3.17,0,0,0,2.4-1.31l.06-.06a.22.22,0,0,1,.32.11s.56,1.23,1.55,1.28a3.06,3.06,0,0,0,1.89-.64l.64-.83a.32.32,0,0,1,.09-.08.23.23,0,0,1,.31.14,1.94,1.94,0,0,0,1.79,1.3,4.42,4.42,0,0,0,1.59-.23,3.23,3.23,0,0,0,1.19-1.08l0-.06a.23.23,0,0,1,.33.08s.84,1.55,3.45,1.3a6.46,6.46,0,0,0,1.44-3.65v0s0-1.24-.41-1.61a1.66,1.66,0,0,1-.38-1.05,2.88,2.88,0,0,1,.06-.71,2,2,0,0,1,.29-.67,1.41,1.41,0,0,1,1.09-.63,6.71,6.71,0,0,0,5.13-4.76,8.79,8.79,0,0,1-2.83-.38,3.26,3.26,0,0,1-1.54-1,2.37,2.37,0,0,1-.42-1.94,5.33,5.33,0,0,1,.66-1.75l.17-.32a39.37,39.37,0,0,0,2.09-4.22v0l0-.08h0a1.07,1.07,0,0,1,.18-.33h0a.71.71,0,0,1,.26-.15l.1,0c1-.4,1.83-.78,2.69-1.19s1.71-.85,2.61-1.39a53.47,53.47,0,0,1,8.5-4.24v.57ZM1059,472.33a25.59,25.59,0,0,1,9-10.85h0c.08-.06.17-.12.26-.2s.18-.14.27-.21a6.22,6.22,0,0,0,1.2-1.32h0a2.25,2.25,0,0,0,.12-.21,2.14,2.14,0,0,0,.1-.22,1.85,1.85,0,0,0,.12-1.07.85.85,0,0,0-.24-.43.9.9,0,0,0-.45-.21,1.13,1.13,0,0,0-.54.06,1.06,1.06,0,0,0-.59.43,2.24,2.24,0,0,0-.31.64,5.84,5.84,0,0,0-.26,1,.26.26,0,0,1-.12.19.15.15,0,0,1-.13,0h-.12l-.27-.12a2.42,2.42,0,0,1-.37-.21,3.5,3.5,0,0,1-.45-.37h0a3.93,3.93,0,0,1-.8-1.88,4.34,4.34,0,0,0-.38-1.17c0,.26-.06.56-.11.84l0,.21h0c0,.09,0,.17,0,.22a9.86,9.86,0,0,1-.16,1c0,.06,0,.11,0,.15a.35.35,0,0,1,0,.3s-.94,1.84-.55-.07a5.29,5.29,0,0,1-1.83-2.56,4.83,4.83,0,0,1-3.34,1v-.92l0,0,0,0h0l.06-.06h0l.09-.1h0a2.79,2.79,0,0,0,.34-.64,3.36,3.36,0,0,1,.13-.61c-.2.08-.42.15-.63.21v-.56a5.32,5.32,0,0,0,.64-.24h0l.14,0h0l.12,0a.17.17,0,0,1,.12,0,.28.28,0,0,1,.19.32v.06h0l0,.08h0a.11.11,0,0,1,0,.08,2.26,2.26,0,0,0-.12.31,4.27,4.27,0,0,0-.12.57h0s0,.05,0,.07a3.49,3.49,0,0,1-.43.81h0l-.11.13h0l-.05.06a3.75,3.75,0,0,0,3-1.15.21.21,0,0,1,.18-.11.26.26,0,0,1,.24.27,3.91,3.91,0,0,0,1.55,2.54c0-.22.1-.55.14-.9,0-.1,0-.17,0-.23h0l0-.21a.43.43,0,0,0,0-.05,7.86,7.86,0,0,0,.11-.9c0-.06,0-.12,0-.15v-.14h0a.26.26,0,0,1,.29-.27c.61.18.79.95,1,1.78a3.61,3.61,0,0,0,.65,1.61h0a2.47,2.47,0,0,0,.38.31,2.18,2.18,0,0,0,.31.18l0,0,0,0a5.82,5.82,0,0,1,.22-.81,3.45,3.45,0,0,1,.38-.77,1.68,1.68,0,0,1,.83-.62,1.66,1.66,0,0,1,.73-.07,1.28,1.28,0,0,1,.68.33,1.42,1.42,0,0,1,.4.69,2.48,2.48,0,0,1-.15,1.46,1.59,1.59,0,0,1-.12.27,2,2,0,0,1-.14.25h0a7.1,7.1,0,0,1-1.3,1.44l-.29.23-.27.2h0A24.51,24.51,0,0,0,1059,473.7v-1.37Zm0-23.12,3.24,1.3a14.68,14.68,0,0,0,2.34.51,6,6,0,0,0,2,0,.25.25,0,0,1,.28.22.4.4,0,0,1,0,.19h0l-.4.79,1.92.77.22,0,.24,0a6.69,6.69,0,0,1,1.18.25c.13,0,1.27.18.83-.76a25.62,25.62,0,0,0-1.51-2.84c-.52-.86-1.08-1.68-1.73-2.61a11.6,11.6,0,0,1-1-1.7,5.23,5.23,0,0,1-.48-1.41,5.9,5.9,0,0,0,0,2.58.28.28,0,0,1-.21.31.22.22,0,0,1-.18-.07c-.36-.31-.7-.56-1-.79a7.19,7.19,0,0,1-1.59-1.43,11.79,11.79,0,0,0,.3,1.79c.1.32.05.5-.13.58s-.57-.22-1-.63a11.12,11.12,0,0,0-.94-.78h0a5.85,5.85,0,0,1-1.39-2,3.13,3.13,0,0,0-.58-.94h0l-.26-.18v-.64l.48.34h0a3,3,0,0,1,.77,1.15,5.25,5.25,0,0,0,1.24,1.82h0c.34.25.67.55,1,.8l.38.35a22.82,22.82,0,0,1-.33-2.51.29.29,0,0,1,.09-.25.22.22,0,0,1,.33.06,6.34,6.34,0,0,0,2,2c.2.15.42.3.64.48-.21-3.06.81-2.66.81-2.66h0a.28.28,0,0,1,.17.25,3.8,3.8,0,0,0,.45,1.5,11.67,11.67,0,0,0,1,1.63c.66.94,1.23,1.77,1.76,2.64a27.39,27.39,0,0,1,1.53,2.89c.9,1.94-1.27,1.57-1.32,1.56h0a6.74,6.74,0,0,0-1.12-.24l-.23,0-.23,0h0l-.06,0-2.2-.88-.06,0a.29.29,0,0,1-.08-.37l.3-.6a7.83,7.83,0,0,1-1.66-.05,18.7,18.7,0,0,1-2.41-.53h0l-3.1-1.25v-.57Zm0-18.45v.57l.19.09a2.53,2.53,0,0,1,.35.25,2.93,2.93,0,0,1,.82,1.36,2.54,2.54,0,0,1,0,1.57,1.87,1.87,0,0,1-.17.31.32.32,0,0,0,0,.38.19.19,0,0,0,.2,0l3.86-.7h0a13.37,13.37,0,0,1,2.92-.77c.74-.09,1.21-.14,1.53-.16a5.66,5.66,0,0,1,.62,0h0a.85.85,0,0,0,.25-.09,2.36,2.36,0,0,0,.36-.21,4.23,4.23,0,0,0,1.87-2.65,2.39,2.39,0,0,0-.28-1.61,1.4,1.4,0,0,1-.16-.46,2.67,2.67,0,0,0,1.5.05h0l.52-.08a5.63,5.63,0,0,1,.59-.05,4.08,4.08,0,0,1,3.23,1.34c.11.16,1.92,2.59,2.52-.71v-.06a8.77,8.77,0,0,0-.24-2.25c1.36.46,4.52,1.71,5.16,3.77a.22.22,0,0,0,.3.16.18.18,0,0,0,.1-.09h0a8.34,8.34,0,0,0,1.24-2.94,4.08,4.08,0,0,0-.05-.67,9.62,9.62,0,0,1,3.65,2.22,5.2,5.2,0,0,0,1.42,1.41,3.05,3.05,0,0,0,1.68.16s.05,0,.07,0a5.71,5.71,0,0,0,2.26-2.11,8.41,8.41,0,0,1-2.89,6.43.29.29,0,0,0,0,.38l0,.05c.16.16,2.4,2.41,1.59,8.4a.36.36,0,0,0,0,.15,3.33,3.33,0,0,1,.1.4,4.15,4.15,0,0,1,0,.54,41.12,41.12,0,0,1-.32,5.23l-.08-.1a5.34,5.34,0,0,0-.44-.57.21.21,0,0,0-.33,0,.36.36,0,0,0-.07.18h0V450a4.16,4.16,0,0,0,.12,2c.18.76.46,1.58.69,2.25h0v0c.07.2.1.29.13.36.11.33.21.59.25.75a2.27,2.27,0,0,1,.07.81,6.86,6.86,0,0,0-1.64-1.79.2.2,0,0,0-.32.07.05.05,0,0,0,0,0l0,0a.24.24,0,0,0,0,.08,6.15,6.15,0,0,0,1.52,5.35l-.16.05a.28.28,0,0,0-.17.31,2.3,2.3,0,0,0,.15.64,2.69,2.69,0,0,0,.29.59.23.23,0,0,0,.23.1h0l.06,0h0a6.11,6.11,0,0,1,1.77-.55,13.19,13.19,0,0,1,1.32-.17v-.54c-.49,0-.95.09-1.39.17a6.78,6.78,0,0,0-1.74.52,1.87,1.87,0,0,1-.15-.32,2,2,0,0,1-.08-.26l.08,0,.28-.08a.2.2,0,0,0,.14-.1.29.29,0,0,0,0-.38,5.81,5.81,0,0,1-1.75-4.82,5.67,5.67,0,0,1,1.25,1.44l.1.2,0,.1h0a.48.48,0,0,0,.1.25l0,0c.14.11.27.07.38-.1a1.45,1.45,0,0,0,.1-.24,3.18,3.18,0,0,0,0-1.57c0-.16-.14-.44-.26-.79l-.13-.36h0c-.22-.65-.49-1.45-.67-2.19a5.16,5.16,0,0,1-.18-1.44l.1.14a7.07,7.07,0,0,1,.38.61.29.29,0,0,0,.17.14.25.25,0,0,0,.27-.23,47.82,47.82,0,0,0,.41-6,5,5,0,0,0-.06-.62,2.57,2.57,0,0,0-.11-.44c.7-5.35-1-7.89-1.57-8.62a8.66,8.66,0,0,0,2.73-7.82.28.28,0,0,0-.2-.21.24.24,0,0,0-.26.24c-.2,1.59-2,2.59-2.29,2.74a2.66,2.66,0,0,1-1.41-.12,5,5,0,0,1-1.27-1.29c-1.2-1.48-4.11-2.45-4.33-2.52a.2.2,0,0,0-.25.08.3.3,0,0,0,0,.38s.14.12.14.89A6.12,6.12,0,0,1,1085,430c-1.26-2.61-5.92-3.85-5.93-3.86h0a.24.24,0,0,0-.28.2.28.28,0,0,0,.17.33c.42.13.4,2.16.39,2.42-.41,2.25-1.69.44-1.7.44h0v0a4.49,4.49,0,0,0-3.57-1.51,6.28,6.28,0,0,0-.64,0l-.56.1h0c-1,.22-1.42-.09-1.47-.13h0a.26.26,0,0,0-.09,0,.24.24,0,0,0-.28.2,1.55,1.55,0,0,0,.18,1.22,1.88,1.88,0,0,1,.21,1.26,3.65,3.65,0,0,1-1.63,2.24,2,2,0,0,1-.31.19l-.11.05h0l-.65,0c-.33,0-.8.07-1.55.17a15.25,15.25,0,0,0-3,.78l-3.39.62a3.18,3.18,0,0,0,0-1.86,3.46,3.46,0,0,0-1-1.63,2.14,2.14,0,0,0-.44-.3,2.59,2.59,0,0,0-.38-.17Zm38.35,17.6a5.16,5.16,0,0,1,0-3.39v3.39Zm0-6.38a11.69,11.69,0,0,1-2-7.89h0a8.51,8.51,0,0,1,.51-1.78,9.86,9.86,0,0,1,.93-1.75c.19-.28.39-.56.61-.83v.82l-.24.34a9.49,9.49,0,0,0-.88,1.66,8,8,0,0,0-.47,1.64h0a10.6,10.6,0,0,0,1.59,6.87ZM1059,486.57a21.41,21.41,0,0,1-1.31-5.84h0a17.81,17.81,0,0,1,0-3.43,18,18,0,0,1,.65-3.22c.18-.59.39-1.17.62-1.74v1.37l-.18.55a17.67,17.67,0,0,0-.63,3.11,16.58,16.58,0,0,0,0,3.31h0a20.58,20.58,0,0,0,.85,4.43v1.47Zm0-29.31-.5,0a.26.26,0,0,1-.22-.29.27.27,0,0,1,.19-.25l0,0,.06,0a2.55,2.55,0,0,0,.39-.28h0l0,0h0v.92Zm0-2.15c-.52.15-1,.24-1,.24h0l-2.26.14a1.53,1.53,0,0,0-.34.05,1.07,1.07,0,0,0-.29.16.22.22,0,0,1-.36-.08h0v0a.31.31,0,0,1,0-.31,3.48,3.48,0,0,1,.3-.48l.14-.19h0l.11-.23a2.34,2.34,0,0,0,.09-.24,3.6,3.6,0,0,0,.24-1.26h0a6.66,6.66,0,0,1,0-.78,6.58,6.58,0,0,1,.14-.75,4.19,4.19,0,0,1,1.42-2.55l.16-.15a.19.19,0,0,1,.18,0h0l1.4.56v.57l-1.42-.57,0,0h0l-.09.06a3.52,3.52,0,0,0-1.18,2.21,6.83,6.83,0,0,0-.13.68,5.48,5.48,0,0,0,0,.7h0a4.44,4.44,0,0,1-.28,1.48,2.18,2.18,0,0,1-.11.27c0,.09-.08.18-.13.27h0l0,.06h.13l2.26-.15a9,9,0,0,0,1-.26v.56Zm0-12.74a3.9,3.9,0,0,1-.42-.32,7.19,7.19,0,0,1-.72-.66h0c-1.22-1.24-2.35-3.05-1.95-4.69a4,4,0,0,1-.91-2.54,3.63,3.63,0,0,1,.87-2.32h0l0,0h0v0a5.51,5.51,0,0,1,.43-.41,3.43,3.43,0,0,1,.48-.33h0a2.71,2.71,0,0,1,2.17-.28v.57a2.25,2.25,0,0,0-2,.2h0a2.78,2.78,0,0,0-.41.29,2.5,2.5,0,0,0-.37.36h0l0,0a3.06,3.06,0,0,0-.73,1.94,3.38,3.38,0,0,0,.85,2.24h0a.32.32,0,0,1,.06.3c-.43,1.42.63,3.1,1.78,4.26h0a7.93,7.93,0,0,0,.68.63l.15.12Z"/><path class="cls-7" d="M1102.15,519.51s1.65.42,3.22-1.71a4.12,4.12,0,0,0,1.08,1.58,2.36,2.36,0,0,0,2,0,3,3,0,0,0,1.18-1.68s.25,1.69,1.43,1.94a2.13,2.13,0,0,0,2.78-1.68c1.09,1.53,2.33,1.55,3.92,1.46a8.32,8.32,0,0,0,.54-1.53,6.11,6.11,0,0,0-.26-3.84c-.36-1.41-.59-3.6.68-4.95,2-2.16,3.56-4.92,2.66-6.06-.91,1.72-2.9.94-3.74-.53-1-1.71.28-3.41,1.56-4.9h0c-.26-.19-.52-.4-.79-.62h0l-.14-.11h0l-.1-.09h0l0,0h0l-.39-.34h0l-.07-.06,0,0h0l0,0,0,0,0,0h0l-.1-.09h0l0,0,0,0h0l-.06-.05h0l0,0h0l0,0,0,0,0,0h0l0,0h0v0l0,0c-1.87-1.79-3.41-4.61-5.42-6a7.47,7.47,0,0,0-2.14-1.05,15.87,15.87,0,0,0-4.84-.74.19.19,0,0,1,0,.08h0a12.4,12.4,0,0,0,.2,3.68c.6,3,2.69,5.81,4.43,8.42a8.75,8.75,0,0,1,1.78,4.67c.08,1.18-.15,2-.15,3.22s.25,2.62.25,3.66a2.72,2.72,0,0,1-1.12,2.35c-2,1.42-4.39-.16-6.28,1.4C1102.23,516.69,1102.15,519.51,1102.15,519.51Z"/><path class="cls-6" d="M1117.4,519.16h.23a8.37,8.37,0,0,0,.46-1.34,5.06,5.06,0,0,0-.12-3.13c0-.16-.09-.33-.14-.55h0c0-.21-.1-.42-.14-.65h0c0-.23-.08-.47-.1-.71a4.8,4.8,0,0,1,1-3.85h0c.27-.29.54-.6.79-.91s.5-.64.72-1c1-1.37,1.52-2.71,1.28-3.5a1.92,1.92,0,0,1-.39.41,1.73,1.73,0,0,1-1.27.35,2.51,2.51,0,0,1-1.25-.51,3.59,3.59,0,0,1-1-1.11l0-.11v-2.73a8.94,8.94,0,0,1,1.44-2.16l-.57-.45h0v0h0l-.13-.11h0L1118,497h0l0,0-.06-.05h0l-.28-.25h0l-.06-.06h0l0,0-.08.12h0l.07-.12h0l0,0v0h0v-.69h0l0,0h0l0,0h0l0,0h0l0,0h0l.09.07h0l0,0h0l0,0h0l0,0h0l.07.06h0l.28.24h0l0,.05.06,0h0l.1.09h0l.14.11h0c.18.15.36.3.56.44h0l.09.07h0l.11.08h0l.06,0a.32.32,0,0,1,0,.39,9.27,9.27,0,0,0-1.58,2.3,2.44,2.44,0,0,0,0,2.26,3,3,0,0,0,.86.95,2.26,2.26,0,0,0,1,.43,1.36,1.36,0,0,0,1-.26,1.86,1.86,0,0,0,.47-.58l0-.06a.21.21,0,0,1,.33,0c.74.94.12,2.73-1.11,4.5-.22.33-.47.66-.74,1s-.53.63-.81.94l0,0h0a4.22,4.22,0,0,0-.84,3.37,6.73,6.73,0,0,0,.1.67h0c0,.21.08.42.13.6v0h0c0,.17.09.36.14.54a5.62,5.62,0,0,1,.12,3.45,9.08,9.08,0,0,1-.56,1.58h0a.23.23,0,0,1-.2.14l-.38,0v-.55Zm0-23.41Zm-5.49,23.7a1.85,1.85,0,0,0,.7-.17,2.26,2.26,0,0,0,1-1.42.22.22,0,0,1,.3-.16.35.35,0,0,1,.11.1,2.92,2.92,0,0,0,1.64,1.23,5.26,5.26,0,0,0,1.72.13v.55a5.72,5.72,0,0,1-1.83-.15,3.28,3.28,0,0,1-1.65-1.1,2.46,2.46,0,0,1-1.13,1.31,2,2,0,0,1-.88.22v-.54Zm5.49-16.9a3,3,0,0,1,0-2.69l0,0v2.73Zm0-5.91h0l-5.49,8.28h0l5.49-8.27Zm0-.89v.69l0,0h0l-.09-.08h0l0,0h0l0,0h0l-.06-.06h0l0,0h0l0,0h0l0,0v0h0l0,0h0v0h0v0h0v0h0a24.74,24.74,0,0,1-2.26-2.65,19.08,19.08,0,0,0-2.73-3.06v-.66A17.78,17.78,0,0,1,1115,493a25.34,25.34,0,0,0,2.22,2.6l0,0h0l0,0h0l0,0h0l0,0h0l0,0Zm0,0h0Zm-15,23.52a3.31,3.31,0,0,0,2.8-1.65.21.21,0,0,1,.33,0,.23.23,0,0,1,.06.12,3.9,3.9,0,0,0,1,1.44h0a.66.66,0,0,0,.19.09.92.92,0,0,0,.25.06,2.33,2.33,0,0,0,1.35-.17h0a1.69,1.69,0,0,0,.53-.49,4.22,4.22,0,0,0,.53-1,.23.23,0,0,1,.31-.14.29.29,0,0,1,.14.2h0c0,.12.26,1.5,1.24,1.71a3.24,3.24,0,0,0,.8.08V520a3.36,3.36,0,0,1-.88-.08,2.16,2.16,0,0,1-1.44-1.49,3.42,3.42,0,0,1-.35.58,2.14,2.14,0,0,1-.68.62h0a2.74,2.74,0,0,1-1.62.22,1.87,1.87,0,0,1-.32-.08.92.92,0,0,1-.28-.14h0a3.77,3.77,0,0,1-1-1.35c-1.59,1.91-3.21,1.51-3.22,1.51h0a.26.26,0,0,1-.18-.28s.08-3,1.72-4.3a4.59,4.59,0,0,1,3.33-.8,4.62,4.62,0,0,0,3-.61,2.33,2.33,0,0,0,.88-1.18,3.21,3.21,0,0,0,.13-.94c0-.51-.06-1.14-.12-1.78s-.12-1.2-.13-1.73V508a13,13,0,0,1,.09-1.5,10.4,10.4,0,0,0,.06-1.7h0a7,7,0,0,0-.51-2.31,12.11,12.11,0,0,0-1.22-2.22c-.21-.32-.4-.59-.59-.86-1.61-2.39-3.34-4.95-3.88-7.66h0a13.61,13.61,0,0,1-.26-2.07,12.78,12.78,0,0,1,0-1.68h0v-.05a.27.27,0,0,1,.23-.28,16.77,16.77,0,0,1,2.43.18,17.24,17.24,0,0,1,2.47.57,9.17,9.17,0,0,1,1.13.45,6.88,6.88,0,0,1,1.07.64l.15.11v.66l-.39-.31a7.38,7.38,0,0,0-1-.59,8.24,8.24,0,0,0-1.07-.43,16.61,16.61,0,0,0-2.4-.56,17.45,17.45,0,0,0-2.15-.17,11.48,11.48,0,0,0,0,1.46,13.68,13.68,0,0,0,.24,2h0c.52,2.59,2.22,5.1,3.8,7.44l.59.87a12.92,12.92,0,0,1,1.28,2.32,8.17,8.17,0,0,1,.55,2.5h0a10.38,10.38,0,0,1-.07,1.8c0,.44-.08.9-.08,1.43v.15c0,.5.07,1.09.12,1.68s.12,1.31.12,1.84a3.49,3.49,0,0,1-.16,1.13,2.76,2.76,0,0,1-1.07,1.45,4.89,4.89,0,0,1-3.22.69,4.35,4.35,0,0,0-3,.7,5.64,5.64,0,0,0-1.51,3.63l9.51-14.36h0Z"/><path class="cls-7" d="M1057.45,449c-.75-.81-1.7-2-1.6-2.76s.34-1.13,1.05-.94c1.77.48,3.28,2,4.95,2.79a19.66,19.66,0,0,0,5,1.45,17.18,17.18,0,0,0,2.87.24,28.67,28.67,0,0,1,1.34,2.56c.68,1.48-1.09,1.16-1.09,1.16a6.79,6.79,0,0,0-1.63-.29l-2.22-.9.54-1.07a10.4,10.4,0,0,1-4.46-.5C1060.56,450.21,1057.88,449.08,1057.45,449Z"/><path class="cls-6" d="M1063.5,448.5a24.55,24.55,0,0,0,3.35.81c.5.08,1,.14,1.46.18s.94.06,1.38.06a.22.22,0,0,1,.19.12h0c.23.39.46.79.68,1.22s.45.87.67,1.36c.91,2-1.32,1.56-1.33,1.56h0l-.21-.06-.21-.06a9,9,0,0,0-1.16-.16l-.08,0-2.2-.89a.28.28,0,0,1-.14-.34s0,0,0,0h0l.3-.6a7.83,7.83,0,0,1-1.66-.05l-1-.18v-.56c.37.08.73.15,1.08.19a6,6,0,0,0,2,0,.23.23,0,0,1,.16,0,.32.32,0,0,1,.09.38l-.4.79,1.92.77a7.62,7.62,0,0,1,1.18.17l.24.06.22.06h0c.16,0,1.26.17.83-.76-.22-.48-.44-.93-.66-1.34s-.39-.73-.59-1.08q-.64,0-1.29-.06c-.49,0-1-.1-1.49-.18a24.41,24.41,0,0,1-3.29-.79Zm-6.23.72-.31-.35c-.12-.13-.23-.27-.34-.4a3.5,3.5,0,0,1-1-2.23,1.77,1.77,0,0,1,.39-1,.92.92,0,0,1,.94-.14,10.53,10.53,0,0,1,3.06,1.63,14.39,14.39,0,0,0,1.93,1.17h0l.56.25c.21.09.41.17.62.24l.37.13v.56l-.5-.17c-.23-.08-.44-.16-.64-.25l-.59-.26h0a17.34,17.34,0,0,1-2-1.21,10.52,10.52,0,0,0-2.92-1.57c-.28-.07-.45-.06-.55,0a1.32,1.32,0,0,0-.22.7,3.12,3.12,0,0,0,.89,1.77c.1.13.21.26.32.38l.26.3c.38.09,1.39.48,2.47.9.76.29,1.56.6,2.2.83h0c.42.12.85.23,1.27.32v.56c-.46-.1-.92-.22-1.38-.35h0c-.63-.23-1.44-.54-2.2-.84a24.56,24.56,0,0,0-2.45-.88A.22.22,0,0,1,1057.27,449.22Z"/><path class="cls-7" d="M1049.3,473.86l9.5,11.39a20.45,20.45,0,0,0,6.15,9.36c-2.35,2.95-5.36,5.93-8.08,3.27-.77-.93-5.44-7.93-5.44-2.47,0,0-2.08-1.09-1.32-5.86,0,0,.92-2.79-1.65-3.91.45-.49,1.15-1.29,1.15-1.9a1.3,1.3,0,0,0-.11-.57l-2.43,1.42a.88.88,0,0,0-.45-.36l-.7-.26a1.35,1.35,0,0,0,1.2-1,1,1,0,0,0-.54-1.24l-1-.37c.67.18,1.27-.34,1.54-1.07a1.1,1.1,0,0,0-.61-1.41l-.8-.29a.87.87,0,0,0,.9-.09,1.6,1.6,0,0,0,.64-.85,1,1,0,0,0-.56-1.3l-1.19-.44v-1.15A10.77,10.77,0,0,0,1049.3,473.86Z"/><path class="cls-6" d="M1055.17,480.52l3.79,4.54a.27.27,0,0,1,.06.1h0q.24.78.54,1.53c.2.49.42,1,.66,1.45a20.88,20.88,0,0,0,4.87,6.25.3.3,0,0,1,0,.38v0h0a15.36,15.36,0,0,1-4,3.79,3.39,3.39,0,0,1-4.43-.5v0h0c-.1-.13-.25-.32-.43-.57s-.66-.89-1.09-1.41v-.79c.57.67,1.08,1.36,1.45,1.85l.41.54h0a3,3,0,0,0,3.92.42,14.35,14.35,0,0,0,3.65-3.45,21.27,21.27,0,0,1-4.78-6.23c-.25-.48-.47-1-.68-1.49s-.38-1-.55-1.53l-3.42-4.1Zm-5.69-6.83,5.69,6.83v.78l-5.93-7.12a9.74,9.74,0,0,1-2.53.7l-.58.08-.38,0v.7l1,.39.1,0a1.22,1.22,0,0,1,.56.58h0a1.31,1.31,0,0,1,.08.92h0a.76.76,0,0,0,0,.11,2.16,2.16,0,0,1-.5.81h0l-.12.1-.07.05a1.34,1.34,0,0,1,.52.58h0a1.39,1.39,0,0,1,.08,1h0a.56.56,0,0,1,0,.12h0a2.1,2.1,0,0,1-.77,1.05l.09,0,.09,0h0a1.27,1.27,0,0,1,.55.57,1.3,1.3,0,0,1,.08.88h0l0,.11a1.89,1.89,0,0,1-.64.91,1.29,1.29,0,0,1,.42.28l2.28-1.32a.22.22,0,0,1,.31.11,1.82,1.82,0,0,1,.14.7,2.22,2.22,0,0,1-.46,1.16c-.16.23-.34.45-.51.65,2.23,1.23,1.54,3.78,1.46,4.07-.53,3.34.36,4.77.87,5.29.08-1.33.51-1.83,1.11-1.83h0c.79,0,1.9,1.08,2.85,2.21v.79c-1-1.2-2.12-2.46-2.85-2.46h0c-.39,0-.65.49-.65,1.79a.26.26,0,0,1-.24.27.17.17,0,0,1-.1,0c-.13-.06-2.22-1.31-1.45-6.15,0,0,0,0,0,0h0a2.87,2.87,0,0,0-1.51-3.56.27.27,0,0,1-.13-.34.34.34,0,0,1,.06-.12,7.23,7.23,0,0,0,.71-.86,1.66,1.66,0,0,0,.36-.84,1.09,1.09,0,0,0,0-.18l-2.2,1.28a.22.22,0,0,1-.3-.09l0,0h0l0,0a.62.62,0,0,0-.26-.17h0l-.7-.26a.28.28,0,0,1-.15-.34.23.23,0,0,1,.22-.19,1,1,0,0,0,.52-.19,1.29,1.29,0,0,0,.47-.66.14.14,0,0,1,0-.06h0a.71.71,0,0,0,0-.46.73.73,0,0,0-.32-.33h0l-.06,0-1-.37a.28.28,0,0,1-.16-.34.24.24,0,0,1,.28-.19h0a.91.91,0,0,0,.23,0,.76.76,0,0,0,.21,0,1.38,1.38,0,0,0,.83-.91h0a.25.25,0,0,0,0-.07h0a.85.85,0,0,0,0-.55h0a.85.85,0,0,0-.37-.38l-.07,0-.8-.3.14-.51a.92.92,0,0,0,.37.07h0a.69.69,0,0,0,.35-.14h0l.08-.05.08-.07h0a1.5,1.5,0,0,0,.37-.59.14.14,0,0,0,0-.06h0a.7.7,0,0,0,0-.5h0a.73.73,0,0,0-.33-.34l-.06,0-1.19-.44a.27.27,0,0,1-.16-.26h0v-1.15a.26.26,0,0,1,.23-.28h0l.57,0,.57-.07a9.38,9.38,0,0,0,2.56-.73A.21.21,0,0,1,1049.48,473.69Z"/><path class="cls-7" d="M1045.51,474.74v1.15l-1.81-.68a3.12,3.12,0,0,0-.81-.18v-.36A15.27,15.27,0,0,0,1045.51,474.74Z"/><path class="cls-6" d="M1045.75,474.74v1.15a.26.26,0,0,1-.24.27.11.11,0,0,1-.08,0l-.08,0v0l.08.05-.08-.12v-1.55h.15a.26.26,0,0,1,.25.26v0Zm-.4,1.38-.73-.28v-.57l.66.25V475l-.66,0v-.55c.25,0,.49,0,.73,0V476l-.07-.13a.32.32,0,0,0,.07.2Zm-.73-.28-1-.37h0l-.09,0-.11,0a2,2,0,0,0-.52-.1.25.25,0,0,1-.22-.27h0v-.36a.25.25,0,0,1,.23-.27h0l.36,0,.35,0c.33,0,.65,0,1,0V475H1044l.65.24Z"/><path class="cls-7" d="M1041.14,470.59a2,2,0,0,0,.89-2.41c-.34-.93-1.57-1.15-2.62-.75-1.75.68-2.29,3.21-1.36,4.93,1.71,3.21,11.3,3.21,13,0a4,4,0,0,0,.4-2.42,2.92,2.92,0,0,0-2.57-2.69,1.66,1.66,0,0,0-1.82.93,2,2,0,0,0,.89,2.41C1046.91,472.45,1042.22,472.48,1041.14,470.59Z"/><path class="cls-6" d="M1044.56,474.5a13.49,13.49,0,0,0,1.8-.12A10.62,10.62,0,0,0,1048,474a4.53,4.53,0,0,0,2.83-1.82h0a2.59,2.59,0,0,0,.14-.29c0-.1.07-.2.1-.3a3.63,3.63,0,0,0,.13-1.64h0a4.23,4.23,0,0,0-.12-.56,3.26,3.26,0,0,0-.21-.5,2.48,2.48,0,0,0-2-1.4h-.31a1.53,1.53,0,0,0-.3,0,1.2,1.2,0,0,0-1,.74,1.71,1.71,0,0,0,.78,2,.29.29,0,0,1,.1.37v0h0a2.38,2.38,0,0,1-.6.67,5.05,5.05,0,0,1-3,.86h0v-.54h0a4.73,4.73,0,0,0,2.75-.77,1.83,1.83,0,0,0,.32-.3,2.19,2.19,0,0,1-.76-2.58,1.67,1.67,0,0,1,1.33-1.07l.35,0h.36a2.93,2.93,0,0,1,2.4,1.66,2.81,2.81,0,0,1,.24.59,3.52,3.52,0,0,1,.15.66h0a4.42,4.42,0,0,1-.15,1.91,3.59,3.59,0,0,1-.12.35,3.54,3.54,0,0,1-.16.34h0a4.94,4.94,0,0,1-3.11,2.07,11.91,11.91,0,0,1-1.74.35,14.29,14.29,0,0,1-1.86.12Zm-3.51-4.17a1.7,1.7,0,0,0,.77-2h0a.69.69,0,0,0-.15-.28,1.1,1.1,0,0,0-.22-.21,2.18,2.18,0,0,0-2-.11,2.29,2.29,0,0,0-.51.28,2.8,2.8,0,0,0-1,1.56,3.91,3.91,0,0,0,0,2,4,4,0,0,0,.27.68c.82,1.52,3.56,2.28,6.32,2.28h0V475h0c-2.9,0-5.81-.85-6.71-2.54a3.63,3.63,0,0,1-.32-.79,4.43,4.43,0,0,1,0-2.34,3.35,3.35,0,0,1,1.22-1.86,2.52,2.52,0,0,1,.6-.34,2.59,2.59,0,0,1,2.35.16,1.66,1.66,0,0,1,.33.32,1.32,1.32,0,0,1,.23.42h0a2.22,2.22,0,0,1-.76,2.58,2.36,2.36,0,0,0,.32.31,4.65,4.65,0,0,0,2.75.76v.54a5.09,5.09,0,0,1-3-.85,2.32,2.32,0,0,1-.61-.68.3.3,0,0,1,.07-.38Z"/><path class="cls-7" d="M1051.78,418s-2.75,4.14-3.21,22.26c-.28,11.36-.48,21.28-.58,27.11a1.37,1.37,0,0,0-.91.83,2,2,0,0,0,.74,2.3h0l.11.08h0v.1l-.12.16h0l-.06.07h0l0,.06,0,0-.05,0,0,0,0,.05,0,0-.07.05,0,0-.06.05,0,0-.07.05h0l-.09.06h0l-.09.05h0l-.07,0,0,0-.08,0,0,0-.08,0h0l-.09,0h0l-.08,0,0,0-.07,0h0l-.07,0h0l-.09,0h0l-.09,0h0l-.09,0h0l-.1,0h-2.48l-.07,0h-.12l-.07,0h0l-.07,0-.07,0-.05,0-.06,0h-.06l0,0-.07,0,0,0-.07,0-.06,0,0,0-.05,0-.06,0,0,0-.06,0,0,0-.06,0,0,0,0,0,0,0,0,0-.07,0,0,0,0,0,0,0,0,0,0,0,0,0,0,0,0-.05,0,0,0-.05,0,0-.05-.06,0,0,0-.06v0l0,0-.08-.13h0a1.78,1.78,0,0,0,.45-.37,1.86,1.86,0,0,0,.43-2,1.39,1.39,0,0,0-.71-.76h0l0,0,.11-21S1041.24,424.32,1051.78,418Z"/><path class="cls-6" d="M1052,418.14s-2.71,4.07-3.16,22.1c-.15,5.69-.27,11-.37,15.63s-.17,8.57-.22,11.48a.27.27,0,0,1-.17.26h0l-.15.06-.14.07a1.11,1.11,0,0,0-.42.44v-.78l.21-.14.18-.1h0c0-2.9.12-6.77.22-11.29s.22-10,.36-15.63c.35-13.83,2-19.58,2.84-21.54a15.12,15.12,0,0,0-3.84,4v-.87a14.75,14.75,0,0,1,4.33-4.12.22.22,0,0,1,.32.11.33.33,0,0,1,0,.29Zm-4.63,51.42h0a1.92,1.92,0,0,0,.6.69h0l0,0h0l0,0h0a.29.29,0,0,1,.12.26v.09a.3.3,0,0,1-.05.16l-.06.09h0l-.07.09h0v0l0,0h0l0,0h0l0,0h0l0,0h0l0,.05h0l0,0h0l0,0h0l0,0,0,0h0l0,0h0l0,0h0v0l-.06,0,0,0h0l0,0h0l0,0h0v-.64h0l0,0h0l0,0h0l0,0,0,0h0l0,0h0v0l0,0h0l0,0h0l-.28-.26Zm0-1.38s0,.07,0,.11a1.56,1.56,0,0,0,0,1.27v.84a2.41,2.41,0,0,1-.39-.56,2.1,2.1,0,0,1-.08-1.76,1.52,1.52,0,0,1,.47-.68v.78Zm0,3.39h0l0,0h0l0,0h0l0,0h0l-.06,0H1047l0,0h0l0,0h0l0,0h0l-.06,0h-.07l0,0h-.05l-.07,0h0l-.07,0h0l0,0h0v-.56h.05l.07,0h0l0,0h0l0,0h0l.06,0h0l0,0h0l0,0h.12l.06,0h0l0,0h0l0,0h0l0,0h0l0,0h0l0,0h0l0,0,0,0,0,0h0l0,0v.64h0Zm-1-48.14c.32-.54.65-1.07,1-1.57v.87c-.36.54-.69,1.1-1,1.68Zm0,48.59h-.11l-.09,0h0l-.09,0h-.06v-.55l0,0h0l.09,0h.15l.06,0h0V472Zm-.39-47.91.39-.68v1l-.39.74Zm0,48h-.18v-.54h.18v.55h0Zm-.18-47.68.18-.33v1l-.18.36Zm0,47.72h-.37v-.54h.37v.54h0Zm-.37-47c.12-.25.24-.5.37-.75v1.07c-.13.27-.25.54-.37.81Zm0,47h-2.22l-.05,0H1043l0,0h0l-.06,0h0l-.07,0h-.06l-.06,0h0l-.06,0h-.06l-.07,0h0l0,0-.07,0h0l-.05,0h0l0,0h-.06l-.06,0h0l0,0h0l-.06,0h0l0,0h0l0,0h0l0,0h0l0,0h0l0,0h0l0,0h0l0,0h0l0,0h0l0,0h0l0,0h0l0,0h0l0,0h0l-.06,0h0l0,0h0l0,0h0l0,0,0,0,0-.05h0v0h0l0,0h0l0,0h0l0,0h0l0-.06h0l0-.06a.3.3,0,0,1,.07-.38l0,0h0l.07,0,.05,0a1.55,1.55,0,0,0,.27-.24h0a1.8,1.8,0,0,0,.42-.69,1.6,1.6,0,0,0,0-1h0s0-.08,0-.11l-.06-.11a1.15,1.15,0,0,0-.48-.39h-.06a.28.28,0,0,1-.16-.27l.11-21h0c0-.05-.06-12.25,4.27-21.16v1.13c-3.86,8.67-3.8,20-3.8,20h0l-.11,20.86a1.61,1.61,0,0,1,.6.53l.09.16c0,.06,0,.12.07.17h0a2.15,2.15,0,0,1,0,1.43,2.3,2.3,0,0,1-.55.91h0a2,2,0,0,1-.26.24h0l0,0h0l0,0h0l0,0h0l0,0h0l0,0h0l0,0,0,0h0l0,0h0l0,0h0l0,0h0l0,0h0l0,0h0l0,0h0l0,0h.05l0,0h0l0,0h0l.06,0h0l0,0h0l.05,0h0l.06,0h0l0,0h0l.07,0,0,0h0l.06,0h0l.06,0h0l.06,0,0,0h.06l0,0h.25l.07,0h2v.54h0Zm-.37,0Z"/><path class="cls-7" d="M1042.93,485.53l0,2.09c0,.51-1.21-.21-1.53-.42a1,1,0,0,0-.5-.2c-.91,0-1.5,1.46-.82,2.14a2.27,2.27,0,0,0,2.81.2s-.1,2.35-1.66,3.21c0,0,3.36,3.57-.14,6.51-.56-2.08-3-1.46-2.38.6.27.84,1.08,1.87,3.42,2.23a6,6,0,0,1-1.8,2.09c-.33.16,0,.27.43.35a20.06,20.06,0,0,0,2.17.18c-.12.69.5,3.19,1.29,3.19s1.23-2.49,1.1-3.19c0,0,.88,0,1.64-.11s1.41-.21,1-.42a6.07,6.07,0,0,1-1.79-2.09c2.34-.36,3.15-1.39,3.42-2.23.65-2.06-1.82-2.68-2.38-.6-3.5-2.94-.14-6.51-.14-6.51-1.56-.86-1.66-3.21-1.66-3.21,1-.29,1,.46,1.84.62,1.52.29,2-2.88-.45-2.72-.38,0-.75.13-1.13.17s-.31.07-.3-.27v-.73Z"/><path class="cls-6" d="M1044.16,507.41h.14c.21-.09.41-.53.57-1a6.14,6.14,0,0,0,.27-1.59h0a1.28,1.28,0,0,0,0-.21.27.27,0,0,1,.18-.33h0c.11,0,.91,0,1.61-.11l.6-.08a7.38,7.38,0,0,1-1.61-2,.3.3,0,0,1,.07-.38l.11,0a5.16,5.16,0,0,0,2.38-.89,2.35,2.35,0,0,0,.84-1.17,1.27,1.27,0,0,0-.13-1.22h0a.89.89,0,0,0-.35-.23.93.93,0,0,0-.44,0h0a1.35,1.35,0,0,0-1,1.08.22.22,0,0,1-.29.18l-.08-.05c-3.13-2.64-1.09-5.74-.38-6.66a4.71,4.71,0,0,1-1.5-3.25.27.27,0,0,1,.19-.29,1.19,1.19,0,0,1,1.29.29,1.3,1.3,0,0,0,.63.33.75.75,0,0,0,.83-.44,1.12,1.12,0,0,0,.14-.55,1.21,1.21,0,0,0-.11-.57,1.27,1.27,0,0,0-1.34-.62h0a4.63,4.63,0,0,0-.62.09l-.48.09h-.06c-.2,0-.29,0-.4-.05h0c-.11-.11-.11-.21-.1-.39h0s0-.07,0-.1v-.52l-1-.35v-.57l1.27.46a.26.26,0,0,1,.18.26l0,.73h.05l.45-.07a5.31,5.31,0,0,1,.68-.1h0a1.67,1.67,0,0,1,1.77.89,2,2,0,0,1,.17.86,1.92,1.92,0,0,1-.21.82,1.19,1.19,0,0,1-1.31.69,1.77,1.77,0,0,1-.82-.43.83.83,0,0,0-.72-.24,3.61,3.61,0,0,0,1.49,2.74.16.16,0,0,1,.08.06.32.32,0,0,1,0,.39s-3,3.18-.11,5.88a1.71,1.71,0,0,1,1.26-1.11h0a1.38,1.38,0,0,1,.64.06,1.26,1.26,0,0,1,.53.36h0a1.84,1.84,0,0,1,.24,1.8,3,3,0,0,1-1,1.43,5.18,5.18,0,0,1-2.22.92,4.68,4.68,0,0,0,1.48,1.62h0a.65.65,0,0,1,.23.18.35.35,0,0,1,0,.45.54.54,0,0,1-.21.13,4.12,4.12,0,0,1-1,.19c-.52.06-1.09.09-1.4.1h0a6.61,6.61,0,0,1-.3,1.76c-.2.66-.49,1.24-.86,1.39a.65.65,0,0,1-.2,0h-.09Zm-1-21.51,0,1.71h0a.79.79,0,0,1,0,.17v0a.39.39,0,0,1-.41.27,1.21,1.21,0,0,1-.42-.1,5.58,5.58,0,0,1-1-.54l-.2-.11a.65.65,0,0,0-.19,0,.77.77,0,0,0-.63.34,1.2,1.2,0,0,0-.17.34,1,1,0,0,0-.07.37.78.78,0,0,0,.21.6h0a1.33,1.33,0,0,0,.26.21h0a2.11,2.11,0,0,0,.34.16h0a2,2,0,0,0,1.91-.19.22.22,0,0,1,.33.06.33.33,0,0,1,0,.19,4.63,4.63,0,0,1-1.51,3.24c.72.92,2.76,4-.38,6.67a.22.22,0,0,1-.33-.06l0-.08h0a1.35,1.35,0,0,0-1-1.08,1,1,0,0,0-.45,0,.92.92,0,0,0-.35.24h0a1.25,1.25,0,0,0-.13,1.22,2.35,2.35,0,0,0,.84,1.17,5.06,5.06,0,0,0,2.39.89.27.27,0,0,1,.2.31.2.2,0,0,1,0,.11h0a7.38,7.38,0,0,1-1.61,2h.07a19.47,19.47,0,0,0,2.15.18.26.26,0,0,1,.23.28.11.11,0,0,1,0,.05h0a.66.66,0,0,0,0,.15h0a5.62,5.62,0,0,0,.32,1.61,2,2,0,0,0,.66,1.08V508l-.11,0c-.41-.14-.75-.74-1-1.41a6.55,6.55,0,0,1-.36-1.76c-.43,0-1.35-.07-2-.17a2.19,2.19,0,0,1-.56-.15h0a.35.35,0,0,1-.17-.17h0a.33.33,0,0,1,0-.37.47.47,0,0,1,.2-.16l0,0a4.68,4.68,0,0,0,1.48-1.62,5.18,5.18,0,0,1-2.22-.92,2.88,2.88,0,0,1-1-1.43,1.82,1.82,0,0,1,.24-1.8h0a1.28,1.28,0,0,1,.55-.37,1.38,1.38,0,0,1,.64-.06,1.7,1.7,0,0,1,1.27,1.11c2.8-2.64,0-5.73-.11-5.88a.2.2,0,0,1-.06-.09.3.3,0,0,1,.11-.36,3.46,3.46,0,0,0,1.47-2.48,2.55,2.55,0,0,1-1.9,0h0a2,2,0,0,1-.42-.2h0a2.24,2.24,0,0,1-.34-.27h0a1.38,1.38,0,0,1-.37-1,2.13,2.13,0,0,1,.1-.56,2.3,2.3,0,0,1,.26-.49,1.19,1.19,0,0,1,1-.53.89.89,0,0,1,.32.08,1.51,1.51,0,0,1,.28.15,5.65,5.65,0,0,0,.94.49.68.68,0,0,0,.25.07l0-2s0-.06,0-.09a.24.24,0,0,1,.3-.18l1.16.42v.57l-1-.36Zm0,1.71Z"/><path class="cls-7" d="M1046.62,484.23a1,1,0,0,1,.54,1.24,1.36,1.36,0,0,1-1.68,1l-2.82-1a1.4,1.4,0,0,1-.74-1.8.93.93,0,0,1,1.26-.68Z"/><path class="cls-6" d="M1046.69,484l.1,0a1.2,1.2,0,0,1,.55.56,1.3,1.3,0,0,1,.07.9h0a.81.81,0,0,0,0,.11,1.59,1.59,0,0,1-2,1.13h0l-.88-.32v-.57l1,.37a1.15,1.15,0,0,0,1.41-.82.25.25,0,0,1,0-.07h0a.74.74,0,0,0,0-.47.71.71,0,0,0-.32-.32l-.06,0-2-.75v-.57Zm-2.16,2.42-1.94-.69h0a1.65,1.65,0,0,1-.88-2.14h0a2.08,2.08,0,0,1,.13-.3,2.2,2.2,0,0,1,.17-.25,1.09,1.09,0,0,1,1.25-.29h0l1.28.47v.57l-1.42-.52h0a.68.68,0,0,0-.78.16l-.11.16a.93.93,0,0,0-.08.2h0a1.12,1.12,0,0,0,.6,1.44l1.79.64Z"/><path class="cls-7" d="M1046.58,481.71a1,1,0,0,1,.54,1.24,1.35,1.35,0,0,1-1.2,1l-2.74-1a1,1,0,0,0-.54,0l-.44-.16a1.4,1.4,0,0,1-.74-1.8.93.93,0,0,1,1.26-.68Z"/><path class="cls-6" d="M1046.66,481.45l.09,0h0a1.25,1.25,0,0,1,.53.56h0a1.31,1.31,0,0,1,.07.9h0l0,.11a1.88,1.88,0,0,1-.66.92,1.38,1.38,0,0,1-.74.26.14.14,0,0,1-.09,0h0l-1.57-.58v-.57l1.67.61a.9.9,0,0,0,.49-.18,1.29,1.29,0,0,0,.47-.66.14.14,0,0,1,0-.06h0a.74.74,0,0,0,0-.47h0a.72.72,0,0,0-.3-.32h0l-.06,0-2.23-.83v-.57Zm-2.38,2.2-1.17-.43H1043l-.06,0a.76.76,0,0,0-.3,0,.21.21,0,0,1-.11,0h0l-.44-.16h0a1.65,1.65,0,0,1-.88-2.14h0a2.55,2.55,0,0,1,.13-.29,2.2,2.2,0,0,1,.17-.25,1.09,1.09,0,0,1,1.25-.29l1.49.56v.57l-1.63-.61a.68.68,0,0,0-.78.16l-.11.15a1,1,0,0,0-.08.21h0a1.13,1.13,0,0,0,.61,1.44l.38.14a1.08,1.08,0,0,1,.4,0l.09,0,.08,0h0l1,.38Z"/><path class="cls-7" d="M1046.52,478.86a1.1,1.1,0,0,1,.61,1.41c-.28.77-.92,1.3-1.64,1l-2.81-1c-.37-.13-2.45-.28-1.94-2.39.18-.77.83-.86,1.42-.64Z"/><path class="cls-6" d="M1047.34,479.36a1.41,1.41,0,0,1,0,.89h0a.56.56,0,0,1,0,.12v-1Zm0,1Zm-.75-1.78.11,0a1.34,1.34,0,0,1,.6.62h0a.3.3,0,0,1,0,.08v1h0l-.15.33a2.36,2.36,0,0,1-.2.31,1.36,1.36,0,0,1-1.57.54l-1.49-.55v-.57l1.63.6a.93.93,0,0,0,1.08-.39,1.82,1.82,0,0,0,.15-.23,2.06,2.06,0,0,0,.12-.26h0a.25.25,0,0,0,0-.07h0a.74.74,0,0,0,0-.55h0a.85.85,0,0,0-.37-.38l-.07,0-2.52-.94v-.57l2.66,1Zm.75,1.78Zm-3.41.63-1.32-.49h0l-.19,0c-.13,0-.31-.07-.5-.13a1.91,1.91,0,0,1-1.4-2.54h0l0,0v0a1.13,1.13,0,0,1,.68-.79,1.44,1.44,0,0,1,.94,0h0l.07,0h0l1.68.62v.57l-1.82-.67h0l0,0h0a1.07,1.07,0,0,0-.68,0,.64.64,0,0,0-.37.45h0v0a1.42,1.42,0,0,0,1.07,1.86,4.32,4.32,0,0,0,.47.13l.23.06h0l1.18.44Z"/><path class="cls-7" d="M1046.7,476.33a1,1,0,0,1,.56,1.3,1.6,1.6,0,0,1-.64.85.87.87,0,0,1-.9.09l-3.56-1.33c-2.05-.77-.63-2.84,1.54-2Z"/><path class="cls-6" d="M1046.77,476.08l.1,0a1.22,1.22,0,0,1,.56.58v0a1.3,1.3,0,0,1,.07.9v0l0,.09h0a1.82,1.82,0,0,1-.08.19,1.51,1.51,0,0,1-.09.18,1.61,1.61,0,0,1-.57.61,1.23,1.23,0,0,1-.54.21h0a1.22,1.22,0,0,1-.54-.11l-1.41-.52v-.57l1.55.58a.92.92,0,0,0,.37.07h0a.69.69,0,0,0,.35-.14,1.29,1.29,0,0,0,.4-.43l.07-.14.06-.14h0s0,0,0,0h0a.74.74,0,0,0,0-.49h0a.73.73,0,0,0-.33-.34l-.06,0-2.39-.89v-.57Zm-2.53,2.22-2.15-.8a1.62,1.62,0,0,1-1.13-1.09,1.18,1.18,0,0,1,0-.67,1.4,1.4,0,0,1,.39-.53,2.33,2.33,0,0,1,2.37-.26l.47.18v.57l-.61-.23a1.92,1.92,0,0,0-2,.18.66.66,0,0,0-.24.32.52.52,0,0,0,0,.3c.06.26.31.52.82.71l2,.75Z"/><path class="cls-7" d="M1047.25,476.89l2.19-1.32a1.49,1.49,0,0,1,.14.54c0,.66-.78,1.64-1.14,2.09s-1.06,1-1.76.38a.6.6,0,0,0-.08-.08l0,0a1.6,1.6,0,0,0,.64-.85A1,1,0,0,0,1047.25,476.89Z"/><path class="cls-6" d="M1048.18,476l1.16-.7a.22.22,0,0,1,.3.09h0a1.82,1.82,0,0,1,.17.67h0v0a4.36,4.36,0,0,1-1.17,2.21l0,.06a3.6,3.6,0,0,1-.43.44v-.71l.09-.1,0-.06c.36-.45,1.06-1.31,1-1.83h0a.86.86,0,0,0,0-.17l-1.14.69Zm-1,.62,1-.62v.61l-.64.39a1.41,1.41,0,0,1,0,.41.59.59,0,0,1,0,.14s0,.08,0,.13h0a2,2,0,0,1-.46.77.67.67,0,0,0,.57.08,1.56,1.56,0,0,0,.6-.46v.71a1.4,1.4,0,0,1-.47.27,1.14,1.14,0,0,1-1.17-.31h0l0-.05h0l0,0a.3.3,0,0,1,0-.38.16.16,0,0,1,.07-.07h0l0,0h0l.07-.05.08-.07h0a1.5,1.5,0,0,0,.37-.59h0a.25.25,0,0,1,0-.07s0-.05,0-.07a.67.67,0,0,0,0-.35.3.3,0,0,1,.11-.36Z"/><path class="cls-7" d="M1047.15,479.55l2.29-1.39a1.49,1.49,0,0,1,.14.54c0,.66-.78,1.64-1.14,2.09s-1.06,1-1.76.38l-.09-.09a2,2,0,0,0,.54-.81A1.12,1.12,0,0,0,1047.15,479.55Z"/><path class="cls-6" d="M1048.16,478.47l1.18-.55a.22.22,0,0,1,.3.09h0a1.82,1.82,0,0,1,.17.67v0h0a4.32,4.32,0,0,1-1.17,2.21l0,.06a3.27,3.27,0,0,1-.45.46v-.7l.11-.13,0-.06c.36-.44,1.06-1.3,1-1.83h0a.86.86,0,0,0,0-.17l-1.16.71ZM1047,479l1.19-.54v.78l-.74.44a1,1,0,0,1,0,.35h0a.69.69,0,0,1,0,.13.93.93,0,0,1,0,.13l0,.06a2.31,2.31,0,0,1-.38.69.69.69,0,0,0,.62.11,1.51,1.51,0,0,0,.58-.43v.7a1.55,1.55,0,0,1-.45.25,1.15,1.15,0,0,1-1.17-.3h0l0-.05h0l0,0a.3.3,0,0,1,0-.38l0-.05.08-.07.08-.08h0a1.76,1.76,0,0,0,.3-.54v0l0-.08s0-.05,0-.07h0a.85.85,0,0,0,0-.32.29.29,0,0,1,.11-.33Z"/><path class="cls-7" d="M1047.08,482.17l2.36-1.42a1.4,1.4,0,0,1,.14.53c0,.67-.78,1.64-1.14,2.1s-1.06,1-1.76.37l0-.05a1.69,1.69,0,0,0,.49-.75A.92.92,0,0,0,1047.08,482.17Z"/><path class="cls-6" d="M1048.18,481.05l1.16-.55a.22.22,0,0,1,.3.09h0a1.82,1.82,0,0,1,.17.67v0h0a4.32,4.32,0,0,1-1.17,2.21l0,.06a3,3,0,0,1-.43.44v-.71l.09-.1,0-.06c.36-.44,1.06-1.3,1-1.83h0a.84.84,0,0,0,0-.18l-1.14.69Zm-1.24.58,1.24-.58v.76l-.8.48a1.18,1.18,0,0,1,0,.46.69.69,0,0,1,0,.13v0c0,.05,0,.1-.05.15h0a2.42,2.42,0,0,1-.26.51.86.86,0,0,1-.07.1.63.63,0,0,0,.57.08,1.47,1.47,0,0,0,.6-.46V484a1.54,1.54,0,0,1-.47.28,1.16,1.16,0,0,1-1.17-.31h0l0,0h0l0,0a.3.3,0,0,1,0-.38l0-.06h0a1.06,1.06,0,0,0,.23-.24,1.92,1.92,0,0,0,.19-.38h0a.29.29,0,0,0,0-.09v0s0,0,0-.06a.63.63,0,0,0-.07-.37.32.32,0,0,1,.09-.38h0Z"/><path class="cls-7" d="M1047.07,484.59l2.43-1.42a1.3,1.3,0,0,1,.11.57c0,.69-.91,1.64-1.31,2.08s-1,.88-1.66.41a1.57,1.57,0,0,0,.52-.76A1,1,0,0,0,1047.07,484.59Z"/><path class="cls-6" d="M1048.23,483.61l1.17-.68a.21.21,0,0,1,.31.11h0a2,2,0,0,1,.13.68s0,.09,0,.13a4.7,4.7,0,0,1-1.33,2.09l0,.06-.23.23v-.72a4.45,4.45,0,0,0,1.15-1.73v-.07a1.09,1.09,0,0,0,0-.18l-1.14.67Zm-1.27.73,1.27-.73v.61l-.84.48a1.28,1.28,0,0,1,.06.52,1,1,0,0,1-.07.35h0a2.62,2.62,0,0,1-.27.53.1.1,0,0,0,0,.05.62.62,0,0,0,.38,0,1.76,1.76,0,0,0,.69-.51l0-.06,0,0v.72a2,2,0,0,1-.64.41,1.13,1.13,0,0,1-1.08-.2.29.29,0,0,1-.06-.37.22.22,0,0,1,.07-.09,1.06,1.06,0,0,0,.23-.24,1.76,1.76,0,0,0,.2-.39h0l0-.1s0-.06,0-.09a.68.68,0,0,0-.11-.42.3.3,0,0,1,0-.38l0,0Z"/><path class="cls-6" d="M1091.5,440.62a.28.28,0,0,1,.13-.35.22.22,0,0,1,.3.15,3.66,3.66,0,0,0,.64,1.07,13.3,13.3,0,0,0,1,1l.07.08a3,3,0,0,1,1.19,2.48,47.82,47.82,0,0,1-.41,6,.25.25,0,0,1-.27.23.26.26,0,0,1-.18-.16,3.3,3.3,0,0,0-.47-.72,5.05,5.05,0,0,0,.18,1.43,22.29,22.29,0,0,0,.66,2.17v0c.12.34.12.33.14.38.12.35.22.62.26.79h0a3.18,3.18,0,0,1,0,1.57,1.45,1.45,0,0,1-.1.24c-.11.17-.24.21-.38.1h0a.44.44,0,0,1-.14-.29,4.17,4.17,0,0,0-1.38-1.75,5.81,5.81,0,0,0,1.75,4.82h0a.38.38,0,0,1,.09.15.28.28,0,0,1-.18.33l-.37.09c.34,1.65,2.89,2.81,2.9,2.81h0a.26.26,0,0,1,.14.18.28.28,0,0,1-.16.33c-2.4.81-3.69.62-4.32.37a8.82,8.82,0,0,1,0,1.78,7.23,7.23,0,0,0,0,2h0a.27.27,0,0,1-.1.28.2.2,0,0,1-.32-.07c-.28-.47-1.62-.62-1.72-.63h0a4.77,4.77,0,0,1-2.79-1.43,3.81,3.81,0,0,1-.75,1.45h0c-.07.09-.15.17-.22.25l-.23.2h0c-.22.18-.43.33-.64.48a6.56,6.56,0,0,0-.69.52l-.74.64h0a.21.21,0,0,1-.24,0,.29.29,0,0,1-.11-.36,1.85,1.85,0,0,0,.1-.87,3.56,3.56,0,0,0-.19-.84v0a9.08,9.08,0,0,0-.48-1,7.71,7.71,0,0,1-.62-1.43,15.29,15.29,0,0,1-.47-2.62,1,1,0,0,0-.31.33h0a1,1,0,0,0-.08.15l-.08.16h0a5.3,5.3,0,0,0-.32,1.47l-.06.45v-2.25l0-.12.11-.19h0a1.19,1.19,0,0,1,.87-.63.24.24,0,0,1,.25.24h0a15.64,15.64,0,0,0,.49,2.82,6.5,6.5,0,0,0,.57,1.32,8.7,8.7,0,0,1,.51,1.11v0a4.79,4.79,0,0,1,.23,1c0,.13,0,.26,0,.39l.23-.21a8.72,8.72,0,0,1,.73-.55c.21-.15.41-.29.61-.45h0l.2-.18a2,2,0,0,0,.19-.21l0,0a3.11,3.11,0,0,0,.71-1.65.23.23,0,0,1,.42-.13h0a4.19,4.19,0,0,0,2.78,1.6h0a4.55,4.55,0,0,1,1.55.43,9.21,9.21,0,0,1,0-1.49,6.28,6.28,0,0,0-.09-2.16.29.29,0,0,1,.15-.34.22.22,0,0,1,.23.06h0s.75.89,3.74,0c-.84-.5-2.31-1.53-2.58-2.91-3.4.49-5.39-2.22-6.14-3.52l-.25,2.09h0a.23.23,0,0,1-.11.2.22.22,0,0,1-.32-.1,4.26,4.26,0,0,0-1.62-1.67,11,11,0,0,1-.66,4.43h0a.25.25,0,0,1-.24.16.28.28,0,0,1-.21-.3c.1-1.2-1.11-2.06-2.2-2.83a2.83,2.83,0,0,1-.28-.2v-.64c.16.13.34.25.52.38a5.93,5.93,0,0,1,2.27,2.29,9.63,9.63,0,0,0,.3-3.58,5.54,5.54,0,0,1-1.43-1.57l-.12-.21a5.06,5.06,0,0,1-.92,1.35.25.25,0,0,1-.14.06.26.26,0,0,1-.25-.26,3.66,3.66,0,0,0-.23-1.07v-1.09a5.13,5.13,0,0,1,.63,1.59,2.4,2.4,0,0,0,.6-1.32.26.26,0,0,1,.24-.27.23.23,0,0,1,.22.18,3.92,3.92,0,0,0,.16.36h0c.06.13.12.25.19.37a5.18,5.18,0,0,0,1.34,1.45h0a5.42,5.42,0,0,1,1.87,1.54l.27-2.19a.24.24,0,0,1,.26-.23.21.21,0,0,1,.18.16c.13.28,2.13,4.69,6.35,3.83a6.18,6.18,0,0,1-1.52-5.23l-.45-.33c-.26-.18-.54-.36-.84-.53h0a6.9,6.9,0,0,1-2.79-3.38l-1,2.35h0a.2.2,0,0,1-.08.1.21.21,0,0,1-.32-.06,4.87,4.87,0,0,0-.88-1,8.38,8.38,0,0,1-.7-.75,3.26,3.26,0,0,1-.41,1.06,5.09,5.09,0,0,0-.24.47,3.35,3.35,0,0,0-.26,1h0a.26.26,0,0,1-.17.23.24.24,0,0,1-.28-.2c-.29-1.23-2.36-2.89-2.37-2.9l0,0v-.4a.2.2,0,0,1,.29,0,11.36,11.36,0,0,1,2.24,2.48c0-.13.1-.27.16-.4s.17-.35.25-.5a1.9,1.9,0,0,0,.06-2.07v0a.29.29,0,0,1,.1-.36.23.23,0,0,1,.32.12h0l0,0a6.26,6.26,0,0,0,.47.89,6,6,0,0,0,.84,1,6.85,6.85,0,0,1,.73.78l1-2.52a.22.22,0,0,1,.31-.12.25.25,0,0,1,.12.16h0a6.58,6.58,0,0,0,2.76,3.63h0c.32.19.61.37.87.56s.51.37.73.55a6.32,6.32,0,0,1,1.51,1.72,2.14,2.14,0,0,0-.06-.83h0c0-.16-.14-.42-.25-.75s-.12-.31-.14-.38v0c-.23-.67-.5-1.48-.68-2.23a4.17,4.17,0,0,1-.12-2c-.21-.21-.43-.41-.65-.61a8,8,0,0,1-1.51-1.62,7.61,7.61,0,0,1-1-3.38A7.57,7.57,0,0,0,1089,442a12.61,12.61,0,0,1-.17,5.2,1,1,0,0,1,0,.18,1.76,1.76,0,0,1,0,.19s0,.07,0,.1h0s0,0,0,0a.31.31,0,0,1-.08.19c-.16.3-.3.31-.36-.11a.27.27,0,0,1,0-.18.64.64,0,0,1,0-.2c0-.07,0-.14-.06-.22h0l0-.05a5.5,5.5,0,0,0-1.25-1.4,10.73,10.73,0,0,1-1.4-1.47,10.78,10.78,0,0,1-1.08,3.22.22.22,0,0,1-.33.09.31.31,0,0,1-.09-.33s0-.07,0-.1a.48.48,0,0,0,0-.12,1.69,1.69,0,0,0-.16-.67,1.44,1.44,0,0,0-.46-.57,2.94,2.94,0,0,1-.45-.47h0l-.06-.09a5.35,5.35,0,0,1-.93,2.54.21.21,0,0,1-.33,0,.24.24,0,0,1-.06-.11h0a5.1,5.1,0,0,0-.23-.56v-1a8.45,8.45,0,0,1,.49.94,4.62,4.62,0,0,0,.57-2.91.28.28,0,0,1,.15-.32.23.23,0,0,1,.3.18,3.15,3.15,0,0,0,.45.95v0a2.72,2.72,0,0,0,.38.38,1.84,1.84,0,0,1,.6.77,2.09,2.09,0,0,1,.11.3,6.92,6.92,0,0,0,.67-3,2.09,2.09,0,0,1-.1-.6.25.25,0,0,1,.23-.27.22.22,0,0,1,.22.18h0a2.44,2.44,0,0,1,.11.55,6.4,6.4,0,0,0,1.67,2,7.72,7.72,0,0,1,1.17,1.22c.22-1.11.57-3.69-.3-5.4a.35.35,0,0,1,0-.23.24.24,0,0,1,.31-.16s1.23.53,1.85,3.58h0v.05a7,7,0,0,0,.91,3.11,7.84,7.84,0,0,0,1.42,1.52,8.65,8.65,0,0,1,1.3,1.34,39.42,39.42,0,0,0,.32-5.22,2.54,2.54,0,0,0-1-2.09l-.08-.08c-.33-.34-.68-.7-1-1.08a4.22,4.22,0,0,1-.72-1.24Zm-10-2.36v-.57a7.67,7.67,0,0,0,4.63.09,4.77,4.77,0,0,1-.95-1.18c-.77-1.28-1.25-1.35-1.26-1.35a.27.27,0,0,1-.21-.29.25.25,0,0,1,.25-.25c7.48.46,8.27-2.6,8.28-2.61a.22.22,0,0,1,.29-.17.29.29,0,0,1,.15.34s-.83,3.2-7.86,3a6.12,6.12,0,0,1,.75,1h0c0,.05.64,1.15,1.27,1.27a.27.27,0,0,1,.19.32.25.25,0,0,1-.16.21,8.31,8.31,0,0,1-5.37.16ZM1087,480.4a.3.3,0,0,1,.09-.37.22.22,0,0,1,.32.11s1.78,3.53-2.62,13.61h0l-1.25,2.64a.21.21,0,0,1-.31.11.3.3,0,0,1-.1-.37l1.25-2.63h0C1088.67,483.68,1087,480.41,1087,480.4Zm-5.52-15.34a6.17,6.17,0,0,1-.26,1.07,7.54,7.54,0,0,1-.86,1.6.21.21,0,0,1-.21.1.26.26,0,0,1-.2-.3,1.13,1.13,0,0,0,0-.39,2.88,2.88,0,0,0-.19-.47,5.88,5.88,0,0,0-.46-.72,4.63,4.63,0,0,1-.57-.92,1.88,1.88,0,0,1-.12-.3,6.76,6.76,0,0,1-2.72,4,.2.2,0,0,1-.26,0,.3.3,0,0,1,0-.38.83.83,0,0,0,.08-.36,4.89,4.89,0,0,0,0-.67,5.28,5.28,0,0,0-.32-1.37c0-.07,0-.15-.08-.22a6.8,6.8,0,0,1-.24.76l-.15.38-.16.33h0v0a2.73,2.73,0,0,1-1.28,1.4,4.8,4.8,0,0,0-.73.5,4.54,4.54,0,0,0-.71.7h0a.31.31,0,0,1-.11.09h-.11v-3.48l0,.11a5.79,5.79,0,0,1,.26,1,6.37,6.37,0,0,1,.06,1.43c.09-.09.2-.18.31-.27a7.07,7.07,0,0,1,.79-.54,2.29,2.29,0,0,0,1.09-1.19v0c0-.09.09-.19.14-.3a2.32,2.32,0,0,0,.14-.35,6.59,6.59,0,0,0,.42-1.82,2.1,2.1,0,0,1,0-.43.23.23,0,0,1,.23-.24.25.25,0,0,1,.23.27c0,.14,0,.27,0,.4a4.65,4.65,0,0,0,.3,1.3,5.44,5.44,0,0,1,.35,1.54c0,.21,0,.42,0,.62a6.39,6.39,0,0,0,2.16-4.21.24.24,0,0,1,.25-.24.24.24,0,0,1,.2.21h0a5.87,5.87,0,0,0,.36,1.16,5.65,5.65,0,0,0,.51.82,5.76,5.76,0,0,1,.51.8,3.61,3.61,0,0,1,.21.49,7,7,0,0,0,.47-1,5.83,5.83,0,0,0,.28-1.38,6.08,6.08,0,0,1,.37-1.63h0a.3.3,0,0,1,0-.08v2.25Zm0-6.21a8.22,8.22,0,0,1-.83-.64,11.52,11.52,0,0,1-.77,3.6.24.24,0,0,1-.19.17.24.24,0,0,1-.26-.23,9.17,9.17,0,0,0-1.93-4.13,8.08,8.08,0,0,1-2.7,3.22.19.19,0,0,1-.22,0,.3.3,0,0,1-.12-.36,4.74,4.74,0,0,0,0-2.8,3.58,3.58,0,0,1-2,2.59.2.2,0,0,1-.17,0,.29.29,0,0,1-.1-.37,1.94,1.94,0,0,0-.14-1.3h0a6.34,6.34,0,0,1-.32-.89v-2.13a.27.27,0,0,1,.17.26,7.26,7.26,0,0,0,.56,2.5,0,0,0,0,1,0,0,3.15,3.15,0,0,1,.25,1.18,4,4,0,0,0,1.42-2.77.23.23,0,0,1,.27-.22.22.22,0,0,1,.16.14h0a7.06,7.06,0,0,1,.5,3.29,8.15,8.15,0,0,0,2.16-2.95.22.22,0,0,1,.31-.12l.06.05h0a10.42,10.42,0,0,1,2.11,3.84,8.63,8.63,0,0,0,.44-3.23.26.26,0,0,1,.2-.3.24.24,0,0,1,.21.09h0a3.91,3.91,0,0,0,.91.82v.64Zm0-3.25v-1.09a9.14,9.14,0,0,0-1.82-2.18h0a.31.31,0,0,0-.13-.06.25.25,0,0,0-.24.26,7.43,7.43,0,0,1-1,2.32,2.29,2.29,0,0,0-.94-1,2.84,2.84,0,0,1-.59-.47v0h0a5.06,5.06,0,0,1-.83-1.86.24.24,0,0,0-.29-.2.27.27,0,0,0-.16.33,5.41,5.41,0,0,0,1,2.11h0a3.27,3.27,0,0,0,.68.56c.42.28.83.56.83,1.16a.26.26,0,0,0,.23.28.26.26,0,0,0,.21-.14,14.79,14.79,0,0,0,1.29-2.63,7.79,7.79,0,0,1,1.81,2.57Zm0-4.85a.3.3,0,0,1,0-.36l0,0v.4Zm0-3.65c-.13-.27-.3-.55-.46-.82a12.41,12.41,0,0,1-.23,3.12.23.23,0,0,1-.28.2.24.24,0,0,1-.17-.22,2.37,2.37,0,0,0-1-1.35,4.36,4.36,0,0,1-1.09-1.13,3.58,3.58,0,0,1-.57,1,4,4,0,0,0-.68,1.31.24.24,0,0,1-.29.18.21.21,0,0,1-.13-.13,2.34,2.34,0,0,0-.51-.69,5.66,5.66,0,0,0-1-.66c-1.07-.62-1.07-2.75-1.07-2.76a.25.25,0,0,1,.23-.27.26.26,0,0,1,.24.27s0,1.8.81,2.28a6.06,6.06,0,0,1,1,.71,2.42,2.42,0,0,1,.37.42,4.36,4.36,0,0,1,.62-1,3.55,3.55,0,0,0,.63-1.37h0a.27.27,0,0,1,.15-.19.23.23,0,0,1,.3.16,3,3,0,0,0,1.18,1.45,4.27,4.27,0,0,1,.91.89c.13-1,.26-2.65-.25-3.36h0a.3.3,0,0,1,0-.39.21.21,0,0,1,.33,0s.47.63.91,1.35v1Zm0-9.41v.57a6.77,6.77,0,0,1-1.79-.92A4.85,4.85,0,0,0,1081,439a.3.3,0,0,1,.11.36.25.25,0,0,1-.19.16c-.12,0-2.56.32-3.86-.43h0a12,12,0,0,1-1.45-1c-1.12-.89-2.24-1.76-3.67-1.37l-.14,0v-.56h0c1.63-.45,2.83.5,4,1.45a12.87,12.87,0,0,0,1.4,1h0a6,6,0,0,0,3,.43,13.36,13.36,0,0,1-1.52-2.54.31.31,0,0,1,0-.32.21.21,0,0,1,.33,0,6.44,6.44,0,0,0,2.44,1.59Zm-9.75,2.63a1.5,1.5,0,0,0,.73,0,1.55,1.55,0,0,0,.75-.39,1.5,1.5,0,0,0,.48-.78,1.8,1.8,0,0,0,0-.7h0a1.89,1.89,0,0,0-.12-.39,2.14,2.14,0,0,0-.87-.89.22.22,0,0,0-.32.11.29.29,0,0,0,.1.37,1.6,1.6,0,0,1,.68.67.56.56,0,0,1,0,.12.38.38,0,0,1,0,.1h0a.92.92,0,0,1,0,.44,1,1,0,0,1-.31.51,1.11,1.11,0,0,1-.55.28,1.06,1.06,0,0,1-.56,0l-.09,0Zm0,29.57h0l0,0h0v-3.76c0,.11.06.22.1.33v3.48h0Zm0-12.19c0-.14-.07-.27-.1-.41v-1.72h.1v2.13Zm0-21.59v.56l-.1.05v-.58l.1,0Zm0,3.64v.57h0l-.06,0v-.58Zm-.1,30.09,0,0h0a.28.28,0,0,1,0-.22h0s0,0,0,0,0-.11,0-.18a7.77,7.77,0,0,0,.06-.83v1.34l0,0,0,0Zm0-1.52a6.15,6.15,0,0,0-.06-.74,7.94,7.94,0,0,0-.24-.87,3.74,3.74,0,0,1-.28-1.47c-2.07,1.59-3.39,1.25-3.43,1.24a.25.25,0,0,1-.16-.13.3.3,0,0,1,.09-.37,3.87,3.87,0,0,0,1.57-2.69c.27-2.2,1.08-2.25,1.08-2.25a.24.24,0,0,1,.26.24.27.27,0,0,1-.21.3s-.45,0-.67,1.78a4.45,4.45,0,0,1-1.22,2.59,5.67,5.67,0,0,0,2.88-1.54.22.22,0,0,1,.33.06.28.28,0,0,1,0,.25,2.39,2.39,0,0,0,0,1.36v2.24Zm0-11a8.55,8.55,0,0,1-.2-1.45.27.27,0,0,1,.2-.27v1.72Zm0-21.15v.58a.51.51,0,0,0-.16.09,1.62,1.62,0,0,0-.6.78,1.89,1.89,0,0,0-.08,1,1.36,1.36,0,0,0,.14.43,2,2,0,0,0,.7.65v.58a2.39,2.39,0,0,1-1.08-.92h0l0,0a2.49,2.49,0,0,1-.2-.58,2.58,2.58,0,0,1,.11-1.38,2.16,2.16,0,0,1,.8-1,1.79,1.79,0,0,1,.39-.2Zm-1.07,49.59a.22.22,0,0,1,.3-.15.3.3,0,0,1,.13.36,19.85,19.85,0,0,0-.17,10.86v0h0l.31,1.76a.26.26,0,0,1-.18.32.23.23,0,0,1-.27-.21l-.32-1.76A20.52,20.52,0,0,1,1070.57,485.73Z"/></g></svg>