<svg id="Layer_1" data-name="Layer 1" xmlns="http://www.w3.org/2000/svg" viewBox="0 0 1500 1000"><defs><style>.cls-1,.cls-5{fill:#fbed1d;}.cls-2{fill:#00a44f;}.cls-3{fill:#f38020;}.cls-4{fill:#a62c3a;}.cls-5{fill-rule:evenodd;}</style></defs><title>Sri Lankan</title><rect class="cls-1" y="5.33" width="1500" height="994.67"/><rect class="cls-2" x="73.5" y="66.3" width="192" height="873.28"/><rect class="cls-3" x="263.86" y="66.3" width="193.14" height="873.28"/><rect class="cls-4" x="533" y="67.93" width="893.5" height="870.02"/><path class="cls-5" d="M642,191.49c3.78-23.77-11.66-90.29-52.85-82.18-5.33,1-13.21,5.67-17.35-.63-2.13-3.26-3.14-6.41-5.46-7.36-5.36-2.21-13.51,5.63-11.62,11.08,1.34,3.83,7.48,3.46,9.72,7.34a10.25,10.25,0,0,1,.79,8,54,54,0,0,0-3.16,20c.39,7.06,3.53,11.78,6.81,15.73C585.55,183.53,631.26,172.29,642,191.49Z"/><path class="cls-5" d="M1317.55,191.49c-3.78-23.77,11.66-90.29,52.85-82.18,5.33,1,13.21,5.67,17.35-.63,2.13-3.26,3.14-6.41,5.46-7.36,5.36-2.21,13.51,5.63,11.62,11.08-1.34,3.83-7.48,3.46-9.72,7.34a10.25,10.25,0,0,0-.79,8,54,54,0,0,1,3.16,20c-.39,7.06-3.53,11.78-6.81,15.73C1374,183.53,1328.24,172.29,1317.55,191.49Z"/><path class="cls-5" d="M642,817.61c3.78,23.78-11.66,90.29-52.85,82.18-5.33-1-13.21-5.67-17.35.64-2.13,3.25-3.14,6.4-5.46,7.36-5.36,2.21-13.51-5.64-11.62-11.09,1.34-3.82,7.48-3.45,9.72-7.34a10.25,10.25,0,0,0,.79-8,53.91,53.91,0,0,1-3.16-20c.39-7.06,3.53-11.79,6.81-15.74C585.55,825.58,631.26,836.81,642,817.61Z"/><path class="cls-5" d="M1317.55,817.61c-3.78,23.78,11.66,90.29,52.85,82.18,5.33-1,13.21-5.67,17.35.64,2.13,3.25,3.14,6.4,5.46,7.36,5.36,2.21,13.51-5.64,11.62-11.09-1.34-3.82-7.48-3.45-9.72-7.34a10.25,10.25,0,0,1-.79-8,53.91,53.91,0,0,0,3.16-20c-.39-7.06-3.53-11.79-6.81-15.74C1374,825.58,1328.24,836.81,1317.55,817.61Z"/><path class="cls-5" d="M1257.79,349.56c-10.33-18.27,20.15-28.39,24.66-5.78,5.45,27.4-29.35,31.44-46.77,18.18-15.27-11.61-29.66-29.45-41.4-34.21,0,0,2.46,2,3.59,13.07s13.05,13.62,13.05,13.62-31,2-40.66-24c0,0-1.7,24.51-27.61,21.42,0,0,29.63-33.71-14.25-47.69,0,0,25.22,39-27.17,47.69,0,0,28.37-28-4-48.11,0,0-17.21-8.9-16.84-1.27,0,0,10.22,10.53-6.62,21.42,0,0-3.21-19.06-25.91-5.26,0,0-18.15,17.25,6.43,33.59,0,0,9.84-19.25,31-14,0,0,15.13,7.62,2.46,8.35,0,0-26.86,8.89-4.92,31.23,0,0,6.62-16.89,17.78-14.17-9.77,32.18,65.06,20.2,79.43,16.71,0,0,33.75-7.54,56.14,1.53,40,16.21,37.62,69.45,3.41,83.11,4.8,4.29,8.74,10.33,11.95,16.81,15.86,32,14.84,67.14-.11,99.87-6.66,14.57-9.59,32.46-13.58,52.66-2.5,12.62,2,23.65,6.13,30.83,3.94,6.79,5.75,10.06,14.08,11.16,2.63.35,4.82.45,4.82.45,7.72,4.6-4.53,18.66-14.38,25s-9.32,10.48-10.39,18.41,5.59,16.1,12.78,26.84-4.26,10-12,9.46-11.72-8.44-11.72-8.44c-5.86,11.51-13.58,9-13.58,9-9.59-.51-13.85-9-13.85-9-15.44,20.45-25.83.26-25.83.26-9.85,10.22-17.84,8.43-17.84,8.43,7.72-30.93,39.41-29.39,39.41-29.39a13,13,0,0,0,11.19-12l-.8-25.82c0-19.68-20.77-33.49-36.48-40.14-6.39-2.7-13.56-7.8-19.83-12.91-11.16-9.1-20.32-23.37-32.29-30.62a48.4,48.4,0,0,0-12.77-5.34c-43.37-11.62-84.32,5.77-122.32,24.8a258.6,258.6,0,0,1-31.72,13.1c-1.9.68-1.63.37-2.59,2.34A205.5,205.5,0,0,1,934.31,664c-13.43,20.71,10.41,24,25.3,23.51-6.13,23.27-32.22,26.85-32.22,26.85-8.53.51-8.53,10.73-5.6,13s2.93,9.2,2.93,9.2c.27,10.22-9.32,19.94-9.32,19.94-16.77,1.53-22.37-7.16-22.37-7.16-5.86,6.39-8.78,6.9-17.57,7.16a12.81,12.81,0,0,1-12-7.41l-4,4.34c-5.06,3.84-12.25,3.58-12.25,3.58-6.66-.26-10.39-7.16-10.39-7.16-8.78,8.69-17,6.9-17,6.9s4-16.87,10.12-24.54,20.75-4.93,26.12-5.09a53.6,53.6,0,0,0,13.75-2c28.66-8.56,15.68-41.62,9.25-60.93l-3.52-10.58-.67-3c-40.27-17-73-46.22-77.39-90.47-4.16-41.69,26.82-75.63,60.88-96.1A39.18,39.18,0,0,0,869.09,455c2-2.67,3-6.12,2.22-8.81-1.66-5.65-10-5.29-13.27-1.2-1.48,1.83-2.77,4.63-3.63,8.84h0a5.15,5.15,0,0,1-1.86-.6,16.8,16.8,0,0,1-4.56-2.74c-5-4.22-3.9-15.54-9.2-16.91A32.7,32.7,0,0,1,838,440a61.14,61.14,0,0,1-1.28,7.26c-1,3.59,0,2,0,2s-11.91-7.19-11.91-15.35c0,0-6.12,7.51-23.81,6.2a11,11,0,0,0,3.55-2,12.74,12.74,0,0,0,3.65-5,13.12,13.12,0,0,1,1.63-5c.06-.27.11-.51.14-.69-.55.16-1.13.31-1.72.44a61.3,61.3,0,0,1-10.45,2.64l-13.52.75a8.05,8.05,0,0,0-4.37,1.23c-1.13.67,2.25-3.09,2.58-3.6a18.66,18.66,0,0,0,2.86-9.47c0-8.74,5-18.08,9-19.45.48-.48.78-.74.78-.74l27.69,9.49c9.52,2.31,19.51,3.83,26.51,2.54l-3.19,5.44,13.2,4.52a49.24,49.24,0,0,1,9.72,1.47s10.55,1.63,6.47-5.88c-6-11.07-11.65-18.29-19.44-27.76-4.29-5.23-8.63-11.65-8.8-16.66,0,0-4.76-1.63-2.72,15-7.43-5.46-12.48-6.61-18.38-14.7,0,0,1,10.45,2.39,14s-4.43-2-10.55-5.87-8.85-13.39-11.91-15c-8.64-4.61-23-17.82-19.05-28.74-7.92-7.94-6.75-17.49-.64-23.38,5.55-5.35,13.3-6.91,19.19-4.2,7,3.22,11.16,13.36,6.29,19.74L835,325.79a99.4,99.4,0,0,1,17.69-3.92c8.85-1,11.23-1,12.93-1s12.59-6.2,13.61-13.72-3.74-7.18-2.38-12.41c0,0,2.72,2.29,9.86,1s18.71-1.63,27.22,6.53c0,0,9.53,11.44,12.59-2.93,0,0,.34-12.74-3.4-13.72,0,0,30.28,6.86,35.38,20.9,0,0,7.14-9.47,7.14-14s-1.36-5.56-1.36-5.56,18,4.9,25.18,12.42,8.5,8.16,17.35,7.51c0,0,13.27-5.55,14.63-15,0,0,6.12,20.91-17,39.2,0,0,15.16,11.58,10.07,43.82a15,15,0,0,1,1,5.26c.55,10.76-2.44,30.14-2.44,30.14a35.94,35.94,0,0,0-4.94-6.07l-.1,1.18c-1.76,4.24,2,14,4.75,20.67,1.07,2.59,2,4.71,2.35,5.82,1.45,4.36-.61,9.91-1,7.53-.3-1.76-3.44-6.14-10.41-10.95l-.13.24c-4.3,16.24,10.54,27.56,10.54,27.56-1.21.29-2.36.58-3.46.87a11.27,11.27,0,0,0,2.39,5.6l.24,0c6.5-2.77,14.6-3.63,23.6-4,22.38-.8,42.68-2.31,64.64-6.22,43.15-7.67,87.76-14.72,116.75-1.28,21.78,10.09,29.8-30.2,18.08-43.81-15.12-17.56-48.77-9.19-73.27-5.13-28.3,4.7-61.37,6-87.69-6-8.28-3.78-14.3-7.09-19-6-7.18,1.64-10.62,5.76-10.43,20.28,0,0-26.45-16.28-6.59-40.07,0,0-22.5-21.42-18-45.75,3.82-20.53,29.74-43.38,72.05-47.52,57.63-5.62,99.66,28.68,140.45,61.31C1237.12,341,1251.6,354,1257.79,349.56Z"/><path class="cls-4" d="M1255.91,349c-2.71-5.63-1.84-10.54.87-14a14.18,14.18,0,0,1,6.67-4.67,15.58,15.58,0,0,1,8.36-.47c5.39,1.21,10.35,5.45,12,13.75,1.11,5.54.64,10.21-1,14a19.94,19.94,0,0,1-10.44,10.32,34.08,34.08,0,0,1-15.6,2.74,39.87,39.87,0,0,1-22-7.55l-.1-.08a230.9,230.9,0,0,1-17.8-15.71c-7-6.64-13.65-12.91-19.58-16.44a46.83,46.83,0,0,1,1.91,9.85c1,10.07,11.94,12.41,12,12.41a1.38,1.38,0,0,1-.28,2.72c-1.12.07-28.79,1.41-40.15-20.68-2,7.29-8.28,20.52-28.32,18.13a1.38,1.38,0,0,1-1.22-1.53,1.4,1.4,0,0,1,.38-.79c1.21-1.41,25.78-30.61-10.27-44.24,4.88,9.79,15.29,39-29.91,46.55a1.38,1.38,0,0,1-1.18-2.37c1.15-1.16,26.43-27.09-3.73-45.91-1.09-.55-14.14-7.09-14.72-3,1.83,2.24,8.9,12.61-7.26,23.07a1.42,1.42,0,0,1-1.93-.4,1.26,1.26,0,0,1-.22-.6c-.26-1.33-3.72-16.38-23.67-4.33-1.43,1.45-15.15,16.13,5.13,30.51,2.79-4.43,13.06-18,31.8-13.33a1.34,1.34,0,0,1,.39.16c1.45.75,18.75,9.84,2,10.89-2,.72-22.57,8.68-5.62,27.41,2.24-4.57,8.7-15.44,18.52-13a1.37,1.37,0,0,1,1,1.66l0,.07h0a16.43,16.43,0,0,0-.79,5.87c.36,5.12,4,8.54,9.61,10.72,5.9,2.31,13.85,3.26,22.29,3.41,18.73.31,39.75-3.35,46.67-5h0c.09,0,34.16-7.64,57,1.6,13.6,5.51,22.45,15.18,26.92,26.18a47.87,47.87,0,0,1-.07,36.06,42.24,42.24,0,0,1-21.5,22.59,46.83,46.83,0,0,1,5.24,6.35,74.14,74.14,0,0,1,5.49,9.4l.05.1a115.26,115.26,0,0,1,5.73,13.77,110.35,110.35,0,0,1,3.77,14.06c4.81,24.25,1.23,49.32-9.64,73.11-5.77,12.62-8.73,27.86-12,45-.5,2.56-1,5.16-1.45,7.4a38.16,38.16,0,0,0,.56,16.86,51.42,51.42,0,0,0,5.42,13l.14.24c3.61,6.24,5.36,9.25,12.91,10.25,2.31.3,4.75.43,4.75.43a1.3,1.3,0,0,1,.7.26,6.26,6.26,0,0,1,2,1.92,6.65,6.65,0,0,1,.82,5.07h0a17,17,0,0,1-2.27,5.46c-3.3,5.42-9.52,11.31-15,14.87-8.31,5.4-8.75,9-9.48,15.12-.07.63-.15,1.26-.29,2.32-.85,6.3,3.82,13.12,9.6,21.55,1,1.52,2.12,3.08,3,4.35,3.65,5.44,3,8.53.37,10.29-3,2-8.93,1.61-13.55,1.31h-.05c-5.81-.38-9.68-4.51-11.55-7.1-5.71,9.25-12.7,7.91-13.89,7.6a18.4,18.4,0,0,1-13.74-7.92c-13.32,16.18-23,4.62-26,.09-9.81,9.35-17.81,7.57-17.84,7.56a1.38,1.38,0,0,1-1.08-1.62v0h0c7.68-30.76,38.15-30.53,40.65-30.46,9.4-1.84,9.89-10.17,9.91-10.66l-.8-25.75v0h0v0a26.4,26.4,0,0,0-1.54-8.86,31.62,31.62,0,0,0-3.23-6.58c-6.94-10.89-20.11-18.84-30.87-23.39a63.32,63.32,0,0,1-10.19-5.68c-3.39-2.26-6.79-4.85-10-7.44l0,0h0l0,0a134.36,134.36,0,0,1-13.47-13.43c-5.9-6.45-11.81-12.91-18.57-17a43.26,43.26,0,0,0-6-3,51.34,51.34,0,0,0-6.41-2.16c-21.43-5.74-42.27-4.31-62.46.91-3.19.82-6.36,1.74-9.51,2.73v-2.88q4.38-1.36,8.81-2.52c20.62-5.32,41.94-6.78,63.87-.9a54.73,54.73,0,0,1,6.76,2.27,47.79,47.79,0,0,1,6.39,3.22c7.08,4.3,13.13,10.91,19.17,17.52a134.06,134.06,0,0,0,13.19,13.15l.12.09h0c3.08,2.5,6.39,5,9.73,7.25a60.5,60.5,0,0,0,9.72,5.43c11.16,4.72,24.83,13,32.13,24.45a34.79,34.79,0,0,1,3.51,7.14,29.62,29.62,0,0,1,1.69,9.77h0v0h0l.8,25.78h0v.09a14.39,14.39,0,0,1-12.32,13.32h0l-.31,0c-.09,0-29.48-1.42-37.59,26.78,2.58-.05,8.25-1.09,15-8.1a1.51,1.51,0,0,1,.42-.32,1.4,1.4,0,0,1,1.87.6c0,.05,9.36,18.2,23.45-.41a1.42,1.42,0,0,1,.5-.44,1.39,1.39,0,0,1,1.87.59s3.91,7.72,12.66,8.2a2.38,2.38,0,0,1,.37.06s6.61,2.2,11.93-8.25h0a1.41,1.41,0,0,1,.62-.61,1.39,1.39,0,0,1,1.86.62s3.64,7.22,10.57,7.67h0c4.21.28,9.57.63,11.83-.86,1.3-.86,1.35-2.74-1.15-6.47-1.15-1.72-2.06-3-2.93-4.33-6.11-8.91-11-16.11-10.07-23.45.08-.55.19-1.45.29-2.28.82-6.88,1.32-11,10.71-17.1,5.2-3.37,11.07-8.92,14.15-14a14.38,14.38,0,0,0,1.93-4.54h0a4,4,0,0,0-.42-3.06,3.43,3.43,0,0,0-1-1c-.66,0-2.32-.15-4.56-.44-8.92-1.18-10.9-4.58-15-11.61l-.14-.24a53.85,53.85,0,0,1-5.7-13.72,40.77,40.77,0,0,1-.59-18c.54-2.76,1-5.1,1.44-7.4,3.35-17.26,6.34-32.66,12.24-45.57,10.63-23.27,14.14-47.78,9.45-71.45A107.19,107.19,0,0,0,1256,496a109.4,109.4,0,0,0-5.59-13.44l-.05-.1a72.22,72.22,0,0,0-5.27-9,42.21,42.21,0,0,0-6.27-7.27,1.39,1.39,0,0,1-.45-.59,1.38,1.38,0,0,1,.78-1.79,39.43,39.43,0,0,0,21.91-21.9,45.18,45.18,0,0,0,.06-34c-4.21-10.35-12.55-19.46-25.39-24.66-21.69-8.79-54.32-1.68-55.29-1.46-7,1.7-28.36,5.42-47.36,5.1-8.76-.15-17-1.15-23.28-3.6-6.56-2.57-10.91-6.72-11.35-13.1a17.78,17.78,0,0,1,.49-5.34c-8.86-.71-14.39,12.68-14.73,13.52a1.34,1.34,0,0,1-.34.52,1.4,1.4,0,0,1-2,0c-23.49-23.91,5.38-33.47,5.46-33.5h0a1.53,1.53,0,0,1,.37-.08c7-.4-1.59-5-2.86-5.67-20-4.88-29.27,13.25-29.3,13.31h0l-.08.13a1.41,1.41,0,0,1-1.93.38c-25.53-17-7.4-35-6.66-35.68a1.27,1.27,0,0,1,.28-.23c19.68-12,25.81-.68,27.46,4.2,12.83-9.31,5.24-17.75,4.8-18.22a1.39,1.39,0,0,1-.4-.9c-.48-9.77,17.74-.59,18.81,0l.16.08c27.24,17,13.39,39.15,6.93,47.18,45.08-9.62,22.36-44.76,22.29-44.86a1.36,1.36,0,0,1-.14-1.15,1.4,1.4,0,0,1,1.75-.89c39.29,12.52,22.26,40.11,16.5,47.85,21.86,1.08,23.51-19.94,23.54-20.37a1.4,1.4,0,0,1,2.7-.38c6.44,17.34,22.8,21.73,32.26,22.79a15.81,15.81,0,0,1-7.34-11.83c-1.08-10.53-3.15-12.19-3.15-12.19h0a1.37,1.37,0,0,1-.35-1.53,1.4,1.4,0,0,1,1.81-.76c7.3,3,15.39,10.61,24,18.8a228.58,228.58,0,0,0,17.6,15.55l.07.05a37,37,0,0,0,20.39,7,31.38,31.38,0,0,0,14.32-2.49,17.24,17.24,0,0,0,9-8.87c1.41-3.34,1.81-7.48.82-12.45-1.4-7-5.47-10.61-9.88-11.59a12.73,12.73,0,0,0-6.85.39,11.4,11.4,0,0,0-5.36,3.73c-2.28,3-2.84,7.26,0,12.31h0a1.37,1.37,0,0,1-.4,1.79c-6.49,4.67-19.56-6.18-24.43-10.22-.48-.41-.89-.75-1.12-.93l-1.55-1.24c-40.09-32.09-81.56-65.27-137.89-59.78-28.81,2.82-49.86,14.38-61.37,27.9v-4.14c12.29-13,33.19-23.77,61.09-26.49,57.48-5.61,99.39,27.93,139.91,60.36l1.55,1.24,1.17,1c4.11,3.42,14.69,12.2,20,10.62Zm-223.67,108.6v2.76c1.55-.1,3.12-.18,4.72-.23,11.2-.4,21.89-1,32.55-1.95s21.26-2.34,32.28-4.29c21.53-3.83,43.41-7.5,63.52-8.54s38.14.54,52.4,7.14c4.67,2.17,8.81,2.19,12.33.72a18,18,0,0,0,8.38-8,37.15,37.15,0,0,0,4.18-12.51c1.51-9.63-.06-20.22-5.16-26.14-14-16.3-42.78-11.2-66.48-7-2.65.47-5.22.92-8.08,1.4a221.33,221.33,0,0,1-44.3,3.22c-14.93-.59-29.59-3.24-42.57-9.17h0l-3.14-1.45c-6.93-3.23-12.19-5.69-16.75-4.65-4,.9-6.92,2.52-8.88,6-1.62,2.86-2.49,6.95-2.62,13-5.64-4.41-19.53-18.08-4.14-36.52a1.36,1.36,0,0,0-.16-1.92,69.67,69.67,0,0,1-8-9.74v4.69a72.69,72.69,0,0,0,5.28,6.19,35.13,35.13,0,0,0-5.28,8.92v17.14c3.71,9.07,12.21,14.58,12.93,15a1.44,1.44,0,0,0,.82.25,1.38,1.38,0,0,0,1.37-1.39c-.09-7,.66-11.45,2.28-14.29,1.5-2.64,3.86-3.9,7.07-4.63,3.63-.83,8.51,1.45,15,4.45,1,.47,2.07,1,3.15,1.46h0c13.34,6.1,28.36,8.82,43.63,9.42a223.74,223.74,0,0,0,44.87-3.26c2.36-.39,5.2-.89,8.11-1.41,23-4.08,50.87-9,63.87,6.08,4.56,5.3,5.94,15,4.53,23.93a34.08,34.08,0,0,1-3.85,11.58,15.32,15.32,0,0,1-7,6.83c-2.82,1.17-6.18,1.12-10.07-.68-14.73-6.83-33.35-8.45-53.73-7.4s-42.23,4.73-63.86,8.58c-10.93,1.94-21.46,3.29-32,4.26s-21.22,1.54-32.4,1.94C1035.29,457.39,1033.75,457.47,1032.24,457.56Zm0,148c-16.93,5.36-33.4,13.06-49.36,21.06-5.41,2.7-10.52,5-15.72,7.11s-10.47,4.06-16.17,6.06l-.59.21-.6.2h0a7.26,7.26,0,0,0-.41.82h0l-.19.39a.47.47,0,0,0-.05.1,194,194,0,0,1-12.64,21.67l-1,1.59a23.12,23.12,0,0,0-3.53,7.9,8.11,8.11,0,0,0,1.86,7.43c1.79,1.95,4.6,3.32,7.86,4.27,5.55,1.61,12.35,2,17.9,1.8a1.39,1.39,0,0,1,1.43,1.34,1.58,1.58,0,0,1,0,.38h0c-6.36,24.16-33.29,27.85-33.36,27.86h-.15a6,6,0,0,0-4.54,2.17,6.41,6.41,0,0,0-1.19,2.41,8,8,0,0,0-.27,2.7,4.78,4.78,0,0,0,1.22,3.31c3.46,2.71,3.46,10.26,3.46,10.28v.09c.21,10.76-9.68,20.77-9.71,20.8a1.38,1.38,0,0,1-.92.42c-13.39,1.21-20.07-3.92-22.51-6.45a19.26,19.26,0,0,1-7.14,5.09c-2.75,1-5.79,1.23-10.33,1.36a13.9,13.9,0,0,1-12.3-6.44l-2.69,2.93a1,1,0,0,1-.19.16h0c-5.46,4.11-13.08,3.84-13.1,3.84h0c-5.36-.21-9-4.18-10.6-6.4-8.86,7.89-17,6.12-17.05,6.12a1.38,1.38,0,0,1-1.1-1.62l0-.11c.27-1.13,4.26-17.37,10.37-25h0l.12-.15.09-.1c5.46-6.48,16.19-5.87,23.06-5.49,1.57.09,2.93.17,3.89.14a59.55,59.55,0,0,0,7.29-.62,42.84,42.84,0,0,0,6.1-1.32c21.64-6.46,18.12-28.06,12.65-46-1.07-3.54-2.19-6.85-3.22-9.9l-1.1-3.25-3.52-10.58a1.14,1.14,0,0,1-.06-.25l-.49-2.19c-5.45-2.31-10.77-4.86-15.9-7.65a158.91,158.91,0,0,1-15.32-9.43c-16.76-11.73-30.39-26.53-38.55-44.71v-7.42c7.45,20.61,21.89,37.1,40.15,49.88a157.82,157.82,0,0,0,15,9.27q7.84,4.25,16.26,7.78h0a1.39,1.39,0,0,1,.82,1l.65,2.88,3.51,10.55c.64,1.94.84,2.52,1.09,3.25,1.06,3.14,2.22,6.55,3.26,10,5.84,19.18,9.48,42.28-14.53,49.45a45.25,45.25,0,0,1-6.49,1.41,65.63,65.63,0,0,1-7.61.64c-1.11,0-2.51-.05-4.12-.14-6.34-.35-16.26-.91-20.82,4.54v0l-.13.16h0c-4.84,6.07-8.33,18.19-9.46,22.46,2.58,0,8.22-.65,14.26-6.59a1.35,1.35,0,0,1,.37-.3,1.4,1.4,0,0,1,1.89.55s3.37,6.22,9.22,6.45c.36,0,6.72.13,11.26-3.23l3.86-4.2a1.4,1.4,0,0,1,2.35.34,11.37,11.37,0,0,0,10.67,6.57c4.24-.12,7.06-.3,9.43-1.19s4.36-2.47,7.11-5.47a1.74,1.74,0,0,1,.32-.28,1.4,1.4,0,0,1,1.92.42s5,7.81,20.55,6.57c1.67-1.81,8.75-10,8.59-18.48a.57.57,0,0,1,0-.13s0-6.24-2.4-8.13a7.39,7.39,0,0,1-2.27-5.3,11,11,0,0,1,.36-3.58,9.19,9.19,0,0,1,1.7-3.41,8.73,8.73,0,0,1,6.5-3.19c1-.15,24-3.7,30.53-24.07A61.49,61.49,0,0,1,940.9,687c-3.73-1.08-7-2.7-9.15-5.06a10.71,10.71,0,0,1-2.53-9.8,25.71,25.71,0,0,1,3.92-8.87l1-1.6a191.65,191.65,0,0,0,12.46-21.35s0-.07,0-.11l.19-.39h0a4.66,4.66,0,0,1,1-1.67h0a3.8,3.8,0,0,1,1.56-.78l.57-.2c5.7-2,10.93-3.93,16-6s10.17-4.34,15.52-7c16.33-8.18,33.21-16.06,50.62-21.48v2.88ZM803.88,517.89c11-22.9,31.74-41.72,53.74-54.94h0l.06,0c.47-.28,1-.61,1.55-1s1.06-.71,1.61-1.1a33.8,33.8,0,0,0,7.13-6.67h0a11.14,11.14,0,0,0,.7-1,11.84,11.84,0,0,0,.59-1.09,8.08,8.08,0,0,0,.71-5.46,4.2,4.2,0,0,0-1.43-2.15,5.29,5.29,0,0,0-2.65-1.05,8.13,8.13,0,0,0-3.24.26,7.1,7.1,0,0,0-3.53,2.22,13.3,13.3,0,0,0-1.85,3.2,26.36,26.36,0,0,0-1.51,5,1.33,1.33,0,0,1-.71.94,1.4,1.4,0,0,1-.79.17l-.13,0h0l-.25,0h0l-.34-.08h0a7.25,7.25,0,0,1-1.61-.61,18.15,18.15,0,0,1-2.21-1.07,18.8,18.8,0,0,1-2.65-1.86h0l0,0c-2.65-2.25-3.71-6-4.72-9.51-.66-2.35-1.3-4.59-2.31-5.92a28.28,28.28,0,0,1-.66,4.24l-.14,1.07h0c-.07.49-.13.87-.17,1.16a45.45,45.45,0,0,1-1,5.1c-.08.27-.15.53-.23.76a1.36,1.36,0,0,1,.11,1.49s-5.58,9.33-3.26-.35c-2.8-1.94-9.27-6.95-10.89-12.95-2.92,2.1-9.11,5.24-19.91,5V437l.15-.08-.15.07v0l.38-.32h0l0,0c.16-.15.32-.33.49-.51l.06-.07a13.37,13.37,0,0,0,2-3.21,19.39,19.39,0,0,1,.76-3.11c-1.18.41-2.48.78-3.74,1.09v-2.84a34.8,34.8,0,0,0,3.84-1.22h0l.23-.08c.18,0,.46-.1.83-.2h0l.73-.2a1.39,1.39,0,0,1,1.83,1.56l-.06.32h0v0l-.08.38h0a1.85,1.85,0,0,1-.18.44,7.48,7.48,0,0,0-.73,1.54,16.82,16.82,0,0,0-.71,2.9h0a1.4,1.4,0,0,1-.1.35,16.5,16.5,0,0,1-2.54,4.07l-.07.08c-.2.22-.42.45-.65.67l0,0h0l-.31.27c12.65-.2,17.41-5.31,17.85-5.81a1.39,1.39,0,0,1,2.5.84c0,5.4,6,10.47,9.23,12.81.29-1.09.58-2.76.85-4.55.07-.47.13-.86.17-1.14h0l.15-1.06a1,1,0,0,1,0-.24,30.43,30.43,0,0,0,.66-4.58c0-.32,0-.58,0-.77s0-.51,0-.7v-.06a1.2,1.2,0,0,1,0-.38,1.39,1.39,0,0,1,1.69-1c3.59.93,4.7,4.83,5.89,9,.89,3.14,1.84,6.46,3.85,8.16h0a15.27,15.27,0,0,0,2.25,1.56,14.46,14.46,0,0,0,1.87.92l.19.08.2.1a26.3,26.3,0,0,1,1.33-4.12,16,16,0,0,1,2.25-3.86,9.78,9.78,0,0,1,4.93-3.14,10.81,10.81,0,0,1,4.37-.35,8.2,8.2,0,0,1,4,1.63,6.92,6.92,0,0,1,2.34,3.53,10.68,10.68,0,0,1-.85,7.37c-.22.48-.46.93-.71,1.36a14.38,14.38,0,0,1-.87,1.28h0a36.16,36.16,0,0,1-7.72,7.25c-.55.4-1.12.79-1.7,1.17s-1,.67-1.64,1l-.08.05h0c-23.41,14.07-45.34,34.54-55.17,59.51v-6.93Zm0-117,19.31,6.61a113,113,0,0,0,14,2.58,42,42,0,0,0,11.91-.06,1.39,1.39,0,0,1,1.62,1.1,1.37,1.37,0,0,1-.17.94h0l-2.34,4L859.59,420l1.27.09,1.42.14a46.15,46.15,0,0,1,7.05,1.25c.78.11,7.55.91,4.95-3.88a132.75,132.75,0,0,0-9-14.33c-3.11-4.35-6.45-8.5-10.33-13.21a65,65,0,0,1-6.08-8.61,23.23,23.23,0,0,1-2.83-7.12c-.64,1-1.25,4.06-.15,13.07a1.39,1.39,0,0,1-2.29,1.2c-2.18-1.59-4.19-2.83-6.07-4a41.82,41.82,0,0,1-9.47-7.24,50.71,50.71,0,0,0,1.76,9.05c.6,1.6.29,2.51-.79,2.91-1.26.47-3.4-1.11-6.21-3.19-1.66-1.24-3.6-2.68-5.6-4l-.07,0c-3.76-2.44-6.23-6.65-8.28-10.13-1.36-2.32-2.51-4.28-3.47-4.79h0c-.5-.27-1-.56-1.56-.88V363c1,.66,2,1.24,2.87,1.72h0c1.65.88,3,3.15,4.56,5.84,1.9,3.24,4.2,7.15,7.42,9.22l0,0c2,1.29,4,2.79,5.77,4.07.89.66,1.63,1.27,2.21,1.76a112.74,112.74,0,0,1-2-12.69,1.38,1.38,0,0,1,.57-1.27,1.4,1.4,0,0,1,1.94.32c3.93,5.38,7.51,7.59,11.74,10.21,1.21.74,2.47,1.52,3.81,2.42-1.23-15.49,4.81-13.48,4.83-13.47h0a1.39,1.39,0,0,1,1,1.27,17.66,17.66,0,0,0,2.67,7.62,61.32,61.32,0,0,0,5.82,8.21c3.91,4.76,7.28,9,10.43,13.35a134.21,134.21,0,0,1,9.15,14.63c5.35,9.84-7.58,7.94-7.89,7.89l-.16,0a44.24,44.24,0,0,0-6.69-1.2l-1.35-.12-1.36-.1h0a1.15,1.15,0,0,1-.36-.07l-13.1-4.49a1.17,1.17,0,0,1-.35-.14,1.36,1.36,0,0,1-.5-1.88l1.77-3a52.55,52.55,0,0,1-9.84-.28,115.93,115.93,0,0,1-14.35-2.65l-.15,0-18.47-6.33v-2.91Zm0-93.33v2.89a11.25,11.25,0,0,1,1.14.45,12.26,12.26,0,0,1,2.07,1.25A14.32,14.32,0,0,1,812,319a10.78,10.78,0,0,1-.23,7.93,8.74,8.74,0,0,1-1,1.59,1.38,1.38,0,0,0,1.43,2.17l23-3.57.22,0h0a97.31,97.31,0,0,1,17.41-3.86c4.4-.49,7.19-.73,9.08-.85s2.85-.12,3.7-.12h0a.82.82,0,0,0,.22,0,5.69,5.69,0,0,0,1.53-.45,17.86,17.86,0,0,0,2.13-1.08c4.09-2.36,10.29-7.43,11.1-13.36a10.84,10.84,0,0,0-1.64-8.18,5.59,5.59,0,0,1-.94-2.34,18,18,0,0,0,8.93.26l.07,0c1-.17,2-.33,3.15-.45s2.31-.2,3.51-.22c6.17-.1,13.44,1.3,19.21,6.79.67.79,11.43,13.07,15-3.58a1.71,1.71,0,0,0,0-.31c0-.72.09-7.15-1.43-11.39,8.08,2.29,26.93,8.65,30.71,19.06a1.39,1.39,0,0,0,1.78.83,1.36,1.36,0,0,0,.64-.46h0c.3-.4,7.42-9.93,7.42-14.85a16.23,16.23,0,0,0-.32-3.39c5.25,1.67,16.54,5.73,21.73,11.19,3.7,3.89,5.92,6,8.48,7.14s5.33,1.15,10,.8a1.35,1.35,0,0,0,.45-.11c.12-.05,9.17-3.86,13.42-10.7.23,7.11-1.81,20.35-17.22,32.53a1.36,1.36,0,0,0-.22,1.93,1,1,0,0,0,.28.27c1,.81,14.29,12.19,9.51,42.49a1.46,1.46,0,0,0,.1.78,10,10,0,0,1,.6,2,20.49,20.49,0,0,1,.31,2.77c.4,7.86-1.12,20.44-1.94,26.45l-.43-.54a39,39,0,0,0-2.63-2.88,1.4,1.4,0,0,0-2.38.86h0l-.08,1c-.9,2.44-.38,6.14.72,10.09a104.44,104.44,0,0,0,4.11,11.38h0v0a.36.36,0,0,1,0,.09c.41,1,.61,1.46.76,1.81.69,1.66,1.25,3,1.51,3.8a10.28,10.28,0,0,1,.39,4.11c-1.55-2.31-4.68-5.61-9.72-9.09a1.39,1.39,0,0,0-1.93.34.76.76,0,0,0-.13.23l-.09.16a1.47,1.47,0,0,0-.14.4c-3.43,13.16,5,23.18,9,27.09l-.94.25a1.37,1.37,0,0,0-1,1.56,11,11,0,0,0,.88,3.23,15.11,15.11,0,0,0,1.76,3,1.39,1.39,0,0,0,1.36.54l.15,0a1.31,1.31,0,0,0,.4-.1h0a43.08,43.08,0,0,1,10.52-2.8c2.51-.38,5.14-.63,7.86-.81v-2.76c-2.88.18-5.65.45-8.27.84a47.46,47.46,0,0,0-10.36,2.65,12,12,0,0,1-.87-1.6,7.46,7.46,0,0,1-.47-1.35l.44-.11,1.67-.41a1.42,1.42,0,0,0,.86-.52,1.35,1.35,0,0,0-.24-1.93s-13.07-10-10.44-24.41A31.07,31.07,0,0,1,1012,438a7.75,7.75,0,0,1,.56,1,2.58,2.58,0,0,1,.19.51v.06a2.27,2.27,0,0,0,.61,1.28,1.2,1.2,0,0,0,.21.17,1.51,1.51,0,0,0,2.27-.5,4.54,4.54,0,0,0,.6-1.23,13.81,13.81,0,0,0,0-7.91c-.28-.84-.87-2.24-1.6-4l-.76-1.83,0-.08v0h0a101.61,101.61,0,0,1-4-11.07,20.92,20.92,0,0,1-1.05-7.29c.2.23.39.45.58.69a34.29,34.29,0,0,1,2.28,3.11,1.4,1.4,0,0,0,2.58-.49c0-.06,3-19.5,2.45-30.4a22.13,22.13,0,0,0-.36-3.15,13.37,13.37,0,0,0-.63-2.21c4.16-27.07-5.79-39.93-9.39-43.6,21.76-18.09,16.58-38.39,16.25-39.57a1.39,1.39,0,0,0-2.73.12c-1.15,8-12,13.13-13.59,13.86-4,.29-6.39.28-8.41-.6s-4.15-2.88-7.59-6.5c-7.15-7.51-24.48-12.42-25.75-12.77a1.39,1.39,0,0,0-1.49.41,1.37,1.37,0,0,0,.15,1.94s.87.59.87,4.51c0,2.95-3.5,8.42-5.5,11.31-7.48-13.21-35.23-19.5-35.32-19.51h0a1.38,1.38,0,0,0-.67,2.67c2.52.66,2.4,10.92,2.37,12.21-2.49,11.4-10.11,2.26-10.13,2.23h0l-.1-.1c-6.42-6.17-14.46-7.74-21.25-7.63-1.33,0-2.59.11-3.77.23s-2.3.3-3.35.49h-.07c-6.09,1.11-8.43-.46-8.72-.68l0,0h0a1.34,1.34,0,0,0-.52-.26,1.39,1.39,0,0,0-1.69,1,6.81,6.81,0,0,0,1.08,6.16,8.52,8.52,0,0,1,1.27,6.41c-.66,4.87-6.13,9.26-9.75,11.35a18.75,18.75,0,0,1-1.81.93,5.08,5.08,0,0,1-.64.24h0c-.85,0-1.88,0-3.87.13s-4.76.37-9.21.86a100.32,100.32,0,0,0-17.88,3.95l-20.18,3.13a13.68,13.68,0,0,0,.12-9.4,17.25,17.25,0,0,0-5.86-8.25,14.31,14.31,0,0,0-2.58-1.54,15.41,15.41,0,0,0-2.3-.84Zm228.36,89a22.35,22.35,0,0,1,0-17.14v17.14Zm0-32.25c-6.45-8.45-15.25-23.49-12.19-39.91h0v-.08a36.91,36.91,0,0,1,3-9,48,48,0,0,1,5.55-8.88c1.11-1.42,2.33-2.82,3.63-4.2v4.14c-.49.58-1,1.16-1.43,1.75a45.75,45.75,0,0,0-5.24,8.37,34.28,34.28,0,0,0-2.78,8.33v0h0c-2.55,13.66,3.72,26.4,9.46,34.72ZM803.88,589.9a94.43,94.43,0,0,1-7.8-29.54v0a76.49,76.49,0,0,1,.25-17.34,79.32,79.32,0,0,1,3.9-16.31,90,90,0,0,1,3.66-8.79v6.93c-.36.91-.7,1.83-1,2.76a77.13,77.13,0,0,0-3.78,15.75,74,74,0,0,0-.23,16.73v0a93.17,93.17,0,0,0,5,22.39v7.42Zm0-148.28c-1,0-2-.07-3-.14a1.38,1.38,0,0,1-.18-2.73l.3-.1.41-.17a12.92,12.92,0,0,0,2.28-1.42l0,0,.14-.12v0l-.14.09.14-.08v4.66Zm0-10.86c-3.06.76-5.84,1.21-5.86,1.21l-.22,0-13.44.74a10.37,10.37,0,0,0-2,.26,6.94,6.94,0,0,0-1.75.77c-1,.58-1.64.39-2.12-.39h0a1,1,0,0,1-.07-.15,1.35,1.35,0,0,1,.3-1.55,15.69,15.69,0,0,1,1.8-2.45c.4-.48.74-.89.79-1h0c.23-.36.45-.74.65-1.13s.41-.81.58-1.21a16.86,16.86,0,0,0,1.41-6.38v0h0a27.21,27.21,0,0,1,.3-3.95,32.43,32.43,0,0,1,.81-3.77c1.73-6.21,5.3-11.54,8.49-12.89.5-.47.93-.78.93-.79a1.38,1.38,0,0,1,1.07-.06h0l8.32,2.85v2.91l-8.43-2.89-.13.14h0a1.39,1.39,0,0,1-.53.33c-2.48.85-5.47,5.54-7,11.16A26.72,26.72,0,0,0,787,416a24,24,0,0,0-.28,3.55h0v0a19.64,19.64,0,0,1-1.63,7.46c-.21.5-.44,1-.67,1.4s-.5.91-.77,1.34h0a3.3,3.3,0,0,1-.22.31l.77-.06,13.44-.74c.51-.09,3.35-.57,6.23-1.32v2.84Zm0-64.47c-.8-.49-1.64-1-2.49-1.62-1.39-1-2.85-2.1-4.28-3.33h0c-7.27-6.27-14-15.45-11.63-23.76-3.82-4.1-5.46-8.59-5.39-12.84A16.85,16.85,0,0,1,785.29,313h0l.14-.13h0l.1-.09a22.83,22.83,0,0,1,2.54-2.08,22.5,22.5,0,0,1,2.82-1.68l.08,0a18.43,18.43,0,0,1,12.91-1.43v2.89a15.45,15.45,0,0,0-11.68,1l-.07,0a19.38,19.38,0,0,0-2.46,1.45,18.54,18.54,0,0,0-2.21,1.82l-.05.06h0l-.14.14a14.16,14.16,0,0,0-4.38,9.82c-.06,3.72,1.47,7.7,5.06,11.35l.07.07a1.37,1.37,0,0,1,.37,1.49c-2.59,7.18,3.76,15.69,10.57,21.57h0c1.35,1.16,2.73,2.23,4.06,3.16l.89.6Z"/><path class="cls-5" d="M1060.82,756.62s9.85,2.08,19.21-8.68c0,0,2.64,5.83,6.41,8,2.92,1.69,9.14,1.29,12,0,2.43-1.14,4.81-3.54,7-8.46,0,0,1.51,8.51,8.52,9.8s13.36,0,16.53-8.51c6.53,7.76,13.91,7.84,23.38,7.38a39,39,0,0,0,3.23-7.73c2.55-8.44.72-11.77-1.56-19.41-2.15-7.17-3.51-18.23,4-25.06,12.09-11,21.21-24.89,15.87-30.67-5.44,8.72-17.3,4.75-22.28-2.7-5.75-8.61,1.69-17.24,9.3-24.79l-.07,0h0c-1.57-1-3.15-2-4.72-3.11l-.07-.05-.81-.57-.06,0-.62-.45h0l-.12-.09-.05,0c-.78-.57-1.55-1.15-2.31-1.73l0,0-.4-.3-.18-.14h0l0,0-.27-.21-.11-.08-.19-.15h0l-.58-.46,0,0-.17-.13-.14-.11-.06-.05,0,0-.34-.28h0l-.16-.12,0,0-.25-.2-.13-.11-.17-.13,0,0-.19-.15-.09-.07-.1-.09-.19-.15c-11.16-9.1-20.32-23.37-32.29-30.62a48.4,48.4,0,0,0-12.77-5.34,110.7,110.7,0,0,0-28.77-3.74c0,.13,0,.26,0,.39h0a53.68,53.68,0,0,0,1.21,18.64c3.52,15.07,16,29.41,26.37,42.6,6.4,8.13,9.92,14.58,10.6,23.64.45,6-.92,10-.89,16.27,0,5.52,1.47,13.28,1.47,18.55a13.06,13.06,0,0,1-6.66,11.9c-11.72,7.15-26.18-.81-37.43,7.06C1061.32,742.32,1060.82,756.62,1060.82,756.62Z"/><path class="cls-4" d="M1151.6,754.85l1.4-.06a39.79,39.79,0,0,0,2.74-6.79c2.09-6.94,1-10.27-.7-15.83-.26-.82-.54-1.69-.87-2.79v0h0v0c-.3-1-.6-2.14-.84-3.27V726c-.26-1.16-.47-2.37-.62-3.61-.81-6.63.08-14.17,5.91-19.46l0,0h0l0,0c1.62-1.47,3.21-3,4.73-4.61s2.95-3.22,4.26-4.84c5.62-6.94,9.06-13.72,7.64-17.69a11.23,11.23,0,0,1-2.35,2,11.67,11.67,0,0,1-7.53,1.79,17.32,17.32,0,0,1-7.5-2.57,19.42,19.42,0,0,1-6-5.66l-.35-.55V657c2-3.82,5.2-7.49,8.6-10.94-1.08-.69-2.22-1.46-3.39-2.28h0l-.08,0h0l-.81-.57-.06-.05h0l-.61-.44-.08-.06-.07,0h0l0,0h0l-.33-.24-.33-.24h0l-1.67-1.26,0,0h0l-.4-.3h0l-.18-.14-.48.61v0l.46-.59h0l0,0,0,0-.2-.15-.1-.08h0l-.06-.05v-3.52l.09.06.15.12h0l.35.28,0,0,.06,0,.13.11h0l.13.11,0,0,0,0,.5.4.09.06.19.15h0l.1.08.2.15.08.06h0l0,0,.18.14h0l.39.3h0l0,0c.44.34,1,.75,1.63,1.23h0l.32.24.33.24h0l0,0,.06.05.06,0,.62.44,0,0,.81.58h0l.07,0h0c1.06.75,2.18,1.49,3.34,2.24h0l.57.36.08,0,.65.41h0a1.22,1.22,0,0,1,.32.24,1.36,1.36,0,0,1,0,1.94c-3.73,3.69-7.4,7.63-9.4,11.63-1.88,3.76-2.27,7.62.27,11.43a16.5,16.5,0,0,0,5.1,4.84,14.61,14.61,0,0,0,6.27,2.16,9,9,0,0,0,5.77-1.33,9.45,9.45,0,0,0,2.78-2.9,1.15,1.15,0,0,1,.26-.33,1.4,1.4,0,0,1,2,.09c4.41,4.77.68,13.82-6.6,22.8-1.35,1.67-2.83,3.35-4.4,5s-3.16,3.2-4.87,4.76l-.11.09h0c-5,4.53-5.71,11.18-5,17.07.15,1.16.35,2.29.58,3.37v.05c.24,1.1.51,2.13.79,3.07l0,.06v0h0c.27.88.57,1.83.85,2.73,1.91,6.07,3,9.69.72,17.44a40.48,40.48,0,0,1-3.35,8h0a1.4,1.4,0,0,1-1.15.71l-2.31.1v-2.76Zm0-118.48ZM1119,756.29a11.71,11.71,0,0,0,4.13-.87c2.51-1.08,4.63-3.29,6.07-7.15a1.39,1.39,0,0,1,1.78-.82,1.37,1.37,0,0,1,.66.49,17.85,17.85,0,0,0,9.77,6.25,38.12,38.12,0,0,0,10.23.66v2.76a39.94,39.94,0,0,1-10.88-.75,20.09,20.09,0,0,1-9.83-5.6,13.31,13.31,0,0,1-6.7,6.68,14.65,14.65,0,0,1-5.23,1.11v-2.76Zm32.64-85.52c-2.81-4.61-2.31-9.19-.1-13.61l.1-.2v13.81Zm0-29.9v0L1119,682.71v0l32.64-41.87Zm0-4.5v3.52l-.13-.11-.1-.07-.49-.39,0,0,0,0-.14-.11h0l-.13-.11-.06,0,0,0-.35-.28h0l-.15-.12-.07-.06h0l-.21-.18h0l-.12-.1-.07-.06-.1-.07,0,0-.18-.14h0l-.08-.06h0l-.11-.09-.07-.06-.11-.09,0,0h0l0,0a134.36,134.36,0,0,1-13.47-13.43c-5.21-5.69-10.43-11.4-16.23-15.48v-3.32c6.7,4.29,12.5,10.63,18.28,17a134.06,134.06,0,0,0,13.19,13.15l.12.09h0l.08.06.08.06.1.09h0l.08.06h0l.16.14,0,0,.1.08.07.06.13.1h0l.2.17Zm0,0h0Zm-89.3,119c2.75.13,9.78-.43,16.67-8.36a1.4,1.4,0,0,1,2-.14,1.39,1.39,0,0,1,.39.57c.37.77,2.71,5.5,5.81,7.3h0a5.37,5.37,0,0,0,1.11.47,11,11,0,0,0,1.48.31,16.58,16.58,0,0,0,8.07-.88h0a9.31,9.31,0,0,0,3.13-2.46,21.12,21.12,0,0,0,3.2-5.3,1.39,1.39,0,0,1,2.64.29h0v0c.12.59,1.59,7.6,7.4,8.67a21.43,21.43,0,0,0,4.78.38v2.76a24.61,24.61,0,0,1-5.28-.44c-4.82-.88-7.33-4.66-8.56-7.52a19.68,19.68,0,0,1-2.06,2.91,12.39,12.39,0,0,1-4,3.17h0a19.63,19.63,0,0,1-9.65,1.12,14.06,14.06,0,0,1-1.89-.41,8.51,8.51,0,0,1-1.7-.71l0,0h0c-2.73-1.58-4.87-4.79-6-6.82-9.47,9.68-19.14,7.64-19.17,7.63h0a1.38,1.38,0,0,1-1.11-1.39s.53-15,10.28-21.8c6.12-4.28,13-4.16,19.81-4,6.14.11,12.31.22,17.69-3.06a12,12,0,0,0,5.22-6,13,13,0,0,0,.77-4.73,88.19,88.19,0,0,0-.71-9c-.33-3-.67-6-.74-8.73,0-.26,0-.52,0-.8a62,62,0,0,1,.52-7.58,43.33,43.33,0,0,0,.37-8.58h0a32.22,32.22,0,0,0-3-11.69,58.8,58.8,0,0,0-7.27-11.21l-3.49-4.39c-9.61-12.07-19.94-25-23.15-38.73v0a58.7,58.7,0,0,1-1.5-10.44,50.82,50.82,0,0,1,.25-8.54v-.05h0v0a1,1,0,0,1,0-.24,1.39,1.39,0,0,1,1.4-1.38,114.58,114.58,0,0,1,14.46.91,110.33,110.33,0,0,1,14.66,2.88,54.73,54.73,0,0,1,6.76,2.27,47.79,47.79,0,0,1,6.39,3.22l.89.56v3.32c-.77-.53-1.55-1-2.34-1.52a43.26,43.26,0,0,0-6-3,51.34,51.34,0,0,0-6.41-2.16,107.74,107.74,0,0,0-14.3-2.81,109.75,109.75,0,0,0-12.78-.88,48.82,48.82,0,0,0-.17,7.37,57.15,57.15,0,0,0,1.44,10h0c3.07,13.11,13.19,25.82,22.61,37.65,1.25,1.56,2.49,3.12,3.5,4.4a61.36,61.36,0,0,1,7.61,11.75,34.94,34.94,0,0,1,3.28,12.64h0a45.86,45.86,0,0,1-.38,9.09,58.94,58.94,0,0,0-.51,7.27c0,.23,0,.48,0,.74.06,2.52.4,5.53.73,8.51a91.19,91.19,0,0,1,.73,9.31,15.37,15.37,0,0,1-1,5.7,14.67,14.67,0,0,1-6.36,7.37c-6.07,3.7-12.65,3.58-19.19,3.47s-12.78-.23-18.17,3.54c-7,4.92-8.65,14.86-9,18.38L1119,682.71v0Z"/><path class="cls-5" d="M794.66,400c-4.46-4.09-10.14-10.13-9.51-13.94.7-4.27,2-5.76,6.24-4.79,10.55,2.45,19.54,10,29.48,14.11,7.94,3.25,18.35,5.7,29.6,7.33A126.21,126.21,0,0,0,867.56,404a135.52,135.52,0,0,1,8,12.91c4.08,7.51-6.47,5.88-6.47,5.88a49.24,49.24,0,0,0-9.72-1.47l-13.2-4.52,3.19-5.44c-7,1.29-17-.23-26.51-2.54C813.22,405.93,797.21,400.24,794.66,400Z"/><path class="cls-4" d="M830.68,397.28a160.48,160.48,0,0,0,20,4.1c2.94.42,5.84.72,8.67.92s5.62.3,8.24.32a1.4,1.4,0,0,1,1.13.6h0c1.38,2,2.72,4,4,6.15s2.66,4.44,4,6.89c5.41,9.95-7.86,7.9-7.9,7.89l-.15,0h0c-.44-.12-.86-.22-1.26-.31s-.85-.19-1.28-.27a54.37,54.37,0,0,0-6.87-.83,2,2,0,0,1-.49-.12l-13.07-4.48a1.37,1.37,0,0,1-.86-1.75,2.56,2.56,0,0,1,.11-.24h0l1.77-3a52.55,52.55,0,0,1-9.84-.28c-2-.22-4.08-.53-6.17-.91v-2.8c2.19.4,4.37.74,6.47,1A42.27,42.27,0,0,0,849,410a1.4,1.4,0,0,1,1,.16,1.36,1.36,0,0,1,.5,1.88l-2.34,4L859.58,420a57.1,57.1,0,0,1,7,.86l1.38.29c.48.11.93.22,1.35.34h0c.92.12,7.49.84,4.92-3.89-1.32-2.42-2.61-4.65-3.91-6.75-1.17-1.9-2.35-3.7-3.55-5.44-2.52,0-5.09-.14-7.69-.32-2.88-.2-5.85-.51-8.86-.94a164.75,164.75,0,0,1-19.59-4Zm-37,3.67c-.65-.59-1.29-1.2-1.89-1.78s-1.35-1.34-2-2c-3.51-3.74-6.51-8-6-11.28.4-2.45,1-4.16,2.29-5.19s3.08-1.3,5.64-.71c6.51,1.51,12.36,4.86,18.18,8.21a99.1,99.1,0,0,0,11.51,6l.07,0c1,.43,2.17.86,3.35,1.27s2.44.83,3.69,1.21c.71.22,1.43.43,2.17.64v2.86c-1-.28-2-.57-3-.87-1.33-.4-2.6-.82-3.8-1.24s-2.35-.86-3.49-1.33l-.07,0a102.94,102.94,0,0,1-11.83-6.13c-5.64-3.24-11.31-6.49-17.42-7.9-1.64-.38-2.65-.34-3.23.14s-1,1.71-1.33,3.52c-.37,2.22,2.24,5.73,5.27,9,.63.67,1.27,1.32,1.9,1.94l1.59,1.52c2.25.42,8.25,2.39,14.72,4.53,4.51,1.48,9.26,3.05,13.06,4.2l.1,0c2.49.6,5,1.15,7.52,1.61v2.8c-2.72-.49-5.48-1.08-8.2-1.75l-.15,0-.07,0c-3.79-1.14-8.58-2.72-13.14-4.23-6.85-2.26-13.18-4.34-14.56-4.46A1.32,1.32,0,0,1,793.63,401Z"/><path class="cls-5" d="M746.15,525.62l56.54,57.64c7,19.25,20.08,34.93,36.62,47.37-14,14.88-31.9,30-48.08,16.53-4.6-4.72-32.39-40.11-32.39-12.49,0,0-12.41-5.52-7.87-29.64,0,0,5.45-14.15-9.8-19.81,2.65-2.45,6.83-6.54,6.85-9.63a6.48,6.48,0,0,0-.66-2.86l-14.51,7.16a5.49,5.49,0,0,0-2.64-1.81l-4.17-1.3a8,8,0,0,0,7.14-5.15c1.22-2.86-.68-5.49-3.2-6.29l-6-1.88c4,.93,7.59-1.71,9.17-5.43,1.38-3.23-.76-6.19-3.61-7.09l-4.77-1.51a5.88,5.88,0,0,0,5.38-.42,8.48,8.48,0,0,0,3.77-4.33c1.27-3-.7-5.71-3.33-6.54l-7-2.25v-5.84C731.93,529.59,739.93,528.11,746.15,525.62Z"/><path class="cls-4" d="M781.12,559.3l22.56,23a1.42,1.42,0,0,1,.32.5h0v0q1.46,4,3.24,7.72c1.19,2.51,2.5,5,3.91,7.34,7.25,12.28,17.22,22.78,29,31.63a1.35,1.35,0,0,1,.26,1.92.48.48,0,0,1-.09.11h0c-7.09,7.54-15.19,15.14-23.63,19.18-8.73,4.18-17.76,4.61-26.37-2.53l-.09-.08h0l-.09-.1c-.61-.63-1.46-1.61-2.54-2.83-1.71-1.94-4-4.53-6.49-7.19v-4c3.36,3.39,6.42,6.87,8.59,9.33,1.08,1.24,1.94,2.22,2.44,2.74l0,0c7.57,6.24,15.57,5.84,23.32,2.12s15.12-10.51,21.76-17.47a111.85,111.85,0,0,1-28.49-31.5c-1.45-2.45-2.79-5-4-7.57s-2.28-5.09-3.25-7.72l-20.36-20.76Zm-33.9-34.56,33.9,34.56v4l-35.32-36a68.35,68.35,0,0,1-15.09,3.54c-1.14.15-2.29.28-3.46.38l-2.26.18v3.55l6.08,1.94.58.21A6.91,6.91,0,0,1,735,540h0a5.75,5.75,0,0,1,.46,4.68h0a5.2,5.2,0,0,1-.21.55,10.3,10.3,0,0,1-3,4.07h0a7.63,7.63,0,0,1-.69.51l-.46.28a7.31,7.31,0,0,1,3.11,2.92h0a6.16,6.16,0,0,1,.51,4.9l0,.08c-.07.2-.15.41-.23.6h0a11.07,11.07,0,0,1-4.57,5.3l.49.16a4.62,4.62,0,0,1,.58.21h0a6.68,6.68,0,0,1,3.24,2.85,5.62,5.62,0,0,1,.47,4.47l0,.07a5.21,5.21,0,0,1-.2.54,9.65,9.65,0,0,1-3.82,4.6,6.81,6.81,0,0,1,2.51,1.43l13.57-6.7a1.39,1.39,0,0,1,1.84.55,7.86,7.86,0,0,1,.85,3.54c0,1.91-1.19,4-2.74,5.91a39.37,39.37,0,0,1-3,3.27c13.28,6.23,9.18,19.14,8.67,20.6-3.16,16.91,2.16,24.11,5.21,26.74.49-6.7,3-9.26,6.57-9.26h0c4.75,0,11.33,5.48,17,11.2v4c-5.71-6-12.66-12.41-17-12.41h0c-2.32,0-3.87,2.45-3.87,9.06a1.38,1.38,0,0,1-1.39,1.38,1.51,1.51,0,0,1-.64-.15c-.71-.34-13.21-6.63-8.6-31.12a.88.88,0,0,1,.07-.23h0v0c.29-.79,4.51-13-9-18a1.37,1.37,0,0,1-.82-1.77,1.39,1.39,0,0,1,.41-.57,43.48,43.48,0,0,0,4.21-4.38c1.21-1.51,2.13-3,2.14-4.21a5.05,5.05,0,0,0-.08-.91l-13.08,6.46a1.4,1.4,0,0,1-1.77-.46l-.17-.19h0a2.08,2.08,0,0,0-.21-.21,4.21,4.21,0,0,0-1.5-.85h0l-4.16-1.3a1.36,1.36,0,0,1-.91-1.73,1.38,1.38,0,0,1,1.3-1,7.16,7.16,0,0,0,3.11-.94,7,7,0,0,0,2.77-3.36c0-.1.08-.2.12-.32l0,0a2.93,2.93,0,0,0-.25-2.32,3.79,3.79,0,0,0-1.89-1.63h0l-.34-.13-5.95-1.88a1.38,1.38,0,0,1-.91-1.73,1.41,1.41,0,0,1,1.64-.93h0a6.32,6.32,0,0,0,1.34.15,5.22,5.22,0,0,0,1.25-.15,7.63,7.63,0,0,0,5-4.62h0a3.31,3.31,0,0,0,.14-.36l0,0a3.48,3.48,0,0,0-.29-2.76h0a4.55,4.55,0,0,0-2.22-1.92,3.25,3.25,0,0,0-.4-.15l-4.77-1.51.84-2.62a6.23,6.23,0,0,0,2.2.38h0a5,5,0,0,0,2.09-.7h0c.16-.09.33-.19.49-.3a5.92,5.92,0,0,0,.48-.35h0a7.55,7.55,0,0,0,2.18-3,2.08,2.08,0,0,0,.12-.32h0a3.09,3.09,0,0,0-.23-2.51h0a4.14,4.14,0,0,0-2-1.73,3,3,0,0,0-.36-.13l-7.05-2.25a1.39,1.39,0,0,1-1-1.31h0v-5.84a1.38,1.38,0,0,1,1.39-1.38h0c1.18-.07,2.32-.15,3.4-.25s2.25-.22,3.36-.37a63.07,63.07,0,0,0,15.26-3.71A1.41,1.41,0,0,1,747.22,524.74Z"/><path class="cls-5" d="M723.59,530.05v5.84l-10.78-3.43a19.21,19.21,0,0,0-4.82-.91v-1.82A104,104,0,0,0,723.59,530.05Z"/><path class="cls-4" d="M725,530.05v5.84a1.39,1.39,0,0,1-1.4,1.38,1.25,1.25,0,0,1-.51-.1l-.44-.14v-.13a1.34,1.34,0,0,0,.44.27l-.44-.64v-7.81l.88-.05A1.39,1.39,0,0,1,725,530v.08Zm-2.35,7-4.33-1.38v-2.89L722.2,534v-2.51c-1.29.06-2.59.09-3.89.09v-2.75c1.44,0,2.89-.05,4.33-.11v7.81l-.44-.64a1.37,1.37,0,0,0,.44,1Zm-4.33-1.38-5.91-1.88h0l-.06,0-.11,0-.55-.15-.65-.17a17.66,17.66,0,0,0-3.1-.47,1.39,1.39,0,0,1-1.32-1.37h0v-1.82a1.38,1.38,0,0,1,1.39-1.38,1.1,1.1,0,0,1,.26,0h0l2.11.18,2.14.14c1.91.1,3.84.14,5.78.14v2.75c-1.3,0-2.6,0-3.89-.06l3.89,1.24Z"/><path class="cls-5" d="M697.54,509.05s8.72-4.19,5.32-12.16c-2-4.73-9.35-5.84-15.63-3.79-10.42,3.4-13.58,16.22-8.1,24.92,10.23,16.25,67.3,16.25,77.53,0a17.72,17.72,0,0,0,2.42-12.23c-1.25-7.69-7.4-13.08-15.32-13.62-4.81-.33-9.31,1.18-10.82,4.72-3.41,8,5.31,12.16,5.31,12.16C731.92,518.5,704,518.66,697.54,509.05Z"/><path class="cls-4" d="M717.9,528.83a100.79,100.79,0,0,0,10.76-.57,80.19,80.19,0,0,0,10-1.72c7.87-1.92,14.14-5,16.81-9.24l0,0a14,14,0,0,0,.8-1.46,15.08,15.08,0,0,0,.65-1.52,16.51,16.51,0,0,0,.76-8.29h0V506a14.83,14.83,0,0,0-2-5.36,15.07,15.07,0,0,0-12.07-7.06h0c-.63,0-1.25-.05-1.84,0a16.26,16.26,0,0,0-1.74.18c-2.72.45-4.94,1.68-5.82,3.74-2.9,6.76,4.64,10.39,4.66,10.4a1.37,1.37,0,0,1,.61,1.85l-.08.13h0a12.32,12.32,0,0,1-3.57,3.42c-4.37,2.87-11.15,4.33-17.9,4.34h0v-2.75h0c6.24,0,12.45-1.32,16.36-3.89a11,11,0,0,0,1.87-1.52c-2.59-1.74-7.47-6.14-4.51-13.05,1.29-3,4.31-4.79,7.93-5.39a17.27,17.27,0,0,1,2.07-.21,19.07,19.07,0,0,1,2.14,0h.05a17.81,17.81,0,0,1,14.27,8.39,16.73,16.73,0,0,1,1.45,3,18.1,18.1,0,0,1,.88,3.33v.05h0a19.32,19.32,0,0,1-.89,9.66,18.77,18.77,0,0,1-.75,1.79c-.29.59-.61,1.16-.95,1.72h0v0c-3.09,4.9-10,8.38-18.52,10.46A81,81,0,0,1,729,531a103.16,103.16,0,0,1-11.07.58ZM697,507.78c.84-.44,7.29-4,4.58-10.35h0a5,5,0,0,0-.89-1.39,6.18,6.18,0,0,0-1.36-1.1c-2.9-1.76-7.5-1.87-11.65-.52a13.81,13.81,0,0,0-9,9.3,16.55,16.55,0,0,0,.08,10.18,15.59,15.59,0,0,0,1.6,3.41c4.84,7.69,21.18,11.53,37.59,11.53h0v2.75h0c-17.25,0-34.56-4.27-39.95-12.83a18.26,18.26,0,0,1-1.89-4,19.38,19.38,0,0,1-.09-11.86,16.63,16.63,0,0,1,10.82-11.1c4.88-1.59,10.39-1.38,14,.79a8.78,8.78,0,0,1,2,1.61,7.52,7.52,0,0,1,1.4,2.15h0c3,6.92-1.93,11.31-4.52,13.05a11,11,0,0,0,1.91,1.56c3.93,2.59,10.14,3.86,16.37,3.85v2.75c-6.74,0-13.51-1.41-17.9-4.3a12.51,12.51,0,0,1-3.62-3.46,1.37,1.37,0,0,1,.4-1.91A.94.94,0,0,1,697,507.78Z"/><path class="cls-5" d="M760.92,242.86s-16.37,20.95-19.1,112.62c-1.71,57.48-2.87,107.71-3.5,137.18a7.84,7.84,0,0,0-5.38,4.23c-2.71,6.34,2.25,10.28,4.4,11.64h0c.25.16.46.28.62.37h0v.54a8.7,8.7,0,0,1-.69.81h0l-.38.38h0l-.34.3-.1.09-.3.25-.15.12-.32.24-.15.11-.38.26-.11.07-.37.24-.17.1-.44.25-.07,0-.53.29h0l-.52.26-.07,0-.46.2-.18.09-.45.18-.15.07-.51.19-.13.05-.52.18-.14.05-.46.15-.26.08-.42.13-.25.07-.47.13-.24.06-.53.14-.14,0-.54.12-.24,0-.54.11-.14,0-.59.11-.19,0-.54.08-.22,0-.48.07-.36.05-.46.06-.23,0-.54.06-.3,0-.51,0h-.21l-.55,0-.29,0-.52,0h-.23l-.56,0h-2.65l-.52,0h-.28l-.54,0h-.21l-.55,0-.32,0-.48,0-.23,0-.54-.06-.31,0-.48-.06-.22,0-.52-.07-.38-.06-.35,0-.39-.07-.38-.07-.35-.07-.41-.08-.28-.06-.44-.1-.39-.09-.31-.08-.39-.1-.33-.09-.33-.09-.39-.12-.25-.07-.41-.13-.34-.12-.34-.12-.24-.09-.4-.15-.27-.11-.37-.15-.24-.11-.35-.16-.32-.15-.28-.13-.32-.17-.24-.13-.37-.21-.18-.1-.29-.18-.25-.15-.24-.17-.27-.18-.27-.2-.2-.14-.31-.26-.15-.12-.28-.25-.15-.13-.31-.31-.09-.09-.29-.31-.08-.1-.18-.21c-.17-.22-.34-.43-.49-.66h0l0,0a10.59,10.59,0,0,0,2.67-1.85c2.22-1.95,4.67-5.41,2.59-10.28a7.39,7.39,0,0,0-4.24-3.84l-.11,0-.32-.12.66-106.48S698.17,274.94,760.92,242.86Z"/><path class="cls-4" d="M762,243.68c0,.06-16.12,20.61-18.83,111.84-.86,28.76-1.58,55.68-2.16,79.09s-1,43.36-1.34,58.08a1.39,1.39,0,0,1-1,1.3h0a9.27,9.27,0,0,0-.89.3,6.3,6.3,0,0,0-.82.36,5.85,5.85,0,0,0-2.49,2.24v-3.95a10,10,0,0,1,1.23-.74,9.06,9.06,0,0,1,1.07-.48l.16-.06c.31-14.65.75-34.23,1.32-57.12.59-23.44,1.31-50.38,2.16-79.1,2.08-70,12.15-99,16.89-109a83.77,83.77,0,0,0-22.83,20.45v-4.37a83.35,83.35,0,0,1,25.79-20.89,1.39,1.39,0,0,1,1.87.59,1.36,1.36,0,0,1-.11,1.44ZM734.49,503.84l0,0a11.3,11.3,0,0,0,3.57,3.48h0l.29.18.09.05.13.08h0a1.41,1.41,0,0,1,.73,1.34v.44a1.35,1.35,0,0,1-.29.81c-.11.15-.23.3-.37.46h0l-.39.43h0l-.08.09-.14.13,0,0h0l-.18.17,0,0-.1.09-.1.09,0,0h0l-.18.15-.07.06,0,0h0l-.31.26h0l-.15.12,0,0h0l-.16.12,0,0-.14.1-.14.11-.08,0-.14.11h0l-.19.12h0l-.12.08-.09.06-.33.21-.16.1h0l-.22.13-.06,0-.18.1-.08,0,0,0-.12.07v0l.12,0-.12,0v-3.2l0,0,.13-.09,0,0,.15-.1.12-.09,0,0,.16-.12.11-.09,0,0,.23-.19h0l.08-.08.17-.15h0l.08-.07,0,0h0l.19-.19h0l.06-.06a13.67,13.67,0,0,1-1.68-1.31Zm0-6.95a3.4,3.4,0,0,0-.27.54,6.74,6.74,0,0,0,.27,6.41v4.26a12.64,12.64,0,0,1-2.37-2.82,9.35,9.35,0,0,1-.46-8.92,7.93,7.93,0,0,1,2.83-3.42v3.95Zm0,17.14-.11.05h0l-.26.14-.05,0h0l-.26.13h0l-.27.13-.07,0h0l0,0-.07,0h0l-.33.14-.09,0-.1,0h0l-.22.1,0,0-.19.07-.16.07h0l-.26.1h0l-.24.09-.06,0-.07,0h0l-.07,0-.06,0h0l-.37.13-.09,0-.06,0h0l-.23.07h0l-.23.07,0,0-.22.06h0l-.42.13-.08,0-.18.05-.08,0-.41.12h0l-.24.06-.08,0h0v-2.84l0,0,.17-.05.08,0,.42-.13h0l.16,0,.07,0,.23-.07h0l.22-.07h0l.09,0,.36-.13.06,0,.07,0h0l.07,0,.2-.07,0,0,.25-.1h0l.15-.06.15-.06,0,0,.22-.09h0l.06,0,.09,0,.32-.15h0l0,0h0l0,0h0l0,0,.24-.12h0l.26-.13h0l.27-.14h0l.19-.1,0,0,.08-.05.15-.08.05,0,.2-.12.15-.09.29-.18,0,0,.12-.08h0l.13-.08V514l-.13,0,.13,0v0Zm-6-243.6q2.85-4.1,6-7.9v4.37c-2.15,2.72-4.15,5.56-6,8.5Zm0,245.87-.18.05h0l-.27.06-.13,0h0l-.54.12-.07,0-.18,0h0l-.54.11h0l-.15,0h-.06l-.12,0h0V514l.32-.06h0l.14,0,.07,0,.54-.12h0l.12,0,.27-.07h0l.16,0,.08,0,.24-.06h0l.36-.1h0v2.84Zm-2.31-242.39q1.13-1.76,2.31-3.48v5q-1.19,1.86-2.31,3.76Zm0,242.91-.12,0H726l-.24,0h0l-.18,0-.09,0-.2,0h0l-.13,0h0l.13,0h-.13v-2.78l.14,0h0l.21,0h.08l.2,0,.08,0,.15,0h0l.2,0v2.79h0Zm-1.06-241.24,1.06-1.67v5.25c-.36.6-.71,1.21-1.06,1.82Zm0,241.42-.12,0h0l-.2,0h0l-.48.07h-.08l-.3,0h-.05l-.41,0h0l-.23,0h-.06l-.25,0v0h.25l-.25,0v-2.72l.22,0h0l.38,0h0l.27,0h.07l.48-.07h0l.15,0h.06l.21,0h0l.18,0h.12V517h0Zm-2.24-237.64c.73-1.27,1.47-2.54,2.24-3.78V281q-1.16,2-2.24,4.11Zm0,237.94-.24,0h0l-.28,0h0l-.48,0h0l-.21,0h0l-.26,0h0l-.26,0h0l-.28,0h0l-.52,0h-.26l-.56,0H719l-.5,0h-2.77l-.53,0H715l-.54,0h0l-.32,0h0l-.48,0-.11,0h-.14l-.54-.06h0l-.3,0h0l-.48-.06h-.09l-.15,0h0l-.52-.08h-.07l-.33-.05h0l-.35-.06h0l-.39-.06-.09,0-.29,0h0l-.35-.07-.1,0-.33-.06h0l-.28-.06-.09,0-.35-.07h0l-.4-.09h0l-.3-.08h0l-.39-.11h0l-.34-.08-.1,0-.26-.07h0l-.39-.12h0l-.25-.08-.43-.14,0,0-.31-.1h0l-.34-.12-.08,0-.17-.07h-.08l-.37-.13h0l-.27-.11,0,0h0l-.33-.14-.08,0-.17-.08h0l-.06,0h0l-.31-.14,0,0h0l-.24-.11h0l-.07,0-.09,0-.19-.09h0l-.34-.19h0l-.24-.13-.08,0h0l-.29-.16-.06,0-.16-.09-.06,0-.18-.11h0l-.08,0h0l-.05,0h0l-.18-.11,0,0h0l-.15-.11h0l-.06-.05h0l-.26-.18h0l-.25-.18,0,0h0l-.08-.05-.07-.06-.05,0,0,0h0l-.33-.26h0l0,0h0l0,0-.09-.07-.07-.06-.2-.17,0-.05h0l-.15-.14a.57.57,0,0,1-.11-.11c-.12-.12-.19-.18-.25-.25h0l-.08-.08,0,0h0l-.15-.15,0-.06-.12-.12v0l-.06-.07,0,0h0l-.14-.17h0l0-.07,0-.05h0l-.24-.3,0-.08-.23-.32a1.37,1.37,0,0,1,.4-1.91l.19-.11h0l.36-.18.36-.2a9.65,9.65,0,0,0,1.6-1.22l0,0h0a8.81,8.81,0,0,0,2.52-3.48,6.9,6.9,0,0,0-.29-5.23h0a5.85,5.85,0,0,0-.29-.56,4.3,4.3,0,0,0-.35-.52,6.73,6.73,0,0,0-2.84-2l-.11-.05,0,0-.06,0h0l-.16-.06a1.35,1.35,0,0,1-.91-1.33l.65-106.44h0c0-.24-.38-62,25.38-107v5.73c-22.94,43.86-22.6,101.09-22.6,101.32h0L699.59,492a9.16,9.16,0,0,1,3.55,2.7,8.19,8.19,0,0,1,.55.81,6.57,6.57,0,0,1,.44.88h0a9.5,9.5,0,0,1,.34,7.24,11.53,11.53,0,0,1-3.28,4.6h0a11.27,11.27,0,0,1-1.56,1.23l0,0,.2.21,0,0,.16.14h0l.07.06a1.14,1.14,0,0,0,.16.14h0l.06.05.08.06,0,0,.26.22h0l.1.07.07,0h0l.06.05.19.14.19.13,0,0h0l.06,0,.16.1h0l.14.09h0l0,0,.05,0,.08,0h0l.13.09,0,0,.13.07.09.05.25.14,0,0,.23.13h0l.31.16h0l.15.07.11.05.07,0h0l.24.11h0l.25.11,0,0h0l.16.07.05,0,.33.13h0l0,0,.26.1h0l.35.12h0l.14.06.08,0,.33.12h0l.26.09.06,0,.39.12.25.08h0l.36.11h0l.22.06.08,0,.33.09h0l.39.1.28.07h0l.39.1h0l.29.06.11,0,.28.06h0l.28,0,.11,0,.35.07h0l.23,0,.12,0,.39.07h0l.33.05h0l.29,0h.06l.52.07h.19l.49.06h0l.3,0h0l.52,0h.2l.48,0h0l.32,0h0l.53,0h.2l.52,0h3.34l.5,0H720l.47,0h0l.23,0h0l.22,0h0l.21,0h.06l.21,0h0l.42,0H722l.25,0h0l.45-.05h.08v2.72l-.25,0a1,1,0,0,0,.25,0v0Zm-2.17.19Z"/><path class="cls-5" d="M708.2,584.69l.22,10.54c.05,2.6-7.25-1.07-9.14-2.13a6.7,6.7,0,0,0-3-1c-5.44-.19-8.93,7.35-4.9,10.81s12.18,4.25,16.74,1c0,0-.57,11.89-9.86,16.22,0,0,20,18.1-.84,33-3.36-10.52-18-7.38-14.17,3,1.58,4.24,6.43,9.49,20.36,11.31,0,0-5.35,8.38-10.7,10.54-2,.81-.33,1.39,2.55,1.81,4.8.68,12.94.89,12.94.89-.76,3.51,3,16.15,7.64,16.17,4.28,0,7.35-12.65,6.59-16.17,0,0,5.21-.13,9.75-.54s8.41-1.08,5.73-2.16c-5.34-2.16-10.69-10.54-10.69-10.54,13.93-1.82,18.78-7.07,20.36-11.31,3.86-10.39-10.82-13.53-14.17-3-20.83-14.87-.84-33-.84-33-9.29-4.33-9.86-16.22-9.86-16.22,6.1-1.49,5.94,2.32,10.94,3.13,9.08,1.48,11.63-14.58-2.67-13.77-2.25.12-4.47.65-6.71.89s-1.85.31-1.81-1.39l.08-3.69Z"/><path class="cls-4" d="M715.53,695.38l.16,0a1.31,1.31,0,0,0,.38.06.79.79,0,0,0,.29-.06c1.27-.44,2.48-2.67,3.41-5.29a27.42,27.42,0,0,0,1.61-8h0a5.53,5.53,0,0,0-.09-1.1,1.37,1.37,0,0,1,1.07-1.63,1.24,1.24,0,0,1,.33,0c.68,0,5.44-.16,9.59-.53,1.31-.11,2.55-.25,3.57-.41-5.08-3.13-9.58-10.16-9.59-10.19a1.36,1.36,0,0,1,.44-1.89,1.21,1.21,0,0,1,.62-.21c6.7-.89,11.18-2.57,14.16-4.53a12.15,12.15,0,0,0,5-5.88c1-2.81.51-4.92-.79-6.19l-.05-.06a5.14,5.14,0,0,0-2-1.16,6.32,6.32,0,0,0-2.65-.2h0a7.41,7.41,0,0,0-6,5.48,1.4,1.4,0,0,1-1.75.9,1.37,1.37,0,0,1-.49-.27c-18.6-13.36-6.49-29.06-2.21-33.68-8.43-5.22-9-16.43-9-16.47a1.39,1.39,0,0,1,1.12-1.43c4.19-1,5.84.14,7.71,1.44a8.24,8.24,0,0,0,3.73,1.68,4.72,4.72,0,0,0,5-2.21,5.87,5.87,0,0,0,.84-2.81,5.48,5.48,0,0,0-.68-2.89c-1.1-1.93-3.61-3.37-8-3.13h-.06a37.45,37.45,0,0,0-3.72.47c-1,.15-1.89.31-2.86.41h0l-.37,0c-1.18.13-1.73.19-2.35-.28l-.06-.05c-.66-.54-.64-1-.59-1.95v-.06c0-.16,0-.35,0-.49l.06-2.65-5.82-1.77v-2.88l7.59,2.31a1.37,1.37,0,0,1,1,1.35l-.08,3.69v0l.27,0h0c.89-.09,1.8-.24,2.7-.39,1.33-.21,2.65-.42,4-.5h.06c5.61-.31,9,1.76,10.54,4.53a8.26,8.26,0,0,1,1,4.34,8.57,8.57,0,0,1-1.25,4.14,7.4,7.4,0,0,1-7.79,3.5,10.67,10.67,0,0,1-4.88-2.15,5.36,5.36,0,0,0-4.32-1.23c.4,3,2.1,10.68,8.92,13.86a1.31,1.31,0,0,1,.43.31,1.36,1.36,0,0,1-.07,1.94c-.05.05-17.78,16.11-.71,29.77a9.84,9.84,0,0,1,7.51-5.59h.05a9.26,9.26,0,0,1,3.83.3,8,8,0,0,1,3.17,1.81l.08.08c2,2,2.92,5.11,1.44,9.1a14.85,14.85,0,0,1-6.08,7.23c-3,1.94-7.17,3.62-13.18,4.63,1.81,2.48,5.35,6.83,8.82,8.23h0a3.22,3.22,0,0,1,1.37.91,1.51,1.51,0,0,1-.15,2.24,3.35,3.35,0,0,1-1.25.69,31.16,31.16,0,0,1-6.11,1c-3.11.28-6.49.43-8.36.5v.08a29.9,29.9,0,0,1-1.76,8.94c-1.18,3.31-2.93,6.23-5.1,7a3.65,3.65,0,0,1-1.23.21,4.71,4.71,0,0,1-.53,0Zm-5.9-108.82.18,8.64h0a2.53,2.53,0,0,1-.13.85.42.42,0,0,0,0,.1,2.33,2.33,0,0,1-2.42,1.36,9.08,9.08,0,0,1-2.54-.5,38,38,0,0,1-6.08-2.72,8.37,8.37,0,0,0-1.23-.57,3.79,3.79,0,0,0-1.12-.23,4.76,4.76,0,0,0-3.73,1.74,5.88,5.88,0,0,0-1,1.71,5.76,5.76,0,0,0-.43,1.88,3.75,3.75,0,0,0,1.25,3h0l.06.06a8.88,8.88,0,0,0,1.57,1h0a12.19,12.19,0,0,0,2,.84h0c3.75,1.21,8.45,1.08,11.35-1a1.41,1.41,0,0,1,1.95.32,1.34,1.34,0,0,1,.25,1c-.06.95-.9,11.41-9,16.4,4.29,4.63,16.43,20.38-2.31,33.75a1.39,1.39,0,0,1-1.94-.31,1.18,1.18,0,0,1-.19-.39h0a7.42,7.42,0,0,0-6-5.48,6.38,6.38,0,0,0-2.66.2,5,5,0,0,0-2.1,1.22h0c-1.29,1.27-1.83,3.38-.78,6.19a12.18,12.18,0,0,0,5,5.88c3,2,7.5,3.66,14.23,4.54a1.38,1.38,0,0,1,1.2,1.54,1.45,1.45,0,0,1-.2.55h0s-4.51,7.06-9.59,10.18l.46.07c4.74.68,12.74.89,12.76.89a1.38,1.38,0,0,1,1.37,1.4l0,.26h0a3.56,3.56,0,0,0-.07.79h0a24.25,24.25,0,0,0,1.91,8.1c1.08,2.64,2.47,4.93,3.91,5.49v2.83a4.89,4.89,0,0,1-.64-.14c-2.42-.72-4.46-3.73-5.85-7.14a27.92,27.92,0,0,1-2.11-8.9c-2.58-.1-8-.34-11.64-.86a13.75,13.75,0,0,1-3.33-.78l-.08,0a2.19,2.19,0,0,1-1-.86h0a1.53,1.53,0,0,1,.17-1.88,3.19,3.19,0,0,1,1.21-.82l.14-.07c3.47-1.4,7-5.75,8.82-8.23-6-1-10.23-2.69-13.18-4.63a14.88,14.88,0,0,1-6.09-7.23c-1.48-4-.58-7.12,1.44-9.1h0a7.88,7.88,0,0,1,3.25-1.89,9.21,9.21,0,0,1,3.82-.3,9.85,9.85,0,0,1,7.57,5.6c16.67-13.34.15-29-.67-29.73a1.47,1.47,0,0,1-.36-.46,1.38,1.38,0,0,1,.67-1.83c6-2.77,8-9,8.71-12.53a18,18,0,0,1-11.29,0h0a15.88,15.88,0,0,1-2.48-1h0a12,12,0,0,1-2-1.36l-.06,0v0h0a6.41,6.41,0,0,1-2.22-5.24,8.12,8.12,0,0,1,.62-2.82,8.9,8.9,0,0,1,1.53-2.48,7.48,7.48,0,0,1,5.93-2.68,6.19,6.19,0,0,1,1.94.38,10.5,10.5,0,0,1,1.67.77,35.32,35.32,0,0,0,5.57,2.5,8,8,0,0,0,1.49.35l-.21-10a1.67,1.67,0,0,1,.06-.44,1.41,1.41,0,0,1,1.74-.91l6.92,2.11v2.88l-5.9-1.8Zm.18,8.65Z"/><path class="cls-5" d="M730.21,578.08c2.53.79,4.42,3.42,3.2,6.29-2.9,6.81-10,4.94-10,4.94l-16.8-5.11s-6.94-2.45-4.4-9.08c1.29-3.37,4.39-4.42,7.51-3.45Z"/><path class="cls-4" d="M730.63,576.76c.16.06.36.13.59.23a6.64,6.64,0,0,1,3.24,2.83,5.62,5.62,0,0,1,.44,4.52h0q-.07.24-.21.57c-3.37,7.91-11.62,5.73-11.65,5.73l-.06,0h0l-5.26-1.6v-2.88l6,1.84c.53.13,6,1.29,8.36-4.14l.12-.33h0a2.94,2.94,0,0,0-.23-2.36,3.81,3.81,0,0,0-1.88-1.63,3,3,0,0,0-.35-.13l-12.07-3.77v-2.89ZM717.72,589l-11.54-3.5-.07,0h0s-8.27-2.91-5.22-10.85h0a7.85,7.85,0,0,1,.78-1.53,6.3,6.3,0,0,1,1-1.25,7.27,7.27,0,0,1,7.42-1.49h0l7.6,2.38v2.89L709.28,573h0a4.58,4.58,0,0,0-4.65.83,4.44,4.44,0,0,0-.62.77,5.41,5.41,0,0,0-.52,1h0c-2,5.32,3.57,7.29,3.58,7.3l10.65,3.23Z"/><path class="cls-5" d="M730,565.34c2.52.8,4.42,3.43,3.2,6.29a8,8,0,0,1-7.14,5.15l-16.34-5.11a6.79,6.79,0,0,0-3.2-.26l-2.65-.83s-7-2.44-4.41-9.08c1.29-3.36,4.4-4.43,7.52-3.45Z"/><path class="cls-4" d="M730.4,564a4.62,4.62,0,0,1,.58.21l.12,0a6.67,6.67,0,0,1,3.12,2.79h0a5.58,5.58,0,0,1,.44,4.54h0a5.21,5.21,0,0,1-.2.54,9.59,9.59,0,0,1-3.9,4.64,9.8,9.8,0,0,1-4.42,1.34,1.24,1.24,0,0,1-.51-.06h0l-9.39-2.93v-2.9l10,3.12a6.53,6.53,0,0,0,5.7-4.28c0-.1.08-.2.12-.32h0a2.9,2.9,0,0,0-.23-2.36h0a3.81,3.81,0,0,0-1.8-1.6l-.09,0-.34-.13-13.33-4.22v-2.88Zm-14.17,11.13-7-2.17-.08,0h0l-.3-.08-.37-.08a5.34,5.34,0,0,0-1.78,0,1.37,1.37,0,0,1-.64,0h0l-2.66-.82-.06,0h0S695.1,569,698.14,561h0v0h0v0a8,8,0,0,1,.75-1.49,6.66,6.66,0,0,1,1-1.25,7.25,7.25,0,0,1,7.42-1.48l8.86,2.81v2.88l-9.69-3.07a4.55,4.55,0,0,0-4.65.83,4.39,4.39,0,0,0-.63.77,4.86,4.86,0,0,0-.51,1h0c-2,5.21,3.35,7.21,3.58,7.29l2.3.72a8.31,8.31,0,0,1,2.38.08l.54.11.46.13h0l.07,0,6.11,1.91Z"/><path class="cls-5" d="M729.59,550.94c2.85.9,5,3.86,3.61,7.09-1.66,3.89-5.47,6.61-9.73,5.27l-16.74-5.23c-2.2-.69-14.59-1.44-11.56-12.12,1.1-3.9,5-4.34,8.47-3.23Z"/><path class="cls-4" d="M734.45,553.43a6.15,6.15,0,0,1,.26,4.53h0c-.07.2-.15.41-.23.6l0,.08v-5.22Zm0,5.21h0Zm-4.44-9c.22.07.43.14.64.23a7.4,7.4,0,0,1,3.58,3.13l0,.07c.07.12.13.25.19.37v5.22h0a12,12,0,0,1-2.07,3.24,8.78,8.78,0,0,1-9.32,2.73l-8.87-2.77V559l9.71,3a6.08,6.08,0,0,0,6.41-1.94,9.2,9.2,0,0,0,.9-1.18,9.71,9.71,0,0,0,.7-1.31l0-.07a3.31,3.31,0,0,0,.14-.36h0a3.48,3.48,0,0,0-.24-2.76l0,0a4.55,4.55,0,0,0-2.22-1.92,3.25,3.25,0,0,0-.4-.15l-15-4.75v-2.89l15.83,5Zm4.44,9h0Zm-20.27,3.2-7.87-2.46h0l-.06,0-1.1-.23c-.81-.16-1.85-.36-3-.69-4.75-1.32-10.7-4.35-8.29-12.86v0h0l.07-.23c0-.05,0-.1.05-.14a6,6,0,0,1,4-4,9.9,9.9,0,0,1,5.6.09h0l.44.12.12.05,10,3.16v2.89l-10.87-3.44-.09,0-.32-.1h-.07a7.22,7.22,0,0,0-4-.12,3.38,3.38,0,0,0-2.25,2.27v0l-.07.23c-1.74,6.18,2.77,8.44,6.37,9.44,1,.28,2,.48,2.81.64.54.1,1,.19,1.35.29l.11,0h0l7,2.19Z"/><path class="cls-5" d="M730.64,538.14c2.63.83,4.6,3.56,3.33,6.54A8.48,8.48,0,0,1,730.2,549a5.88,5.88,0,0,1-5.38.42l-21.18-6.71c-12.24-3.87-3.74-14.37,9.17-10.26Z"/><path class="cls-4" d="M731.07,536.83l.58.21A6.91,6.91,0,0,1,735,540l.06.1a5.78,5.78,0,0,1,.4,4.59l0,.07c0,.16-.11.32-.17.47h0v0c-.16.38-.32.71-.46,1s-.34.58-.54.89a9.41,9.41,0,0,1-3.38,3.12,7.59,7.59,0,0,1-3.26,1h0a8.85,8.85,0,0,1-3.2-.51L716,548.09V545.2l9.2,2.92a6.23,6.23,0,0,0,2.2.38h0a4.92,4.92,0,0,0,2.1-.7,6.65,6.65,0,0,0,2.38-2.21,7.11,7.11,0,0,0,.39-.67,7.28,7.28,0,0,0,.37-.74v0h0c0-.09.08-.19.11-.28v0a3.08,3.08,0,0,0-.2-2.45l0-.06a4.14,4.14,0,0,0-2-1.73,3,3,0,0,0-.36-.13L716,534.93V532Zm-15,11.26L703.22,544c-4.08-1.29-6.18-3.35-6.75-5.51a5,5,0,0,1,.33-3.37,7,7,0,0,1,2.3-2.7c2.93-2.16,8.13-3.22,14.14-1.3l2.8.89v2.89l-3.65-1.16c-5.07-1.61-9.32-.82-11.64.89a4.28,4.28,0,0,0-1.42,1.63,2.24,2.24,0,0,0-.17,1.54c.34,1.3,1.85,2.62,4.9,3.58l12,3.79Z"/><path class="cls-5" d="M734,541l13-6.68a6.23,6.23,0,0,1,.83,2.7c.21,3.38-4.65,8.33-6.82,10.61-2.8,3-6.3,5-10.43,1.9-.18-.14-.35-.27-.51-.41l.14-.07a8.48,8.48,0,0,0,3.77-4.33A4.46,4.46,0,0,0,734,541Z"/><path class="cls-4" d="M739.47,536.58l6.88-3.52a1.4,1.4,0,0,1,1.8.46h0a7.85,7.85,0,0,1,1.06,3.38v.16c.11,3.81-4.52,8.67-6.91,11.18l-.29.31a16.64,16.64,0,0,1-2.54,2.23v-3.6c.18-.17.35-.34.52-.52l.29-.31c2.13-2.23,6.27-6.59,6.15-9.24h0v0h0a4.38,4.38,0,0,0-.14-.88l-6.82,3.49Zm-6.16,3.16,6.16-3.16v3.1l-3.83,2a5.85,5.85,0,0,1,0,2.09c0,.24-.09.48-.15.7a6.08,6.08,0,0,1-.22.64l0,.08,0,.05h0a10.45,10.45,0,0,1-2.74,3.88,4.56,4.56,0,0,0,3.39.4,8.92,8.92,0,0,0,3.57-2.32v3.6a9.46,9.46,0,0,1-2.8,1.37,7.6,7.6,0,0,1-6.93-1.55h0l-.29-.23h0l-.24-.2a1.37,1.37,0,0,1-.2-1.93,1.3,1.3,0,0,1,.43-.35h0l.14-.08,0,0c.15-.08.29-.17.44-.27a5.92,5.92,0,0,0,.48-.35h0a7.58,7.58,0,0,0,2.18-3h0l0,0,0-.05.12-.35a3.56,3.56,0,0,0,.09-.39,3,3,0,0,0-.25-1.77,1.38,1.38,0,0,1,.62-1.8Z"/><path class="cls-5" d="M733.34,554.39l13.65-7a6.16,6.16,0,0,1,.83,2.69c.21,3.38-4.65,8.33-6.82,10.62-2.8,2.95-6.3,5-10.43,1.89l-.56-.44A10,10,0,0,0,733.2,558,4.86,4.86,0,0,0,733.34,554.39Z"/><path class="cls-4" d="M739.33,548.92l7-2.75a1.42,1.42,0,0,1,1.8.46h0a7.79,7.79,0,0,1,1.06,3.38v.16c.11,3.8-4.52,8.67-6.91,11.18l-.29.3a16.29,16.29,0,0,1-2.68,2.33v-3.55l.66-.67.29-.3c2.13-2.24,6.27-6.59,6.15-9.24h0v0a4.5,4.5,0,0,0-.14-.88l-7,3.57Zm-7.05,2.76,7.05-2.76v4L735,555.12a5.7,5.7,0,0,1,0,1.75v0c0,.21-.08.43-.14.65a4.68,4.68,0,0,1-.21.67,3.13,3.13,0,0,1-.13.33,11.49,11.49,0,0,1-2.26,3.47,4.56,4.56,0,0,0,3.68.56,8.67,8.67,0,0,0,3.43-2.17V564a9.32,9.32,0,0,1-2.66,1.28,7.61,7.61,0,0,1-6.93-1.56h0l-.32-.25h0l-.26-.21a1.36,1.36,0,0,1-.2-1.94,1.2,1.2,0,0,1,.26-.24l.46-.37.44-.42h0a8.94,8.94,0,0,0,1.81-2.75l.08-.2a2.64,2.64,0,0,0,.12-.4,2.33,2.33,0,0,0,.08-.38v0a3.35,3.35,0,0,0-.17-1.62,1.37,1.37,0,0,1,.67-1.69Z"/><path class="cls-5" d="M733,567.65l14-7.19a6.17,6.17,0,0,1,.83,2.7c.21,3.37-4.65,8.32-6.82,10.61-2.8,3-6.3,5-10.43,1.89l-.35-.27a8.38,8.38,0,0,0,3-3.76A4.29,4.29,0,0,0,733,567.65Z"/><path class="cls-4" d="M739.46,562l6.89-2.76a1.42,1.42,0,0,1,1.8.46h0a7.79,7.79,0,0,1,1.06,3.38v.16c.11,3.8-4.52,8.67-6.91,11.18l-.29.3a16.25,16.25,0,0,1-2.55,2.24v-3.59c.18-.18.36-.35.53-.54l.29-.3c2.13-2.24,6.27-6.59,6.15-9.24h0v0a4.5,4.5,0,0,0-.14-.88l-6.83,3.5Zm-7.36,3,7.36-3v3.87l-4.73,2.43a5.47,5.47,0,0,1,.17,2.29,5.64,5.64,0,0,1-.13.67l0,.11a6,6,0,0,1-.27.78h0v0h0a11.21,11.21,0,0,1-1.53,2.59c-.14.17-.29.34-.44.49a4.48,4.48,0,0,0,3.41.41,8.77,8.77,0,0,0,3.56-2.3V577a9.29,9.29,0,0,1-2.79,1.37,7.62,7.62,0,0,1-6.94-1.56h0l-.17-.13-.07-.06-.12-.09a1.36,1.36,0,0,1-.22-1.93,1.58,1.58,0,0,1,.3-.28h0a6.1,6.1,0,0,0,1.33-1.23,8.06,8.06,0,0,0,1.14-1.93h0v0h0a3.66,3.66,0,0,0,.15-.43l0-.08c0-.12,0-.23.07-.34a2.88,2.88,0,0,0-.4-1.88,1.36,1.36,0,0,1,.5-1.88l.06,0Z"/><path class="cls-5" d="M732.84,579.89l14.52-7.16a6.48,6.48,0,0,1,.66,2.86c0,3.51-5.43,8.32-7.84,10.55-2.85,2.62-6.23,4.42-9.87,2.09a8.4,8.4,0,0,0,3.1-3.86A4.32,4.32,0,0,0,732.84,579.89Z"/><path class="cls-4" d="M739.75,574.94l7-3.44a1.4,1.4,0,0,1,1.83.55h0l0,0,0,0h0v0a8,8,0,0,1,.79,3.43,4.91,4.91,0,0,1,0,.67c-.52,3.8-5.37,8.25-7.92,10.59l-.32.3c-.44.41-.9.8-1.37,1.16v-3.66c2.34-2.15,6.48-6,6.86-8.76,0-.11,0-.22,0-.31a5.05,5.05,0,0,0-.08-.91l-6.8,3.36Zm-7.53,3.72,7.53-3.72V578l-5,2.45a5.46,5.46,0,0,1,.38,2.62,5,5,0,0,1-.15.89,5.28,5.28,0,0,1-.3.9h0a10.57,10.57,0,0,1-1.61,2.67l-.21.25a4.61,4.61,0,0,0,2.28-.11,10.85,10.85,0,0,0,4.08-2.59l.32-.29.2-.19v3.66a11.79,11.79,0,0,1-3.81,2.05,7.43,7.43,0,0,1-6.39-1,1.36,1.36,0,0,1-.4-1.9,1.35,1.35,0,0,1,.45-.44,6,6,0,0,0,1.34-1.21,8.24,8.24,0,0,0,1.19-2h0a3.39,3.39,0,0,0,.17-.51,2.27,2.27,0,0,0,.09-.47,3,3,0,0,0-.65-2.12,1.37,1.37,0,0,1,.26-1.93l.22-.14Z"/><path class="cls-4" d="M997.4,357.44a1.38,1.38,0,0,1,.78-1.79,1.39,1.39,0,0,1,1.8.77,18.38,18.38,0,0,0,3.78,5.41c1.73,1.84,3.74,3.6,5.67,5.28l.45.39c4.66,4.05,6.72,5.83,7.06,12.54.55,10.9-2.44,30.34-2.45,30.4a1.4,1.4,0,0,1-2.65.36,16.61,16.61,0,0,0-2.79-3.63,20.89,20.89,0,0,0,1.05,7.25,101.11,101.11,0,0,0,3.95,11l.06.12c.7,1.7.68,1.64.79,1.92.73,1.74,1.31,3.14,1.59,4h0a13.81,13.81,0,0,1,0,7.91,4.54,4.54,0,0,1-.6,1.23,1.51,1.51,0,0,1-2.27.5h0a2.08,2.08,0,0,1-.82-1.45c-.24-1.39-2.72-4.8-8.21-8.88-2.63,14.43,10.4,24.38,10.44,24.41h0a1.37,1.37,0,0,1-.53,2.42c-.75.18-1.49.34-2.22.47,2,8.34,17.22,14.2,17.26,14.22h0a1.4,1.4,0,0,1,.82.89,1.39,1.39,0,0,1-.95,1.71c-14.26,4.08-22,3.1-25.7,1.84a36.69,36.69,0,0,1,0,9c-.29,3.29-.59,6.61.2,9.95h0a1.38,1.38,0,0,1-.56,1.45,1.39,1.39,0,0,1-1.93-.36c-1.65-2.37-9.63-3.15-10.23-3.21h0a29.77,29.77,0,0,1-16.59-7.23,17.7,17.7,0,0,1-4.49,7.33l-.07.08c-.43.43-.89.84-1.36,1.23s-.91.73-1.34,1h0c-1.27.91-2.54,1.66-3.8,2.41s-2.77,1.66-4.09,2.63l-4.42,3.26h0a1.4,1.4,0,0,1-1.4.15,1.38,1.38,0,0,1-.7-1.82,8.46,8.46,0,0,0,.62-4.4,16.15,16.15,0,0,0-1.16-4.28.31.31,0,0,1,0-.1,40.2,40.2,0,0,0-2.86-5.26,34.8,34.8,0,0,1-3.67-7.23,71,71,0,0,1-2.84-13.24,5.68,5.68,0,0,0-1.81,1.66h0c-.16.22-.33.47-.5.76s-.32.55-.45.83h0l0,0a24.43,24.43,0,0,0-1.92,7.46c-.11.75-.22,1.51-.35,2.26V469.71c.11-.21.23-.41.35-.61a11.42,11.42,0,0,1,.64-1h0a7.24,7.24,0,0,1,5.14-3.2,1.4,1.4,0,0,1,1.52,1.24v.06a69.17,69.17,0,0,0,2.88,14.23,32.53,32.53,0,0,0,3.4,6.68,43.24,43.24,0,0,1,3.06,5.61s0,.08,0,.11a18.21,18.21,0,0,1,1.36,5.05,13.73,13.73,0,0,1,.07,1.93l1.4-1c1.43-1.05,2.88-1.92,4.32-2.78,1.24-.74,2.48-1.48,3.63-2.29h0c.39-.28.79-.58,1.17-.9s.78-.67,1.18-1.07l.07-.07a14.59,14.59,0,0,0,4.28-8.34,1.38,1.38,0,0,1,1.57-1.17,1.4,1.4,0,0,1,.88.48h0a25.9,25.9,0,0,0,16.6,8.13h0a34,34,0,0,1,9.22,2.18,44.6,44.6,0,0,1,.24-7.51c.33-3.66.65-7.29-.53-10.91a1.39,1.39,0,0,1,.9-1.74,1.43,1.43,0,0,1,1.38.31h0s4.46,4.46,22.28.07c-5-2.49-13.81-7.74-15.4-14.73-20.23,2.48-32.07-11.19-36.55-17.81l-1.51,10.61h0a1.35,1.35,0,0,1-.68,1,1.4,1.4,0,0,1-1.9-.5c-2.46-4.25-7-7.08-9.67-8.48,1.08,11.9-3.92,22.41-3.93,22.44h0a1.39,1.39,0,0,1-2.65-.7c.58-6.09-6.63-10.41-13.13-14.31l-1.67-1v-3.24c1,.63,2,1.26,3.11,1.9,5.41,3.25,11.27,6.76,13.53,11.61a42.32,42.32,0,0,0,1.78-18.13,30.26,30.26,0,0,1-8.5-8c-.25-.35-.49-.71-.72-1.06a23.87,23.87,0,0,1-5.51,6.82,1.33,1.33,0,0,1-.82.32,1.39,1.39,0,0,1-1.47-1.3,15.41,15.41,0,0,0-1.4-5.42V427.7a24.6,24.6,0,0,1,3.77,8c1.58-1.68,3.6-4.29,3.6-6.66a1.4,1.4,0,0,1,1.4-1.39,1.41,1.41,0,0,1,1.31.92,20.21,20.21,0,0,0,.94,1.86h0c.37.64.76,1.26,1.17,1.84a27.59,27.59,0,0,0,8,7.37h0a32.06,32.06,0,0,1,11.15,7.79l1.58-11.06a1.39,1.39,0,0,1,1.57-1.18,1.42,1.42,0,0,1,1.09.82c.72,1.42,12.63,23.74,37.78,19.38-4-3.92-12.1-13.66-9.08-26.45-.83-.55-1.71-1.11-2.65-1.66q-2.33-1.4-5-2.72l-.1-.05a36.79,36.79,0,0,1-16.6-17.07l-5.84,11.88h0a1.35,1.35,0,0,1-.45.53,1.4,1.4,0,0,1-1.93-.34,27.3,27.3,0,0,0-5.24-5.17,42.13,42.13,0,0,1-4.16-3.77c-.27,1.86-1.23,3.4-2.44,5.35-.44.71-.92,1.49-1.41,2.38a14.19,14.19,0,0,0-1.54,5h0a1.36,1.36,0,0,1-1,1.16,1.39,1.39,0,0,1-1.7-1c-1.72-6.25-14-14.66-14.08-14.68l-.15-.12v-2a1.41,1.41,0,0,1,1.72-.12s9.2,6.29,13.39,12.56a14.47,14.47,0,0,1,.94-2.07c.51-.92,1-1.74,1.48-2.49,2-3.19,3.11-5,.36-10.48a.91.91,0,0,1-.08-.16,1.37,1.37,0,0,1,.63-1.81,1.4,1.4,0,0,1,1.87.61l0,.05.09.16a36,36,0,0,0,2.85,4.52,29.42,29.42,0,0,0,5,4.85,39.92,39.92,0,0,1,4.32,3.94l6.25-12.71a1.4,1.4,0,0,1,2.58.2h0v0a33.61,33.61,0,0,0,16.38,18.37l.1.05c1.91.95,3.63,1.89,5.18,2.81s3,1.89,4.31,2.81a36.07,36.07,0,0,1,9,8.68,10.22,10.22,0,0,0-.38-4.17v0c-.26-.8-.82-2.13-1.5-3.78-.39-.92-.67-1.59-.81-1.94a.36.36,0,0,1,0-.11,103.94,103.94,0,0,1-4.07-11.27c-1.11-4-1.62-7.67-.71-10.12-1.24-1-2.57-2-3.9-3.07-3.28-2.49-6.59-5-9-8.22-5.14-6.91-5.87-15.79-6-17.1-1.48-6.11-3.44-9.95-5.18-12.34,3.15,11.19-.54,24.72-1,26.3,0,.36,0,.67-.06.92a6.67,6.67,0,0,1,.08,1,3.75,3.75,0,0,1,0,.5h0v0a1.16,1.16,0,0,1,0,.18,1.49,1.49,0,0,1-.51,1c-.94,1.51-1.78,1.59-2.14-.54a1.34,1.34,0,0,1-.11-.9c0-.21,0-.54,0-1a5.25,5.25,0,0,0-.34-1.15h0a2.24,2.24,0,0,0-.1-.21c-1-2-4.11-4.47-7.45-7.1a59.45,59.45,0,0,1-8.35-7.46c-1.17,8.07-6.43,16.28-6.45,16.31a1.39,1.39,0,0,1-1.91.45,1.37,1.37,0,0,1-.58-1.64,3.53,3.53,0,0,0,.13-.54,4.4,4.4,0,0,0,0-.62,7.82,7.82,0,0,0-1-3.36,7.57,7.57,0,0,0-2.73-2.91,14.77,14.77,0,0,1-2.69-2.35l-.07-.08c-.13-.14-.24-.28-.36-.43a25.68,25.68,0,0,1-5.5,12.85,1.41,1.41,0,0,1-2,.15,1.37,1.37,0,0,1-.41-.58h0a17.26,17.26,0,0,0-1.37-2.83v-5.07a43.66,43.66,0,0,1,3,4.71c1.77-2.72,4.53-8.2,3.34-14.69a1.38,1.38,0,0,1,.94-1.64,1.39,1.39,0,0,1,1.74.9,14.81,14.81,0,0,0,2.72,4.84l.06.06a12.73,12.73,0,0,0,2.24,1.94,9.88,9.88,0,0,1,3.56,3.89,11.78,11.78,0,0,1,.67,1.53c2-3.89,4.46-10,4-15a8.45,8.45,0,0,1-.62-3,1.39,1.39,0,0,1,2.7-.47h0a12.59,12.59,0,0,1,.63,2.81c1.52,3.43,5.91,6.89,10,10.08a48.34,48.34,0,0,1,7,6.2c1.26-5.61,3.38-18.66-1.8-27.3a1.36,1.36,0,0,1-.1-1.2,1.39,1.39,0,0,1,1.8-.78s7.33,2.64,11,18.1h0a2.51,2.51,0,0,1,0,.27s.36,8.94,5.42,15.74c2.15,2.89,5.31,5.29,8.42,7.66a48.33,48.33,0,0,1,7.74,6.78c.82-6,2.33-18.55,1.93-26.38-.28-5.54-2.06-7.09-6.11-10.6l-.45-.39c-2-1.73-4.08-3.56-5.88-5.47a20.89,20.89,0,0,1-4.32-6.27Zm-59.61-12v-2.86c11.23,3.48,22.18,1.75,27.61.45a24.65,24.65,0,0,1-5.68-6c-4.6-6.44-7.42-6.81-7.5-6.82a1.38,1.38,0,0,1,.22-2.75c44.58,2.36,49.28-13.13,49.29-13.17a1.4,1.4,0,0,1,1.76-.88,1.38,1.38,0,0,1,.89,1.74c0,.05-5,16.19-46.79,15.26a30.37,30.37,0,0,1,4.43,5.06l0,.06h0c.17.26,3.8,5.8,7.56,6.42a1.38,1.38,0,0,1,.16,2.69c-1,.36-16.11,5.38-32,.79ZM970.68,558.7a1.36,1.36,0,0,1,.55-1.87,1.4,1.4,0,0,1,1.89.54c0,.06,10.62,17.87-15.6,68.89l0,.07L950,639.66a1.39,1.39,0,0,1-1.88.54,1.36,1.36,0,0,1-.55-1.87L955,625l0,0C980.58,575.3,970.71,558.75,970.68,558.7Zm-32.89-77.62a22.57,22.57,0,0,1-1.55,5.43,37.66,37.66,0,0,1-5.07,8.08,1.39,1.39,0,0,1-2.48-1,4.52,4.52,0,0,0-.31-2,14.22,14.22,0,0,0-1.13-2.36,26.41,26.41,0,0,0-2.73-3.62,24.39,24.39,0,0,1-3.39-4.69c-.26-.51-.5-1-.72-1.49-3.91,13.6-15.84,20-16.17,20.14a1.42,1.42,0,0,1-1.57-.16,1.36,1.36,0,0,1-.16-1.94,3.8,3.8,0,0,0,.48-1.78,19.28,19.28,0,0,0-1.87-10.34c-.15-.38-.3-.74-.44-1.11a32.12,32.12,0,0,1-1.45,3.85c-.28.65-.6,1.29-.92,1.91s-.61,1.12-.92,1.66l0,.07-.07.12c-2.76,4.61-4.75,5.62-7.63,7.09a37.32,37.32,0,0,0-4.37,2.53,24.64,24.64,0,0,0-4.22,3.57h0a1.51,1.51,0,0,1-.63.43h0a2.08,2.08,0,0,1-.36.06h-.18l-.11,0h0l.11,0-.11,0V487.94l.2.52a29.37,29.37,0,0,1,1.55,4.85,27.17,27.17,0,0,1,.33,7.28c.56-.45,1.19-.92,1.87-1.39a40.62,40.62,0,0,1,4.67-2.71,13,13,0,0,0,6.51-6.05l.07-.11,0-.07c.27-.47.55-1,.84-1.52s.56-1.12.85-1.76a29.15,29.15,0,0,0,2.45-9.23,15,15,0,0,1,.12-2.18,1.39,1.39,0,0,1,1.41-1.23,1.38,1.38,0,0,1,1.36,1.4c0,.69,0,1.37-.1,2a19.41,19.41,0,0,0,1.77,6.56,24,24,0,0,1,2.1,7.81,27.1,27.1,0,0,1,0,3.12c4.19-3.07,11.59-10,12.86-21.3a1.4,1.4,0,0,1,2.74-.16h0a26.46,26.46,0,0,0,2.19,5.87,22.41,22.41,0,0,0,3,4.16,28.32,28.32,0,0,1,3,4,18.26,18.26,0,0,1,1.23,2.51,32.44,32.44,0,0,0,2.81-5,25.92,25.92,0,0,0,1.69-7,26.16,26.16,0,0,1,2.18-8.28v0h0l.21-.41v11.37Zm0-31.39a57.54,57.54,0,0,1-4.92-3.26c-.13,8.52-4.15,17.27-4.59,18.21a1.4,1.4,0,0,1-2.68-.3c-1.4-9.31-8.52-17.72-11.48-20.88a44.61,44.61,0,0,1-16.06,16.3,1.41,1.41,0,0,1-1.31.1A1.38,1.38,0,0,1,896,458c2.13-4.76,1-10.49-.27-14.2-3.58,10.85-11.63,13.09-11.66,13.1a1.39,1.39,0,0,1-1.63-1.95c1.21-2.31-.47-5.95-.78-6.58l0-.07a28.72,28.72,0,0,1-1.9-4.49V433.09a1.37,1.37,0,0,1,1,1.29,32.27,32.27,0,0,0,3.35,12.67l.06.15a14.66,14.66,0,0,1,1.47,6c2.68-1.66,6.9-5.55,8.44-14.05a1.39,1.39,0,0,1,2.6-.37h0c.16.32,4.36,8.73,3,16.67a42.38,42.38,0,0,0,12.86-14.91,1.4,1.4,0,0,1,1.87-.61,1.42,1.42,0,0,1,.34.25h0c.39.38,9.2,8.85,12.56,19.45,1.48-4.06,3.34-10.59,2.59-16.32a1.39,1.39,0,0,1,1.2-1.54,1.42,1.42,0,0,1,1.24.48h0l0,0h0a24.73,24.73,0,0,0,5.39,4.17v3.24Zm0-16.46V427.7a50.66,50.66,0,0,0-10.81-11h0a1.45,1.45,0,0,0-.76-.27,1.39,1.39,0,0,0-1.45,1.32c-.13,2.71-3.72,8.41-6,11.74-1.11-2.29-3.34-3.58-5.6-4.88a18.13,18.13,0,0,1-3.52-2.4l-.06-.07h0c-3.49-3.49-5-9.4-5-9.42a1.39,1.39,0,0,0-1.69-1,1.38,1.38,0,0,0-1,1.67s1.66,6.66,5.7,10.68h0l.09.09a19.94,19.94,0,0,0,4.07,2.81c2.48,1.43,4.92,2.84,4.92,5.88a1.4,1.4,0,0,0,2.6.69c.73-1,6-8.37,7.69-13.32,2.76,2.27,8.19,7.23,10.77,13Zm0-24.55a1.36,1.36,0,0,1-.21-1.79,1.27,1.27,0,0,1,.21-.25v2Zm0-18.48a46.15,46.15,0,0,0-2.71-4.11c.68,7.23-1.34,15.71-1.35,15.75a1.39,1.39,0,0,1-1.67,1,1.36,1.36,0,0,1-1.06-1.11c-.67-3.08-3.38-4.92-6.21-6.85a23.8,23.8,0,0,1-6.5-5.7,17.92,17.92,0,0,1-3.39,5.1,18.52,18.52,0,0,0-4,6.64,1.39,1.39,0,0,1-1.74.89,1.35,1.35,0,0,1-.8-.65,12.09,12.09,0,0,0-3-3.48,34.45,34.45,0,0,0-5.76-3.32c-6.37-3.18-6.37-13.95-6.37-14a1.39,1.39,0,0,1,2.78,0s0,9.12,4.84,11.53a37.36,37.36,0,0,1,6.23,3.61,12.64,12.64,0,0,1,2.18,2.14,20.78,20.78,0,0,1,3.67-5.28,16.67,16.67,0,0,0,3.8-6.95h0a1.37,1.37,0,0,1,.88-1,1.39,1.39,0,0,1,1.78.83c1.24,3.4,4.18,5.4,7,7.31a23.55,23.55,0,0,1,5.44,4.53c.8-5,1.55-13.4-1.46-17l0,0a1.38,1.38,0,0,1,.11-1.95,1.4,1.4,0,0,1,2,.11s2.8,3.16,5.41,6.84v5.07Zm0-47.58v2.86a42.82,42.82,0,0,1-10.61-4.66c2.22,3.36,5.09,7.11,7.39,8.17a1.36,1.36,0,0,1,.68,1.82,1.38,1.38,0,0,1-1.14.8c-.73.08-15.24,1.62-23-2.17h0l-.08,0a77.21,77.21,0,0,1-8.59-5.23c-6.71-4.48-13.36-8.92-21.87-6.95q-.44.11-.84.24v-2.88l.21-.05c9.69-2.24,16.84,2.54,24,7.36a76.45,76.45,0,0,0,8.31,5.05h0c4.93,2.43,13.22,2.42,17.93,2.18-4.33-4.29-8.71-12.16-9.1-12.87a1.38,1.38,0,0,1,.16-1.62,1.4,1.4,0,0,1,2-.12,39.53,39.53,0,0,0,14.49,8.09Zm-58,13.29a10,10,0,0,0,4.36.15,10.57,10.57,0,0,0,4.48-1.95,7.9,7.9,0,0,0,2.84-4,7.41,7.41,0,0,0,.17-3.53v0h0a6.25,6.25,0,0,0-.27-1,7,7,0,0,0-.44-1,11.94,11.94,0,0,0-5.21-4.53,1.41,1.41,0,0,0-1.88.58,1.38,1.38,0,0,0,.59,1.86,9.36,9.36,0,0,1,4.06,3.42,3.62,3.62,0,0,1,.27.57,4.94,4.94,0,0,1,.15.55h0a4.73,4.73,0,0,1-.11,2.26,5.1,5.1,0,0,1-1.87,2.58,7.47,7.47,0,0,1-3.27,1.42,7.19,7.19,0,0,1-3.3-.14l-.57-.19Zm0,149.61-.11,0h-.08l-.29-.13h0l-.12-.09h0l.12.09-.12-.1v-6.76c0-.3,0-.61,0-.91v-11.3c.18.55.39,1.11.6,1.66v17.58l-.11,0,.11,0Zm0-61.67c-.23-.7-.43-1.39-.6-2.05v-8.74l.2,0a1.75,1.75,0,0,1,.4,0v10.76Zm0-109.27v2.88l-.6.22v-2.93l.6-.17Zm0,18.44v2.89l-.23-.06-.37-.12v-3C879.34,352.86,879.55,352.94,879.75,353Zm-.6,152.24-.12-.1,0,0-.06-.07h0l0,0,0,0h0l-.06-.07v0a1.35,1.35,0,0,1-.14-1.13v0s0,0,0-.15.09-.54.14-.88a36,36,0,0,0,.33-4.22v6.76l-.12-.09.12.1Zm0-7.68a20.22,20.22,0,0,0-.37-3.72,27.51,27.51,0,0,0-1.43-4.42c-.92-2.38-1.81-4.66-1.67-7.44-12.3,8-20.18,6.34-20.4,6.29a1.38,1.38,0,0,1-.38-2.56s8-4.28,9.31-13.61c1.62-11.11,6.45-11.39,6.46-11.39a1.37,1.37,0,1,1,.26,2.73s-2.67.12-4,9.05a21.8,21.8,0,0,1-7.26,13.1c3.56-.43,9.47-2.11,17.16-7.79a1.4,1.4,0,0,1,1.95.28,1.37,1.37,0,0,1,.19,1.29,10.4,10.4,0,0,0,.15,6.89v11.3Zm0-55.78a36.78,36.78,0,0,1-1.16-7.35,1.39,1.39,0,0,1,1.16-1.39v8.74Zm0-107v2.93a9.1,9.1,0,0,0-.94.46,8.57,8.57,0,0,0-3.57,4,8.11,8.11,0,0,0,.33,7.36,11.65,11.65,0,0,0,4.18,3.3v3a14.33,14.33,0,0,1-6.44-4.66h0a1.3,1.3,0,0,1-.1-.15,10.78,10.78,0,0,1-.52-9.91,11.29,11.29,0,0,1,4.74-5.25,12.06,12.06,0,0,1,2.32-1Zm-6.37,250.9a1.39,1.39,0,0,1,1.82-.71,1.37,1.37,0,0,1,.73,1.8c0,.07-10.05,22.38-1,55l0,.09h0l1.87,8.91a1.39,1.39,0,0,1-2.72.56l-1.87-8.88C862.35,608.88,872.75,585.72,872.78,585.65Z"/></svg>